<svg id="Layer_1" data-name="Layer 1" xmlns="http://www.w3.org/2000/svg" viewBox="0 0 24 24"><defs><style>.cls-1{fill:#f2c5a7;}.cls-2{fill:#ff9a41;}</style></defs><g id="Group_58946" data-name="Group 58946"><path id="Rectangle_17143" data-name="Rectangle 17143" class="cls-1" d="M20.5,23.1h0a3.47,3.47,0,0,1-4.87-.6l0-.05L3.22,6.19a3.56,3.56,0,0,1,.63-5h0a3.47,3.47,0,0,1,4.87.6l0,0L21.13,18.14A3.56,3.56,0,0,1,20.5,23.1Z"/><path id="Rectangle_17144" data-name="Rectangle 17144" class="cls-2" d="M5.52,24h0a4,4,0,0,1-4.13-3.9v-16A4,4,0,0,1,5.52.15h0a4,4,0,0,1,4.13,3.9V20.1A4,4,0,0,1,5.52,24Z"/><path id="Rectangle_17145" data-name="Rectangle 17145" class="cls-2" d="M18.48,24h0a4.13,4.13,0,0,1-4.13-4.13h0V9.48a4.12,4.12,0,0,1,4.13-4.12h0a4.12,4.12,0,0,1,4.13,4.12h0V19.87A4.13,4.13,0,0,1,18.48,24Z"/></g></svg>