<svg id="Layer_1" data-name="Layer 1" xmlns="http://www.w3.org/2000/svg" viewBox="0 0 24 24"><defs><style>.cls-1{opacity:0;}.cls-2{fill:#f58b1e;}.cls-3{fill:none;}</style></defs><g id="Group_57867" data-name="Group 57867"><g id="icon_24x_Cost_To_Reach" data-name="icon 24x Cost To Reach"><g id="Boundary" class="cls-1"><rect class="cls-2" x="0.53" y="0.65" width="22.95" height="22.95"/><rect class="cls-3" x="0.69" y="0.81" width="22.62" height="22.62"/></g><g id="Group_57593" data-name="Group 57593"><path id="Subtraction_6" data-name="Subtraction 6" class="cls-2" d="M9.25,20.08H7.18l3.08-8.46a1.94,1.94,0,1,1,3,0l1,2.83a3.44,3.44,0,0,0,1.42,3.91l.34.93H14.84v.78h-.6l-2.49-6.86-2.5,6.87Zm-3.41-2h0a9.72,9.72,0,1,1,15.62-7.72A10,10,0,0,1,21.32,12h-1V9.82H19.5A7.77,7.77,0,0,0,4,10.36a7.64,7.64,0,0,0,2.57,5.77l-.7,1.94Zm1.44-4h0A5.83,5.83,0,1,1,17.34,12a3.39,3.39,0,0,0-1.68.58l-.3-.81a3.81,3.81,0,0,0,.27-1.42,3.89,3.89,0,0,0-7.77,0,4,4,0,0,0,.27,1.44l-.85,2.33Z"/><path id="Icon_material-attach-money" data-name="Icon material-attach-money" class="cls-2" d="M18.77,16.73c-1.54-.4-2-.82-2-1.46S17.42,14,18.57,14s1.66.58,1.7,1.43h1.5a2.7,2.7,0,0,0-2.18-2.59V11.36h-2v1.47a2.65,2.65,0,0,0-2.38,2.45c0,1.57,1.3,2.35,3.2,2.81,1.69.41,2,1,2,1.64,0,.47-.33,1.21-1.83,1.21s-1.95-.62-2-1.42H15.05a2.86,2.86,0,0,0,2.5,2.6v1.47h2V22.13c1.32-.25,2.38-1,2.38-2.41C22,17.79,20.32,17.13,18.77,16.73Z"/></g></g></g></svg>