<svg id="Layer_1" data-name="Layer 1" xmlns="http://www.w3.org/2000/svg" viewBox="0 0 24 24"><defs><style>.cls-1{opacity:0;}.cls-2{fill:#f58b1e;}.cls-3{fill:none;}</style></defs><g id="Group_57867" data-name="Group 57867"><g id="icon_24x_Cost_For_Impressions" data-name="icon 24x Cost For Impressions"><g id="Boundary" class="cls-1"><rect class="cls-2" x="0.46" y="0.46" width="23.09" height="23.09"/><rect class="cls-3" x="0.62" y="0.62" width="22.76" height="22.76"/></g><g id="Group_57594" data-name="Group 57594"><g id="Group_57397" data-name="Group 57397"><path id="Path_520" data-name="Path 520" class="cls-2" d="M12.48,10.36a1.72,1.72,0,1,1-1.71-1.71,1.71,1.71,0,0,1,1.71,1.71Z"/><path id="Subtraction_7" data-name="Subtraction 7" class="cls-2" d="M10.77,18.35a10.63,10.63,0,0,1-10.31-8A10.64,10.64,0,0,1,19.88,7.52H18.53V9.67h-.22a3.35,3.35,0,0,0-1.1,6.51c-.3.22-.61.43-.92.63h-.61v.34A10.63,10.63,0,0,1,10.77,18.35Zm0-11.53a3.55,3.55,0,1,0,3.54,3.54h0A3.55,3.55,0,0,0,10.77,6.82Z"/></g><path id="Icon_material-attach-money" data-name="Icon material-attach-money" class="cls-2" d="M20.16,14.53C18.53,14.11,18,13.67,18,13s.73-1.33,1.95-1.33,1.75.61,1.8,1.51h1.59A2.89,2.89,0,0,0,21,10.42V8.85H18.87V10.4A2.81,2.81,0,0,0,16.35,13c0,1.66,1.37,2.49,3.38,3,1.8.43,2.16,1.06,2.16,1.73,0,.5-.35,1.29-1.94,1.29s-2.07-.66-2.15-1.51H16.22a3,3,0,0,0,2.65,2.75V21.8H21V20.25c1.4-.27,2.51-1.08,2.51-2.55C23.54,15.65,21.8,15,20.16,14.53Z"/></g></g></g></svg>