<svg id="Layer_1" data-name="Layer 1" xmlns="http://www.w3.org/2000/svg" viewBox="0 0 24 24"><defs><style>.cls-1{opacity:0;}.cls-2{fill:#f58b1e;}.cls-3{fill:none;}</style></defs><g id="Group_57867" data-name="Group 57867"><g id="icon_24x_News_Feed_Likes" data-name="icon 24x News Feed Likes"><g id="Boundary" class="cls-1"><rect class="cls-2" width="24" height="24"/><rect class="cls-3" x="0.17" y="0.17" width="23.66" height="23.66"/></g><g id="Group_57591" data-name="Group 57591"><path id="Subtraction_21" data-name="Subtraction 21" class="cls-2" d="M13.76,18.69H2a2,2,0,0,1-2-2V3A2,2,0,0,1,2,1H17.69a2,2,0,0,1,2,2V13.33l-4.34,4H13.76ZM3,12.8v2H16.71v-2ZM9.83,8.86v2h6.88v-2ZM3,4.93v5.9H7.86V4.93Zm6.88,0v2h6.88v-2Z"/><path id="Path_thumb-up" data-name="Path thumb-up" class="cls-2" d="M23.94,18.57a.87.87,0,0,0-.87-.87H20.32l.42-2a.78.78,0,0,0,0-.14.65.65,0,0,0-.2-.46l-.46-.46-2.86,2.86a.89.89,0,0,0-.25.62v4.34a.87.87,0,0,0,.87.87h3.91a.84.84,0,0,0,.8-.53l1.31-3.06a.87.87,0,0,0,.06-.32v-.87m-9.56,4.78h1.74V18.14H14.38Z"/></g></g></g></svg>