<svg id="Layer_1" data-name="Layer 1" xmlns="http://www.w3.org/2000/svg" viewBox="0 0 24 24"><defs><style>.cls-1{fill:#fff;}.cls-2{opacity:0;}.cls-3{fill:#f58b1e;}.cls-4{fill:none;}</style></defs><g id="button_Calendar" data-name="button Calendar"><g id="button_Ciricle_background" data-name="button Ciricle background"><circle id="Ellipse_285-3" data-name="Ellipse 285-3" class="cls-1" cx="12" cy="12" r="12"/></g><g id="icon_24x_Calendar" data-name="icon 24x Calendar"><g id="Boundary-2" class="cls-2"><rect class="cls-3" x="4.8" y="4.8" width="14.4" height="14.4"/><rect class="cls-4" x="5.1" y="5.1" width="13.8" height="13.8"/></g><path id="Path_calendar-month-outline" data-name="Path calendar-month-outline" class="cls-3" d="M8.4,12H9.84v1.44H8.4V12M18.48,7.68V17.76A1.43,1.43,0,0,1,17,19.2H7a1.43,1.43,0,0,1-1.44-1.44V7.68A1.43,1.43,0,0,1,7,6.24h.72V4.8H9.12V6.24h5.76V4.8h1.44V6.24H17a1.43,1.43,0,0,1,1.44,1.44M7,9.12H17V7.68H7V9.12M17,17.76v-7.2H7v7.2H17m-2.88-4.32V12H15.6v1.44H14.16m-2.88,0V12h1.44v1.44H11.28M8.4,14.88H9.84v1.44H8.4V14.88m5.76,1.44V14.88H15.6v1.44H14.16m-2.88,0V14.88h1.44v1.44Z"/></g></g></svg>