<svg id="Layer_1" data-name="Layer 1" xmlns="http://www.w3.org/2000/svg" viewBox="0 0 24 24"><defs><style>.cls-1{fill:#f58b1e;}</style></defs><path id="Path_calendar-month-outline" data-name="Path calendar-month-outline" class="cls-1" d="M6,12H8.4v2.4H6V12M22.8,4.8V21.6A2.39,2.39,0,0,1,20.4,24H3.6a2.39,2.39,0,0,1-2.4-2.4V4.8A2.39,2.39,0,0,1,3.6,2.4H4.8V0H7.2V2.4h9.6V0h2.4V2.4h1.2a2.39,2.39,0,0,1,2.4,2.4M3.6,7.2H20.4V4.8H3.6V7.2M20.4,21.6V9.6H3.6v12H20.4m-4.8-7.2V12H18v2.4H15.6m-4.8,0V12h2.4v2.4H10.8M6,16.8H8.4v2.4H6V16.8m9.6,2.4V16.8H18v2.4H15.6m-4.8,0V16.8h2.4v2.4Z"/></svg>