<svg id="Layer_1" data-name="Layer 1" xmlns="http://www.w3.org/2000/svg" viewBox="0 0 24 24"><defs><style>.cls-1{opacity:0;}.cls-2{fill:#f58b1e;}.cls-3{fill:none;}</style></defs><g id="Group_57867" data-name="Group 57867"><g id="icon_24x_Cost_to_acquire" data-name="icon 24x Cost to acquire"><g id="Boundary" class="cls-1"><rect class="cls-2" x="0.21" y="0.21" width="23.58" height="23.58"/><rect class="cls-3" x="0.38" y="0.38" width="23.25" height="23.25"/></g><path id="Path_gesture-tap-button" data-name="Path gesture-tap-button" class="cls-2" d="M13.18,3.75a4.71,4.71,0,0,1,2.36,8.79V11.1a3.61,3.61,0,1,0-4.72,0v1.44a4.71,4.71,0,0,1,2.36-8.79M21.43,22a1.82,1.82,0,0,1-1.77,1.77H13.18a1.59,1.59,0,0,1-1.18-.5l-4.72-5,.88-.91a1.19,1.19,0,0,1,.89-.37h.24l2.71,2V8.46a1.18,1.18,0,1,1,2.36,0v5.27l1.43.16,4.64,2.58a1.73,1.73,0,0,1,1,1.59v4m0-21.81H2.57A2.36,2.36,0,0,0,.21,2.57V12a2.36,2.36,0,0,0,2.36,2.36H7.28V12H2.57V2.57H21.43V12H19.07v2.36h2.36v0l.05,0A2.34,2.34,0,0,0,23.79,12V2.57A2.35,2.35,0,0,0,21.43.21Z"/></g></g></svg>