<svg id="Layer_1" data-name="Layer 1" xmlns="http://www.w3.org/2000/svg" viewBox="0 0 24 24"><defs><style>.cls-1{fill:none;}.cls-2{fill:#f58b1e;}</style></defs><g id="icon_24x_Cost_Per_Click" data-name="icon 24x Cost Per Click"><rect id="Boundary" class="cls-1" x="-0.41" y="0.24" width="23.57" height="23.57"/><g id="Group_57601" data-name="Group 57601"><path id="Subtraction_2" data-name="Subtraction 2" class="cls-2" d="M15,21.77H10.58a1.64,1.64,0,0,1-1.2-.52l-5.86-5,.89-.92a1.12,1.12,0,0,1,.88-.38h.26L9.38,17V5A1.2,1.2,0,1,1,11.77,5v5.4l1.45.16,5.9,2.61a1.76,1.76,0,0,1,1,1.62v2.08a3.21,3.21,0,0,0-.61-.4v-1.2H16.46v1.2A2.53,2.53,0,0,0,15,18.69a2.21,2.21,0,0,0,.7,1.66H15v.9a2.16,2.16,0,0,0,.06.51ZM8.18,9.16h0A4.72,4.72,0,0,1,5.79,5a4.79,4.79,0,1,1,9.57,0A4.72,4.72,0,0,1,13,9.16V7.7A3.58,3.58,0,1,0,7.9,7.42a3.83,3.83,0,0,0,.29.28V9.16Z"/><path id="Path_currency-usd" data-name="Path currency-usd" class="cls-2" d="M15.87,21.25h.85c0,.46.58.86,1.28.86s1.28-.4,1.28-.86-.44-.64-1.38-.86-2-.51-2-1.7a1.78,1.78,0,0,1,1.49-1.62v-.93h1.28v.92a1.81,1.81,0,0,1,1.49,1.63h-.85c0-.46-.59-.85-1.28-.85s-1.28.39-1.28.85.44.64,1.38.87,2,.51,2,1.69a1.81,1.81,0,0,1-1.49,1.63v.93H17.36v-.93A1.8,1.8,0,0,1,15.87,21.25Z"/></g></g></svg>