<svg id="Layer_1" data-name="Layer 1" xmlns="http://www.w3.org/2000/svg" viewBox="0 0 24 24"><defs><style>.cls-1{fill:#f58b1e;}</style></defs><path id="Path_monitor-dashboard" data-name="Path monitor-dashboard" class="cls-1" d="M21.82,16.37V3.26H2.18V16.37H21.82m0-15.29A2.19,2.19,0,0,1,24,3.26V16.37a2.19,2.19,0,0,1-2.18,2.18H14.18v2.19h2.18v2.18H7.64V20.74H9.82V18.55H2.18A2.19,2.19,0,0,1,0,16.37H0V3.26A2.18,2.18,0,0,1,2.17,1.08H21.82M4.36,5.45h9.82v5.46H4.36V5.45m10.91,0h4.37V7.63H15.27V5.45m4.37,3.27v5.46H15.27V8.72h4.37M4.36,12H8.73v2.18H4.36V12m5.46,0h4.36v2.18H9.82Z"/></svg>