<svg id="Layer_1" data-name="Layer 1" xmlns="http://www.w3.org/2000/svg" viewBox="0 0 24 24"><defs><style>.cls-1{fill:#f58b1e;}</style></defs><path id="Path_database-arrow-down" data-name="Path database-arrow-down" class="cls-1" d="M19.2,12a7.18,7.18,0,0,0-6.14,3.47,19,19,0,0,1-2.26.13c-5.3,0-9.6-2.15-9.6-4.8V7.2c0,2.65,4.3,4.8,9.6,4.8s9.6-2.15,9.6-4.8v3.6a2.67,2.67,0,0,1-.34,1.26A4.1,4.1,0,0,0,19.2,12M10.8,9.6c5.3,0,9.6-2.15,9.6-4.8S16.1,0,10.8,0,1.2,2.15,1.2,4.8s4.3,4.8,9.6,4.8M12.12,18A11.65,11.65,0,0,1,10.8,18c-5.3,0-9.6-2.15-9.6-4.8v3.6c0,2.65,4.3,4.8,9.6,4.8a12.24,12.24,0,0,0,1.6-.07A6.82,6.82,0,0,1,12.12,18M20.4,20.4V15.6H18v4.8H15.6L19.2,24l3.6-3.6Z"/></svg>