<svg id="Layer_1" data-name="Layer 1" xmlns="http://www.w3.org/2000/svg" viewBox="0 0 24 24"><defs><style>.cls-1{fill:#f58b1e;}</style></defs><path id="Path_account-group" data-name="Path account-group" class="cls-1" d="M12,8.67a3.54,3.54,0,0,1,3.47,3.61A3.53,3.53,0,0,1,12,15.89a3.54,3.54,0,0,1-3.48-3.61A3.55,3.55,0,0,1,12,8.67M5.07,11.25a2.94,2.94,0,0,1,1.52.43,5.87,5.87,0,0,0,1.12,4.09,3,3,0,0,1-2.64,1.67,3.1,3.1,0,0,1,0-6.19m13.9,0a3.1,3.1,0,0,1,0,6.19,3,3,0,0,1-2.64-1.67,5.87,5.87,0,0,0,1.12-4.09A2.94,2.94,0,0,1,19,11.25M5.56,21.82C5.56,19.69,8.45,18,12,18s6.45,1.74,6.45,3.87v1.81H5.56V21.82M.1,23.63V22.08c0-1.43,1.88-2.64,4.42-3a4.23,4.23,0,0,0-.94,2.73v1.81H.1m23.84,0H20.46V21.82a4.29,4.29,0,0,0-.94-2.73c2.54.35,4.42,1.56,4.42,3Z"/><path id="Subtraction_5" data-name="Subtraction 5" class="cls-1" d="M13.65,6.74V.92a.62.62,0,0,1,.62-.64h5a.63.63,0,0,1,.62.64V4.8a.64.64,0,0,1-.62.65H14.89L13.65,6.74ZM18,1.38a.23.23,0,0,0-.18.08L15.32,4.07a.28.28,0,0,0,0,.38.23.23,0,0,0,.18.08.27.27,0,0,0,.18-.08L18.2,1.83a.27.27,0,0,0,0-.37A.27.27,0,0,0,18,1.38Zm-.36,2a.48.48,0,0,0-.36.15.54.54,0,0,0,0,.75.49.49,0,0,0,.7,0l0,0a.56.56,0,0,0,0-.75A.51.51,0,0,0,17.66,3.36Zm-1.8-1.87a.48.48,0,0,0-.36.16.53.53,0,0,0,0,.74.49.49,0,0,0,.7,0l0,0a.53.53,0,0,0,0-.74A.52.52,0,0,0,15.86,1.49Z"/></svg>