<svg id="Layer_1" data-name="Layer 1" xmlns="http://www.w3.org/2000/svg" viewBox="0 0 24 24"><defs><style>.cls-1,.cls-2{fill:#0b243a;}.cls-2{fill-rule:evenodd;}</style></defs><g id="Group_58948" data-name="Group 58948"><path id="Path_536" data-name="Path 536" class="cls-1" d="M7.68,19.39h8.64V16.15H7.68Z"/><path id="Path_537" data-name="Path 537" class="cls-1" d="M16.32,14.77H7.68V11.53h8.64Z"/><path id="Path_538" data-name="Path 538" class="cls-1" d="M5.52,10.16H12V6.92H5.52Z"/><path id="Path_539" data-name="Path 539" class="cls-2" d="M4.8,0A3.6,3.6,0,0,0,1.2,3.6V20.4A3.6,3.6,0,0,0,4.8,24H19.2a3.6,3.6,0,0,0,3.6-3.6V8.4A8.4,8.4,0,0,0,14.4,0Zm0,2.4h8.4v6h7.2v12a1.2,1.2,0,0,1-1.2,1.2H4.8a1.2,1.2,0,0,1-1.2-1.2V3.6A1.2,1.2,0,0,1,4.8,2.4Zm10.8.12A6,6,0,0,1,19.9,6H15.6Z"/></g></svg>