<svg id="Layer_1" data-name="Layer 1" xmlns="http://www.w3.org/2000/svg" viewBox="0 0 24 24"><defs><style>.cls-1{opacity:0;}.cls-2{fill:#ff9a41;}.cls-3{fill:none;}</style></defs><g id="Boundary" class="cls-1"><rect class="cls-2" x="-0.65" y="-0.2" width="21.29" height="21.29"/><rect class="cls-3" x="-0.44" width="20.89" height="20.89"/></g><path id="Subtraction_8-2" data-name="Subtraction 8-2" class="cls-2" d="M15.57,19.32H2A1.78,1.78,0,0,1,.24,17.54V3.35A1.78,1.78,0,0,1,2,1.57H18a1.78,1.78,0,0,1,1.78,1.78V15.43L18,17.08v-12H2V17.54H17.49l-.64.6H15.57Z"/><path id="Subtraction_9" data-name="Subtraction 9" class="cls-2" d="M18,18.31H2V5H18V18.3ZM10.29,8.09V14.4h2.49A2.88,2.88,0,0,0,15,13.49a3.13,3.13,0,0,0,.87-2.24A3.16,3.16,0,0,0,15,9a2.88,2.88,0,0,0-2.18-.91Zm-5,5H8l.45,1.27H9.6L7.3,8.09H6.05L3.74,14.4H4.88Zm7.46.28H11.33V9.08h1.45a2,2,0,0,1,1.47.61,2.2,2.2,0,0,1,.57,1.56,2.16,2.16,0,0,1-.57,1.55A1.88,1.88,0,0,1,12.78,13.41ZM7.69,12.16h-2l1-2.85,1,2.85Z"/><path id="Path_thumb-up-2" data-name="Path thumb-up-2" class="cls-2" d="M23.94,19.12a.71.71,0,0,0-.71-.72H21l.34-1.63a.49.49,0,0,0,0-.12.51.51,0,0,0-.16-.38l-.37-.37-2.35,2.35a.7.7,0,0,0-.22.51v3.57a.72.72,0,0,0,.72.72h3.21a.72.72,0,0,0,.66-.44l1.08-2.52a.75.75,0,0,0,.05-.26v-.71m-7.86,3.93h1.43V18.76H16.08Z"/></svg>