<svg id="Layer_1" data-name="Layer 1" xmlns="http://www.w3.org/2000/svg" viewBox="0 0 24 24"><defs><style>.cls-1{fill:#f58b1e;}</style></defs><path id="Path_application-cog-outline" data-name="Path application-cog-outline" class="cls-1" d="M22.59,18.62V17.53l1.19-.87c.11-.11.22-.21.11-.32l-1.08-1.85c0-.1-.22-.1-.33-.1l-1.3.54a4.07,4.07,0,0,0-1-.54L20,13a.23.23,0,0,0-.21-.22H17.6c-.22,0-.33.11-.33.22l-.22,1.41c-.32.21-.54.32-.86.54l-1.31-.54a.37.37,0,0,0-.32.1l-1.08,1.85a.35.35,0,0,0,.11.32l1.19.87v1.09l-1.2.86c-.11.11-.21.22-.11.33l1.09,1.84a.42.42,0,0,0,.32.11l1.31-.54a2.37,2.37,0,0,0,.87.54l.21,1.41c.11.11.22.21.33.21h2.17a.22.22,0,0,0,.21-.21l.22-1.41c.33-.22.54-.33.87-.54l1.3.43a.38.38,0,0,0,.33-.11l1.08-1.84c.11-.11.11-.22,0-.22l-1.19-.87m-4,1a1.63,1.63,0,1,1,0-3.25A1.61,1.61,0,0,1,20.2,18a1.66,1.66,0,0,1-1.62,1.63M12.39,22.3H2.3A2.18,2.18,0,0,1,.13,20.13V2.78A2.18,2.18,0,0,1,2.3.62H21.83A2.17,2.17,0,0,1,24,2.78v9.87a7.33,7.33,0,0,0-2.17-1.52V5H2.3V20.13h9a5.75,5.75,0,0,0,1.08,2.17Z"/></svg>