<svg id="Layer_1" data-name="Layer 1" xmlns="http://www.w3.org/2000/svg" viewBox="0 0 24 24"><defs><style>.cls-1{fill:#f58b1e;}</style></defs><path id="Path_account-heart" data-name="Path account-heart" class="cls-1" d="M15.27,14.52c-2.94,0-8.72,1.42-8.72,4.36v2.18H24V18.88c0-2.94-5.78-4.36-8.73-4.36m0-2.18A4.37,4.37,0,1,0,10.91,8h0a4.37,4.37,0,0,0,4.36,4.37h0M4.36,15.61l-.65-.55C1.53,13,0,11.68,0,10.05a2.41,2.41,0,0,1,2.4-2.4,2.5,2.5,0,0,1,2,.87,2.53,2.53,0,0,1,2-.87A2.35,2.35,0,0,1,8.73,10v.1c0,1.63-1.53,2.94-3.71,5Z"/></svg>