<svg id="Layer_1" data-name="Layer 1" xmlns="http://www.w3.org/2000/svg" viewBox="0 0 24 24"><defs><style>.cls-1{opacity:0;}.cls-2{fill:#f58b1e;}.cls-3{fill:none;}</style></defs><g id="Group_57867" data-name="Group 57867"><g id="icon_24x_Page_Engagements" data-name="icon 24x Page Engagements"><g id="Boundary" class="cls-1"><rect class="cls-2" x="1.01" y="1.01" width="21.98" height="21.98"/><rect class="cls-3" x="1.17" y="1.17" width="21.67" height="21.67"/></g><g id="Group_57598" data-name="Group 57598"><path id="Path_post-outline" data-name="Path post-outline" class="cls-2" d="M16.89,11.35v6.58H6.94V11.35h10m1.42-.94H5.52v8.46H18.31V10.41M15.47,17H8.36v-.48h7.11V17m0-.94H8.36v-.47h7.11v.47m0-1.41H8.36V12.29h7.11Z"/><path id="Path_monitor" data-name="Path monitor" class="cls-2" d="M18.22,18.8H5.54V10.41H18.22m0-1.4H5.54a1.4,1.4,0,0,0-1.4,1.39h0V18.8a1.39,1.39,0,0,0,1.4,1.39h4.93v1.4H9.07V23H14.7v-1.4H13.29v-1.4h4.93a1.4,1.4,0,0,0,1.41-1.39h0V10.41A1.41,1.41,0,0,0,18.22,9Z"/><path id="Subtraction_11-2" data-name="Subtraction 11-2" class="cls-2" d="M7.08,7h0L5.88,5.8H1.66a.6.6,0,0,1-.61-.6V1.61A.6.6,0,0,1,1.66,1H6.48a.6.6,0,0,1,.6.6ZM2.86,3.11V4.19H3.3V3.11Zm1.45-.72h0L3.58,3a.16.16,0,0,0-.06.13V4a.2.2,0,0,0,.22.18h1a.23.23,0,0,0,.2-.11l.33-.64a.14.14,0,0,0,0-.06V3.2A.21.21,0,0,0,5.06,3h-.7l.11-.41v0a.11.11,0,0,0,0-.09l-.11-.1Z"/><path id="Subtraction_12-2" data-name="Subtraction 12-2" class="cls-2" d="M16.92,7V1.61a.6.6,0,0,1,.6-.6h4.83a.6.6,0,0,1,.6.6V5.2a.6.6,0,0,1-.6.6H18.12L16.92,7Zm2.46-4.65A.66.66,0,0,0,18.7,3V3c0,.46.42.84,1.05,1.4l.18.17.18-.17c.64-.56,1.06-.94,1.06-1.4a.67.67,0,0,0-.67-.67h0a.77.77,0,0,0-.56.25.73.73,0,0,0-.55-.25Z"/></g></g></g></svg>