<svg id="Layer_1" data-name="Layer 1" xmlns="http://www.w3.org/2000/svg" viewBox="0 0 24 24"><defs><style>.cls-1{fill:#253b80;}.cls-2{fill:#179bd7;}.cls-3{fill:#222d65;}</style></defs><g id="Group_58947" data-name="Group 58947"><path id="Path_34734" data-name="Path 34734" class="cls-1" d="M7.65,23.19l.41-2.64-.92,0H2.71L5.78,1A.24.24,0,0,1,5.87.88.25.25,0,0,1,6,.82h7.46c2.48,0,4.19.51,5.08,1.53a3.48,3.48,0,0,1,.82,1.52,5.5,5.5,0,0,1,0,2.1v.6l.42.24a2.83,2.83,0,0,1,.85.65A3,3,0,0,1,21.34,9a6.69,6.69,0,0,1-.1,2.23,8,8,0,0,1-.92,2.54,5.37,5.37,0,0,1-1.45,1.59,5.88,5.88,0,0,1-2,.88,9.57,9.57,0,0,1-2.44.28h-.58A1.75,1.75,0,0,0,12.16,18l0,.24-.74,4.66,0,.17a.15.15,0,0,1,0,.1.13.13,0,0,1-.08,0Z"/><path id="Path_34735" data-name="Path 34735" class="cls-2" d="M20.2,6.1h0c0,.14-.05.29-.08.43-1,5.06-4.35,6.8-8.64,6.8H9.28a1.07,1.07,0,0,0-1,.9h0L7.11,21.34l-.31,2a.56.56,0,0,0,.47.64h4a.93.93,0,0,0,.92-.79l0-.2.73-4.64.05-.25a.93.93,0,0,1,.92-.79h.58c3.76,0,6.71-1.53,7.57-5.94.36-1.85.17-3.39-.78-4.48A3.65,3.65,0,0,0,20.2,6.1Z"/><path id="Path_34736" data-name="Path 34736" class="cls-3" d="M19.17,5.69a3.59,3.59,0,0,0-.47-.12,3.86,3.86,0,0,0-.49-.09,12.45,12.45,0,0,0-1.93-.15H10.43a.93.93,0,0,0-.92.79L8.27,14l0,.23a1.06,1.06,0,0,1,1-.9h2.19c4.3,0,7.67-1.74,8.65-6.8,0-.15.05-.3.08-.44a5.77,5.77,0,0,0-.81-.34Z"/><path id="Path_34737" data-name="Path 34737" class="cls-1" d="M9.51,6.12a.93.93,0,0,1,.92-.78h5.85a11.32,11.32,0,0,1,1.93.14,3.86,3.86,0,0,1,.49.09,3.59,3.59,0,0,1,.47.12l.22.07a4.79,4.79,0,0,1,.81.34,4.78,4.78,0,0,0-1-4.29C18.07.54,16.07,0,13.49,0H6A1.06,1.06,0,0,0,5,.9L1.87,20.6a.64.64,0,0,0,.54.73h4.7L8.27,14Z"/></g></svg>