<svg id="Layer_1" data-name="Layer 1" xmlns="http://www.w3.org/2000/svg" viewBox="0 0 24 24"><defs><style>.cls-1{opacity:0;}.cls-2{fill:#f58b1e;}.cls-3{fill:none;}</style></defs><g id="Group_57867" data-name="Group 57867"><g id="icon_24x_Post_Reach" data-name="icon 24x Post Reach"><g id="Boundary" class="cls-1"><rect class="cls-2" x="0.48" y="0.48" width="23.03" height="23.03"/><rect class="cls-3" x="0.65" y="0.65" width="22.71" height="22.71"/></g><g id="Group_57600" data-name="Group 57600"><path id="Subtraction_16" data-name="Subtraction 16" class="cls-2" d="M19.76,22.64H.48V3.36H12.71a7,7,0,0,0-.82,2.14H2.62v15h15V13.59h.27a5.69,5.69,0,0,0,1.87-.31v9.35Zm-4.29-4.29H4.77V17.28h10.7v1.07Zm0-2.14H4.77V15.14h10.7ZM15.33,13H4.77V7.65h7a7.63,7.63,0,0,0,.39,1.75A3.25,3.25,0,0,0,7.59,9a3.4,3.4,0,0,0-.92,1.29,3.26,3.26,0,0,0,4.21,1.84,3.29,3.29,0,0,0,1.78-1.7A6.38,6.38,0,0,0,15.33,13ZM9.7,11.68a1.37,1.37,0,1,1,1.37-1.37A1.37,1.37,0,0,1,9.7,11.68Zm0-2.19a.82.82,0,0,0,0,1.64.82.82,0,0,0,0-1.64Z"/><path id="Path_radio-tower" data-name="Path radio-tower" class="cls-2" d="M18.17,5.64a1.07,1.07,0,0,1,1.07,1.07A1,1,0,0,1,19,7.4l1.7,4.66H19.54L18.17,8.28l-1.38,3.78H15.65l1.7-4.66a1.08,1.08,0,0,1,.13-1.51,1.06,1.06,0,0,1,.69-.25m0-1.07a2.13,2.13,0,0,0-2,2.92L15.7,8.78a3.22,3.22,0,1,1,4.93,0l-.47-1.29a2.14,2.14,0,0,0-2-2.92m0-2.14a4.29,4.29,0,0,0-4.29,4.28A4.22,4.22,0,0,0,15.3,9.89L14.91,11a5.35,5.35,0,1,1,7.5-1,5.16,5.16,0,0,1-1,1L21,9.89a4.19,4.19,0,0,0,1.42-3.18,4.28,4.28,0,0,0-4.28-4.28Z"/></g></g></g></svg>