<svg id="Layer_1" data-name="Layer 1" xmlns="http://www.w3.org/2000/svg" viewBox="0 0 24 24"><defs><style>.cls-1{opacity:0;}.cls-2{fill:#f58b1e;}.cls-3{fill:none;}</style></defs><g id="Group_57867" data-name="Group 57867"><g id="icon_24x_Top_Time" data-name="icon 24x Top Time"><g id="Boundary" class="cls-1"><rect class="cls-2" x="0.69" y="0.51" width="22.61" height="22.61"/><rect class="cls-3" x="0.86" y="0.67" width="22.29" height="22.29"/></g><path id="Path_alarm" data-name="Path alarm" class="cls-2" d="M12,20.72A7.72,7.72,0,1,1,19.72,13,7.72,7.72,0,0,1,12,20.72h0M12,3.07A9.93,9.93,0,1,0,21.93,13h0A9.93,9.93,0,0,0,12,3.07m.55,4.41H10.9V14.1l5.24,3.14L17,15.89l-4.41-2.62V7.48M7.46,2.4,6,.71,1,5,2.39,6.64,7.46,2.4M23,5,18,.71,16.53,2.4l5.08,4.25Z"/></g></g></svg>