<svg id="Layer_1" data-name="Layer 1" xmlns="http://www.w3.org/2000/svg" viewBox="0 0 24 24"><defs><style>.cls-1{fill:#f58b1e;}</style></defs><path id="Path_calendar-blank" data-name="Path calendar-blank" class="cls-1" d="M20.8,21.47H3.2V8.58H20.8M17,.38V2.72H7V.38H4.46V2.72H3.2A2.43,2.43,0,0,0,.69,5.06h0v16.4A2.43,2.43,0,0,0,3.2,23.81H20.8a2.43,2.43,0,0,0,2.51-2.34V5.07A2.44,2.44,0,0,0,20.8,2.72H19.54V.38"/><path id="Subtraction_18" data-name="Subtraction 18" class="cls-1" d="M20.49,21.18h-17V8.87h17V21.18Zm-6-10.94a2.79,2.79,0,0,0-2.37,1.16,5.17,5.17,0,0,0-.85,3.09,5.18,5.18,0,0,0,.85,3.1,2.79,2.79,0,0,0,2.37,1.16,2.79,2.79,0,0,0,2.38-1.16,5.17,5.17,0,0,0,.85-3.09,5.18,5.18,0,0,0-.85-3.1A2.82,2.82,0,0,0,14.52,10.24ZM6,16.38l-1.15.67a2.51,2.51,0,0,0,1.07,1.27,3.29,3.29,0,0,0,1.68.43,3.07,3.07,0,0,0,2-.7,2.41,2.41,0,0,0,.83-1.94,2.25,2.25,0,0,0-.55-1.54,2.81,2.81,0,0,0-1.45-.82l1.66-2.21V10.39h-5v1.27H8.48L6.71,14l.54.81h.3a1.67,1.67,0,0,1,1.12.35,1.25,1.25,0,0,1,.41,1,1.27,1.27,0,0,1-.41,1,1.62,1.62,0,0,1-1.12.35A1.52,1.52,0,0,1,6,16.38Zm8.57,1.05a1.54,1.54,0,0,1-1.38-.76,4,4,0,0,1-.49-2.18,4.06,4.06,0,0,1,.49-2.18,1.66,1.66,0,0,1,2.28-.5,1.7,1.7,0,0,1,.5.5,4.15,4.15,0,0,1,.48,2.18,4.13,4.13,0,0,1-.48,2.18A1.54,1.54,0,0,1,14.52,17.43Z"/></svg>