<svg id="Layer_1" data-name="Layer 1" xmlns="http://www.w3.org/2000/svg" viewBox="0 0 24 24"><defs><style>.cls-1{opacity:0;}.cls-2{fill:#f58b1e;}.cls-3{fill:none;}</style></defs><g id="Group_57867" data-name="Group 57867"><g id="icon_24x_Link_Click" data-name="icon 24x Link Click"><g id="Boundary" class="cls-1"><rect class="cls-2" y="0.24" width="23.76" height="23.76"/><rect class="cls-3" x="0.17" y="0.41" width="23.42" height="23.42"/></g><g id="Group_57592" data-name="Group 57592"><path id="Path_link-variant" data-name="Path link-variant" class="cls-2" d="M9.54,11.87a1.07,1.07,0,0,1,.05,1.51l-.05,0a1.09,1.09,0,0,1-1.55,0A5.46,5.46,0,0,1,8,5.7H8l3.87-3.86a5.46,5.46,0,0,1,7.72,7.72L18,11.19a7.72,7.72,0,0,0-.44-2.65L18,8a3.27,3.27,0,0,0-4.56-4.7.46.46,0,0,0-.07.07L9.54,7.24a3.26,3.26,0,0,0,0,4.61l0,0m3.08-4.63a1.11,1.11,0,0,1,1.55,0,5.46,5.46,0,0,1,0,7.72h0l-3.86,3.87a5.46,5.46,0,0,1-7.72-7.72L4.21,9.48a7.78,7.78,0,0,0,.44,2.66l-.51.51a3.27,3.27,0,0,0,4.63,4.63l3.85-3.85a3.27,3.27,0,0,0,0-4.61l0,0a1.07,1.07,0,0,1,0-1.51l0,0Z"/><path id="Path_cursor-pointer" data-name="Path cursor-pointer" class="cls-2" d="M20.25,17.07l.37.08L23,18.35a1,1,0,0,1,.64,1v.15L23.15,23a1,1,0,0,1-.35.64,1,1,0,0,1-.67.26h-4a1,1,0,0,1-.74-.31l-3.47-3.46.52-.58a.75.75,0,0,1,.57-.21h.17l2.3.5V13.77a1.16,1.16,0,0,1,2.32,0v3.3Z"/></g></g></g></svg>