<svg id="Layer_1" data-name="Layer 1" xmlns="http://www.w3.org/2000/svg" viewBox="0 0 24 24"><defs><style>.cls-1{fill:#f58b1e;}</style></defs><path id="Path_account-group" data-name="Path account-group" class="cls-1" d="M12,8.7a3.57,3.57,0,0,1,3.5,3.63A3.57,3.57,0,0,1,12,16a3.57,3.57,0,0,1-3.5-3.64A3.57,3.57,0,0,1,12,8.7M5,11.3a3,3,0,0,1,1.53.43,5.89,5.89,0,0,0,1.13,4.12A3,3,0,0,1,5,17.53,3.12,3.12,0,0,1,5,11.3m14,0a3.12,3.12,0,0,1,0,6.23,3,3,0,0,1-2.66-1.68,5.89,5.89,0,0,0,1.13-4.12A3,3,0,0,1,19,11.3M5.5,22c0-2.16,2.91-3.9,6.5-3.9s6.5,1.74,6.5,3.9v1.81H5.5V22M0,23.76V22.21c0-1.45,1.89-2.66,4.45-3A4.32,4.32,0,0,0,3.5,22v1.81H0m24,0H20.5V22a4.3,4.3,0,0,0-.95-2.76c2.56.36,4.45,1.57,4.45,3Z"/><path id="Subtraction_4" data-name="Subtraction 4" class="cls-1" d="M6.89,6.76h0L5.64,5.46H1.25a.64.64,0,0,1-.62-.65V.9A.64.64,0,0,1,1.25.25h5A.64.64,0,0,1,6.89.9V6.76ZM2.51,2.53V3.71H3V2.53ZM4,1.75H4l-.75.65a.15.15,0,0,0-.07.13v1a.22.22,0,0,0,.23.2h1a.24.24,0,0,0,.21-.12L5,2.9a.19.19,0,0,0,0-.07v-.2a.21.21,0,0,0-.23-.19H4.06L4.17,2V2a.1.1,0,0,0,0-.1L4,1.75Z"/><path id="Subtraction_3" data-name="Subtraction 3" class="cls-1" d="M17.11,6.76V.9a.64.64,0,0,1,.62-.65h5a.64.64,0,0,1,.62.65V4.81a.64.64,0,0,1-.62.65H18.36l-1.25,1.3Zm2.55-5a.71.71,0,0,0-.71.71v0c0,.5.44.9,1.1,1.52l.19.18L20.43,4c.66-.61,1.1-1,1.1-1.52a.71.71,0,0,0-.7-.73h0a.76.76,0,0,0-.58.27A.75.75,0,0,0,19.66,1.71Z"/></svg>