<svg id="Layer_1" data-name="Layer 1" xmlns="http://www.w3.org/2000/svg" viewBox="0 0 24 24"><defs><style>.cls-1{fill:#f58b1e;}</style></defs><polygon class="cls-1" points="15.88 18.99 5.4 19.05 4.19 18.22 3.69 17.08 3.69 9.52 0 9.46 4.76 4.69 9.65 9.46 5.97 9.52 5.97 16.76 13.65 16.76 14.33 17.44 14.44 17.54 14.92 18.03 15.22 18.33 15.22 18.33 15.33 18.44 15.63 18.74 15.84 18.95 15.88 18.99"/><polygon class="cls-1" points="24 14.54 19.11 19.31 14.41 14.48 18.04 14.48 18.04 7.24 10.35 7.24 9.59 6.48 9.08 5.97 8.79 5.67 8.07 4.95 18.61 4.95 19.81 5.78 20.32 6.92 20.32 14.48 24 14.54"/></svg>