<svg id="Layer_1" data-name="Layer 1" xmlns="http://www.w3.org/2000/svg" viewBox="0 0 24 24"><defs><style>.cls-1{opacity:0;}.cls-2{fill:#f58b1e;}.cls-3{fill:none;}</style></defs><g id="Group_57867" data-name="Group 57867"><g id="icon_24x_Total_Spend" data-name="icon 24x Total Spend"><g id="Boundary" class="cls-1"><rect class="cls-2" x="0.37" y="0.49" width="23.25" height="23.25"/><rect class="cls-3" x="0.54" y="0.66" width="22.92" height="22.92"/></g><path id="Path_cash-register" data-name="Path cash-register" class="cls-2" d="M.37,17.93H23.63v4.66H.37V17.93M5.31,6.31h3.2V5.15H5V1.66h9.31V5.15H10.84V6.31h7.9A3,3,0,0,1,21.3,8.63l.58,8.14H2.12l.64-8.14A2.54,2.54,0,0,1,5.31,6.31m7.85,2.32V11H19V8.63H13.16M5,8.63V9.8H7.35V8.63H5m3.49,0V9.8h2.33V8.63H8.51M5,11v1.16H7.35V11H5m3.49,0v1.16h2.33V11H8.51M5,13.28v1.17H7.35V13.28H5m3.49,0v1.17h2.33V13.28H8.51M6.19,2.82V4h7V2.82Z"/></g></g></svg>