<svg id="Layer_1" data-name="Layer 1" xmlns="http://www.w3.org/2000/svg" viewBox="0 0 24 24"><defs><style>.cls-1{opacity:0;}.cls-2{fill:#f58b1e;}.cls-3{fill:none;}</style></defs><g id="Group_57867" data-name="Group 57867"><g id="icon_24x_Reach" data-name="icon 24x Reach"><g id="Boundary" class="cls-1"><rect class="cls-2" x="0.54" y="0.36" width="22.92" height="22.92"/><rect class="cls-3" x="0.7" y="0.52" width="22.59" height="22.59"/></g><path id="Path_radio-tower" data-name="Path radio-tower" class="cls-2" d="M12,9.52a2.29,2.29,0,0,1,2.29,2.29,2.27,2.27,0,0,1-.54,1.48l3.64,10H15L12,15.17,9.05,23.28H6.61l3.64-10a2.29,2.29,0,0,1,.27-3.23A2.34,2.34,0,0,1,12,9.52m0-2.29A4.57,4.57,0,0,0,7.42,11.8a4.27,4.27,0,0,0,.32,1.69l-1,2.75a6.87,6.87,0,1,1,10.54,0l-1-2.75a4.58,4.58,0,0,0-2.57-5.94A4.65,4.65,0,0,0,12,7.23m0-4.58a9.17,9.17,0,0,0-9.17,9.17,9,9,0,0,0,3,6.8L5,20.92A11.46,11.46,0,1,1,21.1,18.78,11.66,11.66,0,0,1,19,20.92l-.83-2.3a9,9,0,0,0,3-6.8A9.17,9.17,0,0,0,12,2.65Z"/></g></g></svg>