<svg id="Layer_1" data-name="Layer 1" xmlns="http://www.w3.org/2000/svg" viewBox="0 0 24 24"><defs><style>.cls-1{fill:#f58b1e;}</style></defs><path id="rgba_168_168_168" data-name="rgba 168 168 168" class="cls-1" d="M23.4.81l.15,0V2.67l-.1.11-.1,1.28L23,5.34,22,6.67,20.3,7.74l-2.8.74a5.67,5.67,0,0,0-1.95,1.34l.55.26,1.3.11.1-.11h1.6l-.7.85a11,11,0,0,1-3,2.14l-1.1.32h-.5l-1.2.53-1.84,1.86L9.56,17.6l-2.4,4.26-1,1.33,0-.8a48.32,48.32,0,0,1,3.7-10.34,23.48,23.48,0,0,1,4.45-6.12A19.67,19.67,0,0,1,23.4.81Z"/><path id="rgba_168_168_168_1_2" data-name="rgba 168 168 168 1 2" class="cls-1" d="M4.71,2a1,1,0,0,1,.75.11l.1.27V6.14H9.11l.35.26.1.43-.35.48H5.56V11.1l-.25.37c-.47.11-.75,0-.85-.27V7.31H.81c-.29,0-.4-.28-.35-.69l.25-.38.2-.1H4.46V2.36Z"/></svg>