<svg id="Layer_1" data-name="Layer 1" xmlns="http://www.w3.org/2000/svg" viewBox="0 0 24 24"><defs><style>.cls-1{opacity:0;}.cls-2{fill:#ff9a41;}.cls-3{fill:none;}</style></defs><g id="Group_57450" data-name="Group 57450"><g id="icon_post_impressions" data-name="icon post impressions"><g id="Boundary" class="cls-1"><rect class="cls-2" x="-3.11" y="-3.06" width="29.38" height="29.38"/><rect class="cls-3" x="-2.86" y="-2.81" width="28.89" height="28.89"/></g><path id="Subtraction_19-2" data-name="Subtraction 19-2" class="cls-2" d="M23.61,23.67H.56V.61H23.61V23.66ZM3.13,3.18V21.1H21.05V3.18ZM18.49,18.54H5.69V17.26h12.8v1.28Zm0-2.56H5.69V14.7h12.8V16Zm0-3.84H5.69V5.74h12.8v6.4ZM11.58,6.46A3.85,3.85,0,0,0,8,8.92a3.88,3.88,0,0,0,7.23,0,3.86,3.86,0,0,0-3.62-2.46Zm0,4.11a1.65,1.65,0,1,1,1.65-1.65,1.65,1.65,0,0,1-1.65,1.65Zm0-2.63a1,1,0,1,0,1,1,1,1,0,0,0-1-1Z"/></g></g></svg>