<svg id="Layer_1" data-name="Layer 1" xmlns="http://www.w3.org/2000/svg" viewBox="0 0 24 24"><defs><style>.cls-1{fill:#f58b1e;}</style></defs><path id="Path_account-arrow-right-outline" data-name="Path account-arrow-right-outline" class="cls-1" d="M20.4,22.72v-2.4H15.6v-2.4h4.8v-2.4l3.6,3.6-3.6,3.6m-7.2-3.6a6,6,0,0,0,.5,2.4H0v-3.6c0-2.66,4.3-4.8,9.6-4.8a17.84,17.84,0,0,1,3.42.31,13.37,13.37,0,0,1,2.71.79,6,6,0,0,0-2.53,4.9M2.4,17.92v1.2h8.4a8.35,8.35,0,0,1,.77-3.51l-2-.09c-4,0-7.2,1.08-7.2,2.4M9.6,2.32a4.8,4.8,0,1,1-4.8,4.8,4.8,4.8,0,0,1,4.8-4.8m0,2.4A2.4,2.4,0,1,0,12,7.12,2.39,2.39,0,0,0,9.6,4.72Z"/></svg>