<svg id="Layer_1" data-name="Layer 1" xmlns="http://www.w3.org/2000/svg" viewBox="0 0 24 24"><defs><style>.cls-1{fill:#f58b1e;}</style></defs><path id="Path_account-group" data-name="Path account-group" class="cls-1" d="M12,5.93A3.47,3.47,0,1,1,8.5,9.39,3.47,3.47,0,0,1,12,5.93h0M5,8.4a3,3,0,0,1,1.53.42,5.43,5.43,0,0,0,1.13,3.92A3,3,0,1,1,5,8.4m14,0a3,3,0,1,1-2.66,4.34,5.42,5.42,0,0,0,1.13-3.92A3,3,0,0,1,19,8.41M5.5,18.55c0-2.05,2.91-3.71,6.5-3.71s6.5,1.66,6.5,3.71v1.74H5.5V18.55M0,20.29V18.8c0-1.37,1.89-2.53,4.45-2.87a4,4,0,0,0-1,2.62v1.74H0m24,0H20.5V18.55a4,4,0,0,0-.95-2.62c2.56.34,4.45,1.49,4.45,2.87Z"/></svg>