<svg id="Layer_1" data-name="Layer 1" xmlns="http://www.w3.org/2000/svg" viewBox="0 0 24 24"><defs><style>.cls-1{fill:#fff;}</style></defs><path class="cls-1" d="M19,3.69a.69.69,0,0,1-.77.13,3.66,3.66,0,0,0-4,.79L12.12,6.73a.68.68,0,0,0,0,.95l4.23,4.23a.66.66,0,0,0,.95,0l2.13-2.12a3.66,3.66,0,0,0,.78-4A.71.71,0,0,1,20.34,5l1.48-1.48a.66.66,0,0,0,0-1l-.41-.41a.66.66,0,0,0-.94,0Z"/><path class="cls-1" d="M3.49,21.91l1.69-1.7a.5.5,0,0,1,.57-.09,3.63,3.63,0,0,0,4.09-.74l2.59-2.59-1-1L13.32,14a.5.5,0,0,0,0-.7l-.65-.65a.51.51,0,0,0-.71,0l-1.84,1.85-.56-.57,1.84-1.84a.5.5,0,0,0,0-.7l-.65-.65a.48.48,0,0,0-.7,0L8.2,12.56l-.95-1-2.6,2.59a3.67,3.67,0,0,0-.74,4.09.5.5,0,0,1-.09.57l-1.69,1.7a.48.48,0,0,0,0,.7l.65.66A.51.51,0,0,0,3.49,21.91Z"/></svg>