<svg id="Layer_1" data-name="Layer 1" xmlns="http://www.w3.org/2000/svg" viewBox="0 0 24 24"><defs><style>.cls-1{fill:#fff;}</style></defs><path class="cls-1" d="M6.22,11.85v8.42a.5.5,0,0,1-.53.52H2.54A.5.5,0,0,1,2,20.27V11.85a.5.5,0,0,1,.53-.52H5.69A.5.5,0,0,1,6.22,11.85ZM21.46,2.92H18.31a.5.5,0,0,0-.53.52V20.27a.5.5,0,0,0,.53.52h3.15a.5.5,0,0,0,.53-.52V3.44A.5.5,0,0,0,21.46,2.92ZM16.21,8.7H13.05a.5.5,0,0,0-.52.53v11a.49.49,0,0,0,.52.52h3.16a.49.49,0,0,0,.52-.52v-11A.5.5,0,0,0,16.21,8.7ZM11,5.55H7.79a.49.49,0,0,0-.52.52v14.2a.49.49,0,0,0,.52.52H11a.49.49,0,0,0,.52-.52V6.07A.49.49,0,0,0,11,5.55Z"/></svg>