<svg id="Layer_1" data-name="Layer 1" xmlns="http://www.w3.org/2000/svg" viewBox="0 0 24 24"><defs><style>.cls-1{fill:#f89945;}</style></defs><path class="cls-1" d="M12,3.81A8.21,8.21,0,1,1,3.8,12,8.2,8.2,0,0,1,12,3.81M12,2A10,10,0,1,0,22,12,10,10,0,0,0,12,2Z"/><path class="cls-1" d="M12,14.14h-.73a.23.23,0,0,1-.25-.21v0A7.43,7.43,0,0,1,11.12,12a1.77,1.77,0,0,1,.45-.8c.2-.21.42-.4.63-.6s.48-.42.72-.62a.83.83,0,0,0-.18-1.42,1.4,1.4,0,0,0-1.9.56l-.06.13a2.4,2.4,0,0,0-.12.38.23.23,0,0,1-.3.21L8.93,9.7a.25.25,0,0,1-.24-.26v0a2.94,2.94,0,0,1,2.42-2.58A4.25,4.25,0,0,1,13.63,7a2.74,2.74,0,0,1,1.53,1.6,2.11,2.11,0,0,1-.33,2.12,7.61,7.61,0,0,1-1.15,1.12l-.4.36A.9.9,0,0,0,13,13c0,.31,0,.61,0,.92a.23.23,0,0,1-.21.25H12Z"/><path class="cls-1" d="M13,16.32a1,1,0,1,1-1-1A1,1,0,0,1,13,16.32Z"/></svg>