<svg id="Layer_1" data-name="Layer 1" xmlns="http://www.w3.org/2000/svg" viewBox="0 0 24 24"><defs><style>.cls-1{fill:#fff;}</style></defs><path class="cls-1" d="M21.32,10.05h-.84a.93.93,0,0,1-1-.52l0-.09v0h0c-.1-.27-.21-.54-.33-.8v0a1,1,0,0,1,.2-1.14l0,0h0l.51-.51A.74.74,0,0,0,20,5.81L18.23,4.1a.69.69,0,0,0-1.05,0l0,0h0l-.76.76h0a.71.71,0,0,1-.8.1h0a8.58,8.58,0,0,0-.83-.35.19.19,0,0,0-.08,0A.88.88,0,0,1,14,3.79V3c0-.78-.63-1-1.05-1H11.09c-.42,0-1.05.22-1.05,1v.93c0,.16-.13.41-.57.58h0a9.29,9.29,0,0,0-.87.35h0A1,1,0,0,1,7.46,4.7l-.52-.52h0a.75.75,0,0,0-1.12-.13L4.07,5.8A.69.69,0,0,0,4,6.8H4l.74.74h0A1,1,0,0,1,4.87,8.6h0a8,8,0,0,0-.35.85h0a.9.9,0,0,1-.85.59H2.58c-.23,0-.58.1-.58.52v2.81c0,.21.13.6.77.6h.88a.88.88,0,0,1,.84.51h0a8.89,8.89,0,0,0,.41,1h0a.59.59,0,0,0,0,.08.9.9,0,0,1-.3,1h0l-.74.74a.51.51,0,0,0,0,.75h0l2,2h0s.4.35.9-.15l.71-.71a.91.91,0,0,1,1.08-.07.3.3,0,0,0,.11,0,5.93,5.93,0,0,0,.63.26h0l.16.06a.83.83,0,0,1,.49.82v1a.62.62,0,0,0,.5.63h2.63A.72.72,0,0,0,14,21.3v-1a.94.94,0,0,1,.63-.8h0c.25-.09.5-.19.74-.3h0a1.15,1.15,0,0,1,1.13.13l.57.58h0a.78.78,0,0,0,1.14.05h0l1.66-1.66h0c.43-.43.32-.77.18-1l-.77-.77a.84.84,0,0,1-.26-.92l.09-.2h0a7.52,7.52,0,0,0,.32-.78s0,0,0,0a1.05,1.05,0,0,1,1-.63h.72c.19,0,.83-.1.83-1V11C22,10.21,21.55,10.07,21.32,10.05ZM12,16.45A4.44,4.44,0,1,1,16.44,12,4.44,4.44,0,0,1,12,16.45Z"/></svg>