<svg id="Layer_1" data-name="Layer 1" xmlns="http://www.w3.org/2000/svg" viewBox="0 0 24 24"><defs><style>.cls-1{fill:#f89945;}</style></defs><path class="cls-1" d="M19.64,11.23H6.85a.77.77,0,0,0,0,1.54H19.64L16.71,16a.83.83,0,0,0,0,1.09.66.66,0,0,0,1,0l4.11-4.53A.83.83,0,0,0,22,12a.73.73,0,0,0-.21-.53L17.68,6.91a.71.71,0,0,0-.49-.23.63.63,0,0,0-.48.23.83.83,0,0,0,0,1.09Z"/><path class="cls-1" d="M4.76,22h6.43A2.93,2.93,0,0,0,14,19V16.09a.7.7,0,1,0-1.39,0V19a1.48,1.48,0,0,1-1.39,1.54H4.76A1.48,1.48,0,0,1,3.37,19V5.05A1.48,1.48,0,0,1,4.76,3.51h6.43a1.48,1.48,0,0,1,1.39,1.54V7.91a.7.7,0,1,0,1.39,0V5.05A2.93,2.93,0,0,0,11.19,2H4.76A2.93,2.93,0,0,0,2,5.05V19A2.93,2.93,0,0,0,4.76,22Z"/></svg>