<svg id="icon_24x_Pinterest" data-name="icon/24x/Pinterest" xmlns="http://www.w3.org/2000/svg" width="50" height="50" viewBox="0 0 24 24">
  <g id="Boundary" stroke="rgba(0,0,0,0)" stroke-width="1" opacity="0">
    <rect width="50" height="50" stroke="none"/>
    <rect x="0.5" y="0.5" width="50" height="50" fill="none"/>
  </g>
  <path id="path64" d="M-140.664,0A11.826,11.826,0,0,0-152.49,11.826a11.832,11.832,0,0,0,7.516,11.016,11.366,11.366,0,0,1,.041-3.4c.215-.923,1.387-5.878,1.387-5.878a4.27,4.27,0,0,1-.354-1.756c0-1.644.953-2.872,2.14-2.872a1.486,1.486,0,0,1,1.5,1.666,23.824,23.824,0,0,1-.979,3.938,1.717,1.717,0,0,0,1.751,2.137c2.1,0,3.718-2.216,3.718-5.415a4.668,4.668,0,0,0-4.94-4.811,5.119,5.119,0,0,0-5.34,5.132,4.6,4.6,0,0,0,.88,2.7.353.353,0,0,1,.082.339c-.09.374-.289,1.177-.328,1.341-.052.216-.171.262-.4.158-1.477-.687-2.4-2.847-2.4-4.581,0-3.73,2.71-7.156,7.814-7.156,4.1,0,7.29,2.923,7.29,6.83,0,4.076-2.57,7.356-6.137,7.356a3.165,3.165,0,0,1-2.711-1.358s-.593,2.258-.737,2.811a13.219,13.219,0,0,1-1.47,3.1,11.82,11.82,0,0,0,3.5.527,11.826,11.826,0,0,0,11.826-11.826A11.826,11.826,0,0,0-140.664,0" transform="translate(152.49)" fill="#e60023"/>
</svg>
