<svg id="icon_24x_Shopify" data-name="icon/24x/Shopify" xmlns="http://www.w3.org/2000/svg" width="24" height="24" viewBox="0 0 24 24">
  <g id="Boundary" stroke="rgba(0,0,0,0)" stroke-width="1" opacity="0">
    <rect width="50" height="50" stroke="none"/>
    <rect x="0.5" y="0.5" width="50" height="50" fill="none"/>
  </g>
  <g id="Group_57668" transform="translate(-2031.424 -879.581)">
    <path id="Path_34837" d="M18.522,5.452a.232.232,0,0,0-.21-.195l-1.932-.144S15.1,3.841,14.959,3.7a.583.583,0,0,0-.522-.067l-.717.221c-.428-1.231-1.183-2.363-2.512-2.363-.037,0-.074,0-.112,0A1.615,1.615,0,0,0,9.846.779c-3.1,0-4.574,3.869-5.038,5.836l-2.166.672c-.671.211-.693.232-.781.864C1.795,8.63.038,22.214.038,22.214l13.688,2.565,7.416-1.6s-2.6-17.6-2.62-17.723ZM12.964,4.089l-1.158.358c0-.082,0-.162,0-.25a5.681,5.681,0,0,0-.277-1.87C12.214,2.414,12.67,3.193,12.964,4.089ZM10.68,2.48a5.741,5.741,0,0,1,.314,2.085c0,.047,0,.09,0,.134L8.6,5.44A4.09,4.09,0,0,1,10.68,2.48Zm-.92-.871a.7.7,0,0,1,.4.134c-.992.467-2.055,1.642-2.5,3.99l-1.891.586c.526-1.791,1.775-4.71,4-4.71Z" transform="translate(2032.834 878.802)" fill="#95bf46"/>
    <path id="Path_34838" d="M170.31,36.689l-1.932-.144s-1.281-1.272-1.422-1.413a.351.351,0,0,0-.2-.091l-1.035,21.169,7.416-1.6s-2.6-17.6-2.62-17.723a.232.232,0,0,0-.21-.195" transform="translate(1880.836 847.37)" fill="#5e8e3e"/>
    <path id="Path_34839" d="M47.154,100.605l-.914,2.72a4.207,4.207,0,0,0-1.783-.428c-1.44,0-1.512.9-1.512,1.131,0,1.242,3.239,1.718,3.239,4.629,0,2.29-1.452,3.764-3.41,3.764a4.744,4.744,0,0,1-3.551-1.462l.629-2.079a4.5,4.5,0,0,0,2.277,1.06.919.919,0,0,0,.958-.928c0-1.621-2.657-1.693-2.657-4.356,0-2.241,1.609-4.41,4.856-4.41a4,4,0,0,1,1.869.358" transform="translate(1996.888 787.552)" fill="#fff"/>
  </g>
</svg>
