<svg id="icon_24x_TikTok" data-name="icon/24x/TikTok" xmlns="http://www.w3.org/2000/svg" width="50" height="50" viewBox="0 0 24 24">
  <g id="Boundary" stroke="rgba(0,0,0,0)" stroke-width="1" opacity="0">
    <rect width="50" height="50" stroke="none"/>
    <rect x="0.5" y="0.5" width="50" height="50" fill="none"/>
  </g>
  <g id="Group_57639" transform="translate(-1106.902 -316.725)">
    <path id="Path_34812" d="M51.76,19.358a9.426,9.426,0,0,0,5.5,1.759V17.174a5.569,5.569,0,0,1-1.155-.121v3.1a9.428,9.428,0,0,1-5.5-1.759v8.047A7.295,7.295,0,0,1,39.253,32.5a7.294,7.294,0,0,0,12.507-5.1V19.358Zm1.424-3.978a5.5,5.5,0,0,1-1.424-3.218v-.507H50.666a5.521,5.521,0,0,0,2.519,3.725ZM41.8,29.413a3.336,3.336,0,0,1,3.667-5.2V20.185a7.359,7.359,0,0,0-1.154-.066v3.138A3.335,3.335,0,0,0,41.8,29.413Z" transform="translate(1072.263 306.03)" fill="#ff004f"/>
    <path id="Path_34813" d="M27.449,18.4a9.428,9.428,0,0,0,5.5,1.759v-3.1a5.52,5.52,0,0,1-2.919-1.673,5.521,5.521,0,0,1-2.519-3.725H24.635V27.406a3.337,3.337,0,0,1-5.992,2.007,3.336,3.336,0,0,1,2.513-6.156V20.118A7.288,7.288,0,0,0,16.1,32.5a7.295,7.295,0,0,0,11.353-6.056V18.4Z" transform="translate(1095.42 306.03)"/>
    <path id="Path_34814" d="M20.084,6.358V5.518a5.5,5.5,0,0,1-2.919-.834A5.515,5.515,0,0,0,20.084,6.358ZM14.646.96q-.039-.225-.06-.453V0H10.617V15.751A3.338,3.338,0,0,1,5.78,18.718a3.337,3.337,0,0,0,5.992-2.007V.96ZM8.294,9.423V8.53a7.366,7.366,0,0,0-1-.068,7.289,7.289,0,0,0-4.06,13.345A7.288,7.288,0,0,1,8.294,9.423Z" transform="translate(1108.283 316.725)" fill="#00f2ea"/>
  </g>
</svg>
