<svg xmlns="http://www.w3.org/2000/svg" width="24" height="24" viewBox="0 0 24 24">
  <g id="icon_24x_Trash" data-name="icon/24x/Trash" transform="translate(-140 -705)">
    <g id="Boundary" transform="translate(140 705)" fill="#0b243a" stroke="rgba(0,0,0,0)" stroke-width="1" opacity="0">
      <rect width="24" height="24" stroke="none"/>
      <rect x="0.5" y="0.5" width="23" height="23" fill="none"/>
    </g>
    <g id="Group_57517" data-name="Group 57517" transform="translate(-25 -3)">
      <path id="Path_1347" data-name="Path 1347" d="M20.684,5.789V4.526A2.526,2.526,0,0,0,18.158,2H10.579A2.526,2.526,0,0,0,8.053,4.526V5.789H4.263a1.263,1.263,0,0,0,0,2.526H5.526V22.211A3.789,3.789,0,0,0,9.316,26H19.421a3.789,3.789,0,0,0,3.789-3.789V8.316h1.263a1.263,1.263,0,1,0,0-2.526ZM18.158,4.526H10.579V5.789h7.579Zm2.526,3.789H8.053V22.211a1.263,1.263,0,0,0,1.263,1.263H19.421a1.263,1.263,0,0,0,1.263-1.263Z" transform="translate(163 706)" fill="#f58b1e" fill-rule="evenodd"/>
      <path id="Path_1348" data-name="Path 1348" d="M9,9h2.526V19.105H9Z" transform="translate(164.579 707.842)" fill="#f58b1e"/>
      <path id="Path_1349" data-name="Path 1349" d="M13,9h2.526V19.105H13Z" transform="translate(165.632 707.842)" fill="#f58b1e"/>
    </g>
  </g>
</svg>
