<svg id="icon_24x_Twitter" data-name="icon/24x/Twitter" xmlns="http://www.w3.org/2000/svg" width="50" height="50" viewBox="0 0 24 24">
  <g id="Boundary" transform="translate(0)" stroke="rgba(0,0,0,0)" stroke-width="1" opacity="0">
    <rect width="50" height="50" stroke="none"/>
    <rect x="0.5" y="0.5" width="50" height="50" fill="none"/>
  </g>
  <path id="Path_40865" d="M547.729,589.354a13.915,13.915,0,0,0,14.01-14.01q0-.32-.014-.636a10.014,10.014,0,0,0,2.456-2.55,9.82,9.82,0,0,1-2.828.775,4.942,4.942,0,0,0,2.165-2.723,9.875,9.875,0,0,1-3.127,1.2A4.928,4.928,0,0,0,552,575.9a13.981,13.981,0,0,1-10.15-5.145,4.928,4.928,0,0,0,1.524,6.574,4.888,4.888,0,0,1-2.23-.616c0,.021,0,.041,0,.063a4.925,4.925,0,0,0,3.95,4.827,4.917,4.917,0,0,1-2.224.085,4.929,4.929,0,0,0,4.6,3.42,9.878,9.878,0,0,1-6.116,2.108,10.008,10.008,0,0,1-1.174-.068,13.938,13.938,0,0,0,7.548,2.212" transform="translate(-540.181 -567.602)" fill="#1da1f2"/>
</svg>
