<svg width="200" height="221" viewBox="0 0 200 221" fill="none" xmlns="http://www.w3.org/2000/svg">
<rect width="200" height="126" fill="white"/>
<path fill-rule="evenodd" clip-rule="evenodd" d="M117.417 75.0452C115.619 74.0156 114.12 72.5247 113.071 70.7223C112.023 68.9199 111.461 66.8696 111.442 64.7775C111.423 62.6853 111.948 60.625 112.965 58.8037C113.981 56.9823 115.453 55.4641 117.232 54.4016L181.176 16.2117C182.955 15.149 184.979 14.5795 187.044 14.5604C189.11 14.5414 191.143 15.0735 192.941 16.1032C194.739 17.1329 196.238 18.6239 197.287 20.4265C198.335 22.229 198.897 24.2794 198.916 26.3717L199.588 101.572C199.607 103.664 199.082 105.724 198.065 107.546C197.049 109.367 195.577 110.885 193.798 111.948C192.019 113.01 189.995 113.579 187.93 113.598C185.865 113.617 183.831 113.085 182.033 112.055L117.417 75.0452Z" fill="#7D44CF"/>
<path fill-rule="evenodd" clip-rule="evenodd" d="M52.1007 0H137.815C137.815 0 153.489 1.43708 156.302 15.3243L109.244 49.3784C109.244 49.3784 91.5377 65.1846 110.924 80.027L154.622 110.676C153.892 114.607 151.795 118.144 148.711 120.643C145.627 123.142 141.761 124.439 137.815 124.297H53.7814C53.7814 124.297 32.215 124.411 31.9326 102.162V18.7297C31.9326 18.7297 32.2973 5.10811 52.1007 0Z" fill="#1CDBC1"/>
<path d="M31.0924 83.4324C48.2643 83.4324 62.1849 69.3293 62.1849 51.9324C62.1849 34.5354 48.2643 20.4324 31.0924 20.4324C13.9206 20.4324 0 34.5354 0 51.9324C0 69.3293 13.9206 83.4324 31.0924 83.4324Z" fill="#7D44CF"/>
<path fill-rule="evenodd" clip-rule="evenodd" d="M23.6328 81.1902C23.6328 81.1902 31.2915 88.5106 31.9479 91.6162C31.9479 91.6162 36.7975 82.5523 42.1202 81.1902H23.6328Z" fill="#7D44CF"/>
<ellipse cx="20.3497" cy="51.6866" rx="3.28228" ry="3.32746" fill="white"/>
<ellipse cx="42.2315" cy="51.6866" rx="3.28228" ry="3.32746" fill="white"/>
<ellipse cx="31.2911" cy="51.6866" rx="3.28228" ry="3.32746" fill="white"/>
<path d="M26.99 185C25.626 185 24.572 184.649 23.828 183.946C23.1253 183.202 22.774 182.148 22.774 180.784V145.506C22.774 144.142 23.1253 143.109 23.828 142.406C24.572 141.662 25.626 141.29 26.99 141.29H49.124C50.1573 141.29 50.9427 141.559 51.48 142.096C52.0587 142.633 52.348 143.398 52.348 144.39C52.348 145.423 52.0587 146.229 51.48 146.808C50.9427 147.345 50.1573 147.614 49.124 147.614H30.4V159.642H47.76C48.8347 159.642 49.6407 159.911 50.178 160.448C50.7153 160.985 50.984 161.771 50.984 162.804C50.984 163.837 50.7153 164.623 50.178 165.16C49.6407 165.697 48.8347 165.966 47.76 165.966H30.4V178.676H49.124C50.1573 178.676 50.9427 178.945 51.48 179.482C52.0587 180.019 52.348 180.805 52.348 181.838C52.348 182.871 52.0587 183.657 51.48 184.194C50.9427 184.731 50.1573 185 49.124 185H26.99ZM64.7281 185.496C63.4881 185.496 62.5375 185.165 61.8761 184.504C61.2148 183.801 60.8841 182.809 60.8841 181.528V158.092C60.8841 156.811 61.2148 155.839 61.8761 155.178C62.5375 154.517 63.4675 154.186 64.6661 154.186C65.8648 154.186 66.7948 154.517 67.4561 155.178C68.1175 155.839 68.4481 156.811 68.4481 158.092V162.308L67.7661 160.758C68.6755 158.567 70.0808 156.914 71.9821 155.798C73.9248 154.641 76.1155 154.062 78.5541 154.062C80.9928 154.062 82.9975 154.517 84.5681 155.426C86.1388 156.335 87.3168 157.72 88.1021 159.58C88.8875 161.399 89.2801 163.713 89.2801 166.524V181.528C89.2801 182.809 88.9495 183.801 88.2881 184.504C87.6268 185.165 86.6761 185.496 85.4361 185.496C84.1961 185.496 83.2248 185.165 82.5221 184.504C81.8608 183.801 81.5301 182.809 81.5301 181.528V166.896C81.5301 164.54 81.0755 162.825 80.1661 161.75C79.2981 160.675 77.9341 160.138 76.0741 160.138C73.8008 160.138 71.9821 160.861 70.6181 162.308C69.2955 163.713 68.6341 165.594 68.6341 167.95V181.528C68.6341 184.173 67.3321 185.496 64.7281 185.496ZM95.2917 196.718C94.3824 196.801 93.6384 196.656 93.0597 196.284C92.4811 195.953 92.0884 195.519 91.8817 194.982C91.6337 194.445 91.5511 193.887 91.6337 193.308C91.7164 192.729 91.9644 192.213 92.3777 191.758C92.7497 191.345 93.2664 191.117 93.9277 191.076C95.7877 190.911 97.1311 190.373 97.9577 189.464C98.8257 188.596 99.2597 187.253 99.2597 185.434V158.092C99.2597 156.811 99.5904 155.839 100.252 155.178C100.954 154.517 101.926 154.186 103.166 154.186C104.406 154.186 105.356 154.517 106.018 155.178C106.679 155.839 107.01 156.811 107.01 158.092V184.752C107.01 187.397 106.576 189.567 105.708 191.262C104.881 192.957 103.6 194.238 101.864 195.106C100.169 195.974 97.9784 196.511 95.2917 196.718ZM103.104 148.482C101.657 148.482 100.52 148.131 99.6937 147.428C98.9084 146.684 98.5157 145.671 98.5157 144.39C98.5157 143.067 98.9084 142.055 99.6937 141.352C100.52 140.649 101.657 140.298 103.104 140.298C104.592 140.298 105.728 140.649 106.514 141.352C107.299 142.055 107.692 143.067 107.692 144.39C107.692 145.671 107.299 146.684 106.514 147.428C105.728 148.131 104.592 148.482 103.104 148.482ZM130.743 185.62C127.601 185.62 124.873 184.979 122.559 183.698C120.244 182.417 118.446 180.598 117.165 178.242C115.883 175.845 115.243 173.034 115.243 169.81C115.243 167.371 115.594 165.201 116.297 163.3C117.041 161.357 118.095 159.704 119.459 158.34C120.823 156.935 122.455 155.881 124.357 155.178C126.258 154.434 128.387 154.062 130.743 154.062C133.884 154.062 136.612 154.703 138.927 155.984C141.241 157.265 143.039 159.084 144.321 161.44C145.602 163.796 146.243 166.586 146.243 169.81C146.243 172.249 145.871 174.439 145.127 176.382C144.424 178.325 143.391 179.999 142.027 181.404C140.663 182.768 139.03 183.822 137.129 184.566C135.227 185.269 133.099 185.62 130.743 185.62ZM130.743 179.73C132.272 179.73 133.615 179.358 134.773 178.614C135.93 177.87 136.819 176.775 137.439 175.328C138.1 173.84 138.431 172.001 138.431 169.81C138.431 166.503 137.728 164.044 136.323 162.432C134.917 160.779 133.057 159.952 130.743 159.952C129.213 159.952 127.87 160.324 126.713 161.068C125.555 161.771 124.646 162.866 123.985 164.354C123.365 165.801 123.055 167.619 123.055 169.81C123.055 173.075 123.757 175.555 125.163 177.25C126.568 178.903 128.428 179.73 130.743 179.73ZM161.582 196.656C160.672 196.656 159.928 196.408 159.35 195.912C158.771 195.457 158.42 194.837 158.296 194.052C158.213 193.267 158.358 192.44 158.73 191.572L162.946 182.21V185.434L151.662 159.332C151.29 158.423 151.166 157.575 151.29 156.79C151.414 156.005 151.786 155.385 152.406 154.93C153.067 154.434 153.956 154.186 155.072 154.186C156.022 154.186 156.787 154.413 157.366 154.868C157.944 155.281 158.461 156.087 158.916 157.286L167.286 178.18H165.426L173.982 157.224C174.436 156.067 174.974 155.281 175.594 154.868C176.214 154.413 177.04 154.186 178.074 154.186C178.983 154.186 179.706 154.434 180.244 154.93C180.781 155.385 181.112 156.005 181.236 156.79C181.36 157.534 181.215 158.361 180.802 159.27L165.736 193.68C165.198 194.837 164.62 195.623 164 196.036C163.38 196.449 162.574 196.656 161.582 196.656Z" fill="black"/>
<path d="M39.93 217.1C39.25 217.1 38.6533 216.95 38.14 216.65C37.6333 216.35 37.24 215.93 36.96 215.39C36.68 214.843 36.54 214.203 36.54 213.47C36.54 212.917 36.62 212.42 36.78 211.98C36.94 211.533 37.1667 211.153 37.46 210.84C37.76 210.52 38.1167 210.277 38.53 210.11C38.95 209.937 39.4167 209.85 39.93 209.85C40.6167 209.85 41.2133 210 41.72 210.3C42.2267 210.593 42.62 211.01 42.9 211.55C43.18 212.09 43.32 212.727 43.32 213.46C43.32 214.013 43.24 214.513 43.08 214.96C42.92 215.407 42.69 215.79 42.39 216.11C42.0967 216.43 41.74 216.677 41.32 216.85C40.9067 217.017 40.4433 217.1 39.93 217.1ZM39.93 216C40.3633 216 40.73 215.9 41.03 215.7C41.3367 215.5 41.57 215.21 41.73 214.83C41.8967 214.45 41.98 213.997 41.98 213.47C41.98 212.67 41.8 212.05 41.44 211.61C41.0867 211.17 40.5833 210.95 39.93 210.95C39.5033 210.95 39.1367 211.05 38.83 211.25C38.5233 211.443 38.2867 211.73 38.12 212.11C37.96 212.483 37.88 212.937 37.88 213.47C37.88 214.263 38.06 214.883 38.42 215.33C38.78 215.777 39.2833 216 39.93 216ZM47.0216 217.08C46.8282 217.08 46.6782 217.027 46.5716 216.92C46.4716 216.813 46.4216 216.66 46.4216 216.46V210.51C46.4216 210.303 46.4716 210.147 46.5716 210.04C46.6782 209.927 46.8149 209.87 46.9816 209.87C47.1349 209.87 47.2482 209.9 47.3216 209.96C47.4016 210.013 47.4949 210.107 47.6016 210.24L51.4316 215.21H51.1716V210.48C51.1716 210.287 51.2216 210.137 51.3216 210.03C51.4282 209.923 51.5782 209.87 51.7716 209.87C51.9649 209.87 52.1116 209.923 52.2116 210.03C52.3116 210.137 52.3616 210.287 52.3616 210.48V216.48C52.3616 216.667 52.3149 216.813 52.2216 216.92C52.1282 217.027 52.0016 217.08 51.8416 217.08C51.6882 217.08 51.5649 217.05 51.4716 216.99C51.3849 216.93 51.2882 216.833 51.1816 216.7L47.3616 211.73H47.6116V216.46C47.6116 216.66 47.5616 216.813 47.4616 216.92C47.3616 217.027 47.2149 217.08 47.0216 217.08ZM56.352 217C56.1454 217 55.9854 216.943 55.872 216.83C55.7587 216.71 55.702 216.547 55.702 216.34V210.57C55.702 210.357 55.7554 210.197 55.862 210.09C55.9754 209.977 56.1354 209.92 56.342 209.92C56.5487 209.92 56.7054 209.977 56.812 210.09C56.9254 210.197 56.982 210.357 56.982 210.57V215.91H59.882C60.062 215.91 60.1987 215.957 60.292 216.05C60.392 216.143 60.442 216.277 60.442 216.45C60.442 216.623 60.392 216.76 60.292 216.86C60.1987 216.953 60.062 217 59.882 217H56.352ZM63.7573 217.08C63.5506 217.08 63.3906 217.023 63.2773 216.91C63.1706 216.79 63.1173 216.627 63.1173 216.42V210.53C63.1173 210.317 63.1706 210.153 63.2773 210.04C63.3906 209.927 63.5506 209.87 63.7573 209.87C63.9639 209.87 64.1206 209.927 64.2273 210.04C64.3406 210.153 64.3973 210.317 64.3973 210.53V216.42C64.3973 216.627 64.3439 216.79 64.2373 216.91C64.1306 217.023 63.9706 217.08 63.7573 217.08ZM68.3395 217.08C68.1462 217.08 67.9962 217.027 67.8895 216.92C67.7895 216.813 67.7395 216.66 67.7395 216.46V210.51C67.7395 210.303 67.7895 210.147 67.8895 210.04C67.9962 209.927 68.1329 209.87 68.2995 209.87C68.4529 209.87 68.5662 209.9 68.6395 209.96C68.7195 210.013 68.8129 210.107 68.9195 210.24L72.7495 215.21H72.4895V210.48C72.4895 210.287 72.5395 210.137 72.6395 210.03C72.7462 209.923 72.8962 209.87 73.0895 209.87C73.2829 209.87 73.4295 209.923 73.5295 210.03C73.6295 210.137 73.6795 210.287 73.6795 210.48V216.48C73.6795 216.667 73.6329 216.813 73.5395 216.92C73.4462 217.027 73.3195 217.08 73.1595 217.08C73.0062 217.08 72.8829 217.05 72.7895 216.99C72.7029 216.93 72.6062 216.833 72.4995 216.7L68.6795 211.73H68.9295V216.46C68.9295 216.66 68.8795 216.813 68.7795 216.92C68.6795 217.027 68.5329 217.08 68.3395 217.08ZM77.7 217C77.48 217 77.31 216.943 77.19 216.83C77.0767 216.71 77.02 216.54 77.02 216.32V210.63C77.02 210.41 77.0767 210.243 77.19 210.13C77.31 210.01 77.48 209.95 77.7 209.95H81.27C81.4367 209.95 81.5633 209.993 81.65 210.08C81.7433 210.167 81.79 210.29 81.79 210.45C81.79 210.617 81.7433 210.747 81.65 210.84C81.5633 210.927 81.4367 210.97 81.27 210.97H78.25V212.91H81.05C81.2233 212.91 81.3533 212.953 81.44 213.04C81.5267 213.127 81.57 213.253 81.57 213.42C81.57 213.587 81.5267 213.713 81.44 213.8C81.3533 213.887 81.2233 213.93 81.05 213.93H78.25V215.98H81.27C81.4367 215.98 81.5633 216.023 81.65 216.11C81.7433 216.197 81.79 216.323 81.79 216.49C81.79 216.657 81.7433 216.783 81.65 216.87C81.5633 216.957 81.4367 217 81.27 217H77.7ZM89.9816 217C89.7616 217 89.5916 216.943 89.4716 216.83C89.3583 216.71 89.3016 216.54 89.3016 216.32V210.63C89.3016 210.41 89.3583 210.243 89.4716 210.13C89.5916 210.01 89.7616 209.95 89.9816 209.95H91.9216C93.1016 209.95 94.0116 210.253 94.6516 210.86C95.2983 211.467 95.6216 212.337 95.6216 213.47C95.6216 214.037 95.5383 214.54 95.3716 214.98C95.2116 215.413 94.9716 215.78 94.6516 216.08C94.3383 216.38 93.9516 216.61 93.4916 216.77C93.0383 216.923 92.515 217 91.9216 217H89.9816ZM90.5816 215.94H91.8416C92.255 215.94 92.6116 215.89 92.9116 215.79C93.2183 215.683 93.4716 215.53 93.6716 215.33C93.8783 215.123 94.0316 214.867 94.1316 214.56C94.2316 214.247 94.2816 213.883 94.2816 213.47C94.2816 212.643 94.0783 212.027 93.6716 211.62C93.265 211.213 92.655 211.01 91.8416 211.01H90.5816V215.94ZM98.6423 217.08C98.4823 217.08 98.3523 217.043 98.2523 216.97C98.159 216.897 98.1023 216.8 98.0823 216.68C98.0623 216.553 98.0857 216.413 98.1523 216.26L100.792 210.41C100.879 210.217 100.982 210.08 101.102 210C101.229 209.913 101.372 209.87 101.532 209.87C101.686 209.87 101.822 209.913 101.942 210C102.069 210.08 102.176 210.217 102.262 210.41L104.912 216.26C104.986 216.413 105.012 216.553 104.992 216.68C104.972 216.807 104.916 216.907 104.822 216.98C104.729 217.047 104.606 217.08 104.452 217.08C104.266 217.08 104.119 217.037 104.012 216.95C103.912 216.857 103.822 216.717 103.742 216.53L103.092 215.02L103.632 215.37H99.4123L99.9523 215.02L99.3123 216.53C99.2257 216.723 99.1357 216.863 99.0423 216.95C98.949 217.037 98.8157 217.08 98.6423 217.08ZM101.512 211.34L100.112 214.67L99.8523 214.35H103.192L102.942 214.67L101.532 211.34H101.512ZM109.372 217.08C109.166 217.08 109.006 217.023 108.892 216.91C108.786 216.79 108.732 216.627 108.732 216.42V211.02H106.782C106.609 211.02 106.472 210.973 106.372 210.88C106.279 210.78 106.232 210.647 106.232 210.48C106.232 210.307 106.279 210.177 106.372 210.09C106.472 209.997 106.609 209.95 106.782 209.95H111.962C112.136 209.95 112.269 209.997 112.362 210.09C112.462 210.177 112.512 210.307 112.512 210.48C112.512 210.647 112.462 210.78 112.362 210.88C112.269 210.973 112.136 211.02 111.962 211.02H110.012V216.42C110.012 216.627 109.959 216.79 109.852 216.91C109.746 217.023 109.586 217.08 109.372 217.08ZM115.683 217.08C115.477 217.08 115.317 217.023 115.203 216.91C115.097 216.79 115.043 216.627 115.043 216.42V210.53C115.043 210.317 115.097 210.153 115.203 210.04C115.317 209.927 115.477 209.87 115.683 209.87C115.89 209.87 116.047 209.927 116.153 210.04C116.267 210.153 116.323 210.317 116.323 210.53V216.42C116.323 216.627 116.27 216.79 116.163 216.91C116.057 217.023 115.897 217.08 115.683 217.08ZM120.266 217.08C120.072 217.08 119.922 217.027 119.816 216.92C119.716 216.813 119.666 216.66 119.666 216.46V210.51C119.666 210.303 119.716 210.147 119.816 210.04C119.922 209.927 120.059 209.87 120.226 209.87C120.379 209.87 120.492 209.9 120.566 209.96C120.646 210.013 120.739 210.107 120.846 210.24L124.676 215.21H124.416V210.48C124.416 210.287 124.466 210.137 124.566 210.03C124.672 209.923 124.822 209.87 125.016 209.87C125.209 209.87 125.356 209.923 125.456 210.03C125.556 210.137 125.606 210.287 125.606 210.48V216.48C125.606 216.667 125.559 216.813 125.466 216.92C125.372 217.027 125.246 217.08 125.086 217.08C124.932 217.08 124.809 217.05 124.716 216.99C124.629 216.93 124.532 216.833 124.426 216.7L120.606 211.73H120.856V216.46C120.856 216.66 120.806 216.813 120.706 216.92C120.606 217.027 120.459 217.08 120.266 217.08ZM132.336 217.1C131.556 217.1 130.896 216.953 130.356 216.66C129.823 216.367 129.416 215.95 129.136 215.41C128.856 214.87 128.716 214.23 128.716 213.49C128.716 212.93 128.796 212.427 128.956 211.98C129.123 211.533 129.36 211.153 129.666 210.84C129.98 210.52 130.36 210.277 130.806 210.11C131.253 209.937 131.76 209.85 132.326 209.85C132.7 209.85 133.073 209.897 133.446 209.99C133.826 210.077 134.183 210.227 134.516 210.44C134.63 210.513 134.703 210.603 134.736 210.71C134.776 210.817 134.783 210.927 134.756 211.04C134.73 211.147 134.68 211.24 134.606 211.32C134.533 211.4 134.44 211.45 134.326 211.47C134.22 211.49 134.1 211.463 133.966 211.39C133.713 211.243 133.456 211.137 133.196 211.07C132.936 211.003 132.646 210.97 132.326 210.97C131.833 210.97 131.416 211.07 131.076 211.27C130.736 211.463 130.48 211.747 130.306 212.12C130.14 212.493 130.056 212.95 130.056 213.49C130.056 214.31 130.253 214.933 130.646 215.36C131.04 215.787 131.623 216 132.396 216C132.663 216 132.933 215.973 133.206 215.92C133.48 215.867 133.746 215.793 134.006 215.7L133.756 216.27V214.14H132.656C132.49 214.14 132.36 214.097 132.266 214.01C132.18 213.923 132.136 213.807 132.136 213.66C132.136 213.507 132.18 213.39 132.266 213.31C132.36 213.23 132.49 213.19 132.656 213.19H134.306C134.473 213.19 134.6 213.237 134.686 213.33C134.78 213.417 134.826 213.543 134.826 213.71V216.14C134.826 216.287 134.796 216.41 134.736 216.51C134.683 216.61 134.593 216.683 134.466 216.73C134.173 216.837 133.836 216.927 133.456 217C133.076 217.067 132.703 217.1 132.336 217.1ZM142.694 217.08C142.534 217.08 142.404 217.043 142.304 216.97C142.211 216.897 142.154 216.8 142.134 216.68C142.114 216.553 142.138 216.413 142.204 216.26L144.844 210.41C144.931 210.217 145.034 210.08 145.154 210C145.281 209.913 145.424 209.87 145.584 209.87C145.738 209.87 145.874 209.913 145.994 210C146.121 210.08 146.228 210.217 146.314 210.41L148.964 216.26C149.038 216.413 149.064 216.553 149.044 216.68C149.024 216.807 148.968 216.907 148.874 216.98C148.781 217.047 148.658 217.08 148.504 217.08C148.318 217.08 148.171 217.037 148.064 216.95C147.964 216.857 147.874 216.717 147.794 216.53L147.144 215.02L147.684 215.37H143.464L144.004 215.02L143.364 216.53C143.278 216.723 143.188 216.863 143.094 216.95C143.001 217.037 142.868 217.08 142.694 217.08ZM145.564 211.34L144.164 214.67L143.904 214.35H147.244L146.994 214.67L145.584 211.34H145.564ZM152.506 217.08C152.299 217.08 152.139 217.023 152.026 216.91C151.919 216.79 151.866 216.627 151.866 216.42V210.6C151.866 210.387 151.922 210.227 152.036 210.12C152.149 210.007 152.309 209.95 152.516 209.95H154.926C155.699 209.95 156.296 210.143 156.716 210.53C157.136 210.917 157.346 211.457 157.346 212.15C157.346 212.843 157.136 213.387 156.716 213.78C156.296 214.167 155.699 214.36 154.926 214.36H153.146V216.42C153.146 216.627 153.092 216.79 152.986 216.91C152.879 217.023 152.719 217.08 152.506 217.08ZM153.146 213.35H154.726C155.179 213.35 155.522 213.25 155.756 213.05C155.989 212.843 156.106 212.543 156.106 212.15C156.106 211.757 155.989 211.46 155.756 211.26C155.522 211.06 155.179 210.96 154.726 210.96H153.146V213.35ZM160.829 217.08C160.622 217.08 160.462 217.023 160.349 216.91C160.242 216.79 160.189 216.627 160.189 216.42V210.6C160.189 210.387 160.246 210.227 160.359 210.12C160.472 210.007 160.632 209.95 160.839 209.95H163.249C164.022 209.95 164.619 210.143 165.039 210.53C165.459 210.917 165.669 211.457 165.669 212.15C165.669 212.843 165.459 213.387 165.039 213.78C164.619 214.167 164.022 214.36 163.249 214.36H161.469V216.42C161.469 216.627 161.416 216.79 161.309 216.91C161.202 217.023 161.042 217.08 160.829 217.08ZM161.469 213.35H163.049C163.502 213.35 163.846 213.25 164.079 213.05C164.312 212.843 164.429 212.543 164.429 212.15C164.429 211.757 164.312 211.46 164.079 211.26C163.846 211.06 163.502 210.96 163.049 210.96H161.469V213.35Z" fill="black"/>
</svg>
