<svg xmlns="http://www.w3.org/2000/svg" width="50" height="50" viewBox="0 0 50 50">
  <g id="Group_59089" data-name="Group 59089" transform="translate(-76.817 -25)">
    <g id="g10" transform="translate(76.817 25)">
      <g id="g12">
        <path id="path14" d="M50-1340.332a25,25,0,0,0-25-25,25,25,0,0,0-25,25,25,25,0,0,0,21.094,24.694v-17.468H14.746v-7.226h6.348v-5.507c0-6.265,3.732-9.726,9.443-9.726a38.454,38.454,0,0,1,5.6.488v6.152H32.98c-3.106,0-4.074,1.927-4.074,3.9v4.689H35.84l-1.108,7.226H28.906v17.468A25,25,0,0,0,50-1340.332" transform="translate(0 1365.33)" fill="#f58b1e"/>
        <path id="path16" d="M422.892-1075.932l1.122-7.314H417v-4.746c0-2,.98-3.951,4.123-3.951h3.19v-6.227a38.91,38.91,0,0,0-5.664-.494c-5.779,0-9.557,3.5-9.557,9.844v5.574h-6.424v7.314h6.424v17.68a25.487,25.487,0,0,0,3.953.307,25.487,25.487,0,0,0,3.953-.307v-17.68h5.9" transform="translate(-388.053 1107.944)" fill="#fff"/>
      </g>
    </g>
  </g>
</svg>
