<svg width="49" height="49" viewBox="0 0 49 49" fill="none" xmlns="http://www.w3.org/2000/svg">
<path fill-rule="evenodd" clip-rule="evenodd" d="M24.1985 0C17.6296 1.1026e-05 16.8046 0.0287603 14.2237 0.14621C11.6474 0.264186 9.88883 0.672061 8.35009 1.27051C6.75842 1.88863 5.40825 2.71547 4.06312 4.0611C2.71698 5.40624 1.89014 6.75641 1.27001 8.34757C0.670044 9.88681 0.261665 11.6459 0.145706 14.2212C0.0302503 16.8025 0 17.6279 0 24.2003C0 30.7726 0.0292419 31.5949 0.14621 34.1763C0.26469 36.7526 0.672565 38.5112 1.27051 40.0499C1.88913 41.6416 2.71597 42.9917 4.06161 44.3369C5.40624 45.683 6.75641 46.5119 8.34707 47.13C9.88681 47.7284 11.6459 48.1363 14.2217 48.2543C16.803 48.3718 17.6274 48.4005 24.1992 48.4005C30.7721 48.4005 31.5944 48.3718 34.1758 48.2543C36.7521 48.1363 38.5127 47.7284 40.0524 47.13C41.6436 46.5119 42.9917 45.683 44.3364 44.3369C45.6825 42.9917 46.5094 41.6416 47.1295 40.0504C47.7244 38.5112 48.1328 36.7521 48.2538 34.1768C48.3697 31.5954 48.4 30.7726 48.4 24.2003C48.4 17.6279 48.3697 16.803 48.2538 14.2217C48.1328 11.6454 47.7244 9.88681 47.1295 8.34808C46.5094 6.75641 45.6825 5.40624 44.3364 4.0611C42.9902 2.71497 41.6441 1.88812 40.0509 1.27051C38.5081 0.672061 36.7486 0.264186 34.1723 0.14621C31.5914 0.0287603 30.7694 1.10259e-05 24.1985 0ZM22.0334 4.36152C22.455 4.36086 22.9085 4.36106 23.3978 4.36128L24.2044 4.36152C30.6659 4.36152 31.4317 4.38471 33.9833 4.50067C36.3428 4.60856 37.6234 5.00283 38.4765 5.33407C39.6058 5.7727 40.411 6.29704 41.2575 7.14404C42.1045 7.99105 42.6289 8.79773 43.0685 9.92707C43.3997 10.7791 43.7945 12.0597 43.9019 14.4192C44.0178 16.9704 44.0431 17.7367 44.0431 24.1951C44.0431 30.6536 44.0178 31.4199 43.9019 33.971C43.794 36.3306 43.3997 37.6112 43.0685 38.4632C42.6299 39.5925 42.1045 40.3967 41.2575 41.2432C40.4105 42.0902 39.6063 42.6146 38.4765 43.0532C37.6244 43.3859 36.3428 43.7792 33.9833 43.8871C31.4322 44.003 30.6659 44.0283 24.2044 44.0283C17.7424 44.0283 16.9766 44.003 14.4255 43.8871C12.066 43.7782 10.7854 43.3839 9.9318 43.0527C8.80245 42.6141 7.99578 42.0897 7.14877 41.2427C6.30176 40.3957 5.77742 39.591 5.33778 38.4612C5.00654 37.6091 4.61177 36.3285 4.50439 33.969C4.38843 31.4179 4.36523 30.6516 4.36523 24.1891C4.36523 17.7266 4.38843 16.9643 4.50439 14.4132C4.61228 12.0537 5.00654 10.7731 5.33778 9.92001C5.77641 8.79067 6.30176 7.98399 7.14877 7.13699C7.99578 6.28998 8.80245 5.76564 9.9318 5.326C10.7849 4.99325 12.066 4.59999 14.4255 4.4916C16.658 4.39076 17.5231 4.36051 22.0334 4.35547V4.36152ZM34.2168 11.2829C34.2168 9.67917 35.5176 8.37991 37.1208 8.37991V8.37891C38.7241 8.37891 40.0249 9.67967 40.0249 11.2829C40.0249 12.8862 38.7241 14.187 37.1208 14.187C35.5176 14.187 34.2168 12.8862 34.2168 11.2829ZM24.2027 11.7725C17.3397 11.7727 11.7754 17.3372 11.7754 24.2003C11.7754 31.0636 17.3399 36.6256 24.2032 36.6256C31.0665 36.6256 36.629 31.0636 36.629 24.2003C36.629 17.337 31.066 11.7725 24.2027 11.7725ZM32.2702 24.1996C32.2702 19.7442 28.6583 16.1328 24.2035 16.1328C19.7481 16.1328 16.1367 19.7442 16.1367 24.1996C16.1367 28.6544 19.7481 32.2663 24.2035 32.2663C28.6583 32.2663 32.2702 28.6544 32.2702 24.1996Z" fill="url(#paint0_linear_2222_8096)"/>
<defs>
<linearGradient id="paint0_linear_2222_8096" x1="2" y1="5.5" x2="43.5" y2="44.5" gradientUnits="userSpaceOnUse">
<stop stop-color="#F58B1E"/>
<stop offset="1" stop-color="#EFA155"/>
</linearGradient>
</defs>
</svg>
