<svg xmlns="http://www.w3.org/2000/svg" width="99" height="89" viewBox="0 0 99 89">
    <g fill="none" fill-rule="evenodd">
        <g>
            <g>
                <path fill="#D7CCFF" d="M0 16.948h97.929V71.18c0 3.73-3.04 6.78-6.754 6.78H6.754C3.039 77.96 0 74.91 0 71.18V16.948z" transform="translate(-139 -159) translate(139 159)"/>
                <path fill="#3B14CA" d="M6.754 6.78C3.039 6.78 0 9.83 0 13.557V71.18c0-3.728 3.039-6.779 6.754-6.779h6.753V6.78H6.754z" transform="translate(-139 -159) translate(139 159)"/>
                <g fill="#7954FF">
                    <path d="M70.914 4.326V.936L21.477.875v3.39l22.422.062v4.407l-19.248 19.32H0v3.39h21.274L6.754 46.018v15.93h3.377V48.39h23.638V61.95h3.376V48.39l13.641.103v-3.39l-13.64-.102V35.68l-9.118-6.102 4.221-4.237 12.776 10.567 2.026-2.712-12.438-10.227 9.286-9.321.135 17.795h3.376l-.134-20.338h23.638v-3.39H47.276V4.327h23.638zM33.769 37.374v7.627H12.494l13.001-13.05 8.274 5.423zM0 .937L17.733.937 17.733 4.326 0 4.326z" transform="translate(-139 -159) translate(139 159) translate(13.507 16.01)"/>
                    <path d="M1.867 19.579L33.6 19.579 33.6 22.969 1.867 22.969z" transform="translate(-139 -159) translate(139 159) translate(13.507 16.01)"/>
                </g>
                <path fill="#3B14CA" d="M91.175 6.78c3.715 0 6.754 3.05 6.754 6.778V71.18c0-3.728-3.04-6.779-6.754-6.779h-6.754V6.78h6.754z" transform="translate(-139 -159) translate(139 159)"/>
                <path fill="#FFC0C9" stroke="#FFF" d="M77.668 37.285l20.26 6.78v12.71c0 12.033-6.415 23.219-16.715 29.32l-3.545 2.033-3.546-2.034c-10.3-6.1-16.716-17.286-16.716-29.32v-12.71l20.262-6.779z" transform="translate(-139 -159) translate(139 159)"/>
                <path fill="#FF8395" d="M76.823 82.874l-1.688-2.88c9.455-5.594 14.352-14.237 14.352-26.1v-3.05h3.376v2.88c0 13.22-5.403 22.88-16.04 29.15z" transform="translate(-139 -159) translate(139 159)"/>
                <path fill="#7954FF" d="M13.507 41.352L32.607 21.955 30.243 19.582 13.507 36.607z" transform="translate(-139 -159) translate(139 159)"/>
                <path fill="#FF8797" d="M43.9 9.999C43.73 4.407 39.171 0 33.6 0c-5.403.17-9.793 4.576-9.962 9.999 0 1.695.338 3.22 1.182 4.746l8.949 15.76 8.948-15.76c.844-1.526 1.182-3.051 1.182-4.746z" transform="translate(-139 -159) translate(139 159)"/>
                <path fill="#E9E9E9" d="M37.145 10.169c0 1.872-1.512 3.39-3.376 3.39-1.865 0-3.377-1.518-3.377-3.39s1.512-3.39 3.377-3.39c1.864 0 3.376 1.518 3.376 3.39z" transform="translate(-139 -159) translate(139 159)"/>
            </g>
        </g>
    </g>
</svg>
