<svg xmlns="http://www.w3.org/2000/svg" width="14" height="16" viewBox="0 0 14 16">
    <g fill="none" fill-rule="evenodd">
        <g fill="#4B24DD">
            <g>
                <path d="M4.259 16C1.929 15.986.001 11.125.001 8.65 0 4.606 2.97 3.72 4.114 3.72c.515 0 1.066.207 1.552.39.34.128.69.26.886.26.117 0 .392-.112.636-.21.518-.212 1.164-.474 1.916-.474h.004c.561 0 2.263.126 3.287 1.696l.24.368-.346.266c-.492.38-1.391 1.073-1.391 2.446 0 1.626 1.018 2.251 1.507 2.552.216.133.44.27.44.57 0 .195-1.527 4.392-3.744 4.392-.543 0-.926-.167-1.265-.314-.342-.149-.637-.277-1.125-.277-.247 0-.56.12-.891.247-.453.172-.965.368-1.546.368H4.26zM9.339 0c.057 2.127-1.432 3.603-2.919 3.51C6.175 1.814 7.907 0 9.34 0z" transform="translate(-74 -611) translate(74.369 611)"/>
            </g>
        </g>
    </g>
</svg>
