<svg xmlns="http://www.w3.org/2000/svg" width="83" height="84" viewBox="0 0 83 84">
    <g fill="none" fill-rule="evenodd">
        <g>
            <g>
                <path fill="#EBDEE3" d="M41.481 0L7.152 18.508 0 18.508 0 24.203 2.861 24.203 2.861 29.898 80.101 29.898 80.101 24.203 82.962 24.203 82.962 18.508 75.81 18.508z" transform="translate(-150 -163) translate(150 163)"/>
                <path fill="#D4B9C4" d="M0 21.356L82.962 21.356 82.962 18.508 0 18.508z" transform="translate(-150 -163) translate(150 163)"/>
                <path fill="#E7B900" d="M61.983 18.508L65.798 18.508 41.481 5.695 17.165 18.508 29.561 18.508 45.772 9.966z" transform="translate(-150 -163) translate(150 163)"/>
                <path fill="#FFD422" d="M45.772 9.966L29.561 18.508 61.983 18.508z" transform="translate(-150 -163) translate(150 163)"/>
                <path fill="#EBDEE3" d="M2.861 78.305L80.101 78.305 80.101 72.61 2.861 72.61z" transform="translate(-150 -163) translate(150 163)"/>
                <path fill="#D4B9C4" d="M2.861 27.051L80.101 27.051 80.101 24.203 2.861 24.203zM2.861 78.305L80.101 78.305 80.101 75.458 2.861 75.458z" transform="translate(-150 -163) translate(150 163)"/>
                <path fill="#EBDEE3" d="M0 84L82.962 84 82.962 78.305 0 78.305z" transform="translate(-150 -163) translate(150 163)"/>
                <path fill="#D4B9C4" d="M0 84L82.962 84 82.962 81.153 0 81.153z" transform="translate(-150 -163) translate(150 163)"/>
                <path fill="#4622AC" d="M70.089 66.915L74.38 66.915 74.38 35.593 70.089 35.593z" transform="translate(-150 -163) translate(150 163)"/>
                <path fill="#5027C2" d="M74.38 66.915L77.241 66.915 77.241 35.593 74.38 35.593z" transform="translate(-150 -163) translate(150 163)"/>
                <path fill="#341982" d="M54.354 35.593L54.354 39.864 54.354 62.644 54.354 66.915 58.646 66.915 58.646 35.593z" transform="translate(-150 -163) translate(150 163)"/>
                <path fill="#4622AC" d="M58.646 66.915L61.506 66.915 61.506 35.593 58.646 35.593zM8.582 66.915L12.873 66.915 12.873 35.593 8.582 35.593z" transform="translate(-150 -163) translate(150 163)"/>
                <path fill="#5027C2" d="M5.722 66.915L8.582 66.915 8.582 35.593 5.722 35.593z" transform="translate(-150 -163) translate(150 163)"/>
                <path fill="#341982" d="M28.608 35.593L28.608 39.864 28.608 62.644 28.608 66.915 24.316 66.915 24.316 35.593z" transform="translate(-150 -163) translate(150 163)"/>
                <path fill="#4622AC" d="M21.456 66.915L24.317 66.915 24.317 35.593 21.456 35.593z" transform="translate(-150 -163) translate(150 163)"/>
                <g>
                    <path fill="#FFD422" d="M14.307 2.862c6.32 0 11.443 5.1 11.443 11.39 0 6.29-5.124 11.39-11.443 11.39-6.32 0-11.443-5.1-11.443-11.39 0-6.29 5.123-11.39 11.443-11.39" transform="translate(-150 -163) translate(150 163) translate(27.174 37.002)"/>
                    <path fill="#FFF" d="M8.177 9.074l-2.045-1.99c2.172-2.21 5.076-3.428 8.175-3.428v2.848c-2.323 0-4.5.913-6.13 2.57M18.777 25.529l-1.117-2.621c2.138-.904 3.784-2.591 4.633-4.751l2.664 1.039c-1.132 2.878-3.327 5.127-6.18 6.333" transform="translate(-150 -163) translate(150 163) translate(27.174 37.002)"/>
                    <path fill="#E7B900" d="M14.307 25.642c-6.31 0-11.443-5.11-11.443-11.39s5.133-11.39 11.443-11.39 11.443 5.11 11.443 11.39-5.134 11.39-11.443 11.39m0-25.627C6.419.015.003 6.402.003 14.252c0 7.85 6.416 14.238 14.304 14.238 7.887 0 14.303-6.387 14.303-14.238 0-7.85-6.416-14.237-14.303-14.237" transform="translate(-150 -163) translate(150 163) translate(27.174 37.002)"/>
                    <path fill="#E7B900" d="M18.598 17.1c0-2.355-1.925-4.271-4.291-4.271-.789 0-1.43-.64-1.43-1.424 0-.785.641-1.424 1.43-1.424h2.86V7.134h-1.43V5.71h-2.86v1.686c-1.662.59-2.861 2.155-2.861 4.009 0 2.355 1.924 4.271 4.29 4.271.79 0 1.431.639 1.431 1.424 0 .785-.642 1.423-1.43 1.423h-2.861v2.848h1.43v1.424h2.861v-1.686c1.661-.59 2.86-2.156 2.86-4.01" transform="translate(-150 -163) translate(150 163) translate(27.174 37.002)"/>
                </g>
            </g>
        </g>
    </g>
</svg>
