<svg xmlns="http://www.w3.org/2000/svg" width="71" height="77" viewBox="0 0 71 77">
    <defs>
        <linearGradient id="7051s4sjra" x1="6.147%" x2="86.017%" y1="50.167%" y2="50.167%">
            <stop offset="0%" stop-color="#FFD7DE"/>
            <stop offset="100%" stop-color="#FDA9CB"/>
        </linearGradient>
        <linearGradient id="k6pk9vuaxb" x1="154.176%" x2="-4.419%" y1="50.014%" y2="50.014%">
            <stop offset="0%" stop-color="#FFD7DE"/>
            <stop offset="100%" stop-color="#FDA9CB"/>
        </linearGradient>
        <linearGradient id="ubh2irufnc" x1="70.663%" x2="48.843%" y1="70.515%" y2="6.413%">
            <stop offset="0%" stop-color="#FF88C1" stop-opacity="0"/>
            <stop offset="100%" stop-color="#FF88C1"/>
        </linearGradient>
        <linearGradient id="z6s6f30l8d" x1="27.513%" x2="128.624%" y1="71.521%" y2="-25.226%">
            <stop offset="0%" stop-color="#FFD7DE"/>
            <stop offset="100%" stop-color="#FDA9CB"/>
        </linearGradient>
        <linearGradient id="48iuzlgeqe" x1="74.017%" x2="-41.954%" y1="27.024%" y2="137.989%">
            <stop offset="0%" stop-color="#FFD7DE"/>
            <stop offset="100%" stop-color="#FDA9CB"/>
        </linearGradient>
        <linearGradient id="20okmi9jjf" x1="31.268%" x2="54.362%" y1="43.451%" y2="66.309%">
            <stop offset="0%" stop-color="#FFD7DE"/>
            <stop offset="100%" stop-color="#FDA9CB"/>
        </linearGradient>
        <linearGradient id="vx8iv1guyg" x1="60.389%" x2="41.985%" y1="63.643%" y2="45.437%">
            <stop offset="0%" stop-color="#FFD7DE"/>
            <stop offset="100%" stop-color="#FDA9CB"/>
        </linearGradient>
        <linearGradient id="x6hrfhf74h" x1="18.154%" x2="161.134%" y1="50%" y2="50%">
            <stop offset="0%" stop-color="#FFD7DE"/>
            <stop offset="100%" stop-color="#FDA9CB"/>
        </linearGradient>
        <linearGradient id="vk2nm2guei" x1="83.877%" x2="-80.115%" y1="49.971%" y2="49.972%">
            <stop offset="0%" stop-color="#FFD7DE"/>
            <stop offset="100%" stop-color="#FDA9CB"/>
        </linearGradient>
        <linearGradient id="lmsfw6dzkj" x1="-.028%" x2="99.973%" y1="50.02%" y2="50.02%">
            <stop offset="0%" stop-color="#7954FF"/>
            <stop offset="100%" stop-color="#3B14CA"/>
        </linearGradient>
        <linearGradient id="4az0t46hak" x1="112.82%" x2="3.473%" y1="114.411%" y2="2.391%">
            <stop offset="0%" stop-color="#D7CCFF"/>
            <stop offset="100%" stop-color="#7E65D9"/>
        </linearGradient>
    </defs>
    <g fill="none" fill-rule="evenodd">
        <g>
            <g>
                <g>
                    <g>
                        <g>
                            <g>
                                <path fill="url(#7051s4sjra)" d="M10.312 25.927v-.792c0-.218.1-.422.278-.558.37-.279.37-.829 0-1.115-.178-.136-.278-.34-.278-.558v-.792c0-.279.232-.505.517-.505.285 0 .516-.226.516-.505v-.566c0-.279-.231-.505-.516-.505-.285 0-.517-.226-.517-.505v-1.515c0-.28.232-.505.517-.505.285 0 .516-.226.516-.505v-2.556H5.542v12.914c0 .513.192 1.003.539 1.387l1.541 1.697c.44.482 1.203.482 1.642 0l1.542-1.697c.346-.384.54-.874.54-1.387v-.452c0-.279-.232-.505-.517-.505-.285.03-.517-.196-.517-.475z" transform="translate(-143 -136) translate(143 133) translate(0 35.99) translate(54 7)"/>
                                <path fill="url(#k6pk9vuaxb)" d="M9.364 14.467v13.405c0 .498-.416.905-.925.905-.508 0-.924-.407-.924-.905V14.467h1.85z" transform="translate(-143 -136) translate(143 133) translate(0 35.99) translate(54 7)"/>
                                <path fill="url(#ubh2irufnc)" d="M11.337 20.544c0-.279-.23-.505-.516-.505-.285 0-.516-.226-.516-.505v-1.516c0-.279.23-.505.516-.505.285 0 .516-.226.516-.505v-2.556H5.534v1.342l5.71 5.587c.055-.083.086-.174.086-.28l.007-.557z" transform="translate(-143 -136) translate(143 133) translate(0 35.99) translate(54 7)"/>
                                <path fill="url(#z6s6f30l8d)" d="M8.44.053C3.814.053.07 3.717.07 8.24c0 4.524 3.745 8.188 8.37 8.188 4.624 0 8.37-3.664 8.37-8.188 0-4.523-3.746-8.187-8.37-8.187zm0 7.403c-1.31 0-2.374-1.04-2.374-2.322s1.063-2.322 2.373-2.322c1.31 0 2.374 1.04 2.374 2.322S9.75 7.456 8.44 7.456z" transform="translate(-143 -136) translate(143 133) translate(0 35.99) translate(54 7)"/>
                                <path fill="url(#48iuzlgeqe)" d="M8.44 1.485c-3.816 0-6.906 3.023-6.906 6.755 0 3.732 3.09 6.755 6.905 6.755 3.816 0 6.906-3.023 6.906-6.755 0-3.732-3.09-6.755-6.906-6.755zm0 5.971c-1.31 0-2.374-1.04-2.374-2.322s1.063-2.322 2.373-2.322c1.31 0 2.374 1.04 2.374 2.322S9.75 7.456 8.44 7.456z" transform="translate(-143 -136) translate(143 133) translate(0 35.99) translate(54 7)"/>
                            </g>
                            <path fill="url(#20okmi9jjf)" d="M9.235 39.472l1.007-1c.272-.271.666-.406 1.06-.366.83.108 1.524-.595 1.415-1.407-.054-.392.082-.77.367-1.055l1.007-1c.353-.353.925-.353 1.278 0 .354.35.925.35 1.279 0l.72-.718c.354-.351.354-.92 0-1.271-.353-.352-.353-.92 0-1.272l1.932-1.92c.353-.352.925-.352 1.278 0 .354.35.925.35 1.279 0l3.264-3.247-7.236-7.197L1.428 35.401C.775 36.05.381 36.916.326 37.836l-.244 4.071c-.068 1.15.884 2.11 2.04 2.03l4.094-.244c.925-.054 1.795-.447 2.448-1.096l.571-.568c.354-.352.354-.92 0-1.272-.354-.365-.354-.933 0-1.285z" transform="translate(-143 -136) translate(143 133) translate(0 35.99)"/>
                            <path fill="url(#vx8iv1guyg)" d="M22.673 23.754L5.576 40.757c-.639.636-1.673.636-2.312 0-.639-.635-.639-1.663 0-2.3l17.097-17.003 2.312 2.3z" transform="translate(-143 -136) translate(143 133) translate(0 35.99)"/>
                            <path fill="url(#x6hrfhf74h)" d="M39.905 4.315c-5.766-5.735-15.124-5.735-20.89 0-5.768 5.736-5.768 15.042 0 20.778 5.766 5.735 15.124 5.735 20.89 0 5.767-5.736 5.767-15.042 0-20.778zm-9.439 9.388c-1.632-1.623-1.632-4.261 0-5.884 1.632-1.624 4.285-1.624 5.917 0 1.632 1.623 1.632 4.26 0 5.884-1.632 1.623-4.285 1.623-5.917 0z" transform="translate(-143 -136) translate(143 133) translate(0 35.99)"/>
                            <path fill="url(#vk2nm2guei)" d="M38.083 6.141c-4.76-4.734-12.472-4.734-17.233 0-4.76 4.735-4.76 12.405 0 17.14 4.76 4.734 12.473 4.734 17.233 0 4.76-4.735 4.76-12.419 0-17.14zm-7.617 7.562c-1.632-1.623-1.632-4.261 0-5.884 1.632-1.624 4.285-1.624 5.917 0 1.632 1.623 1.632 4.26 0 5.884-1.632 1.623-4.285 1.623-5.917 0z" transform="translate(-143 -136) translate(143 133) translate(0 35.99)"/>
                        </g>
                        <path fill="url(#lmsfw6dzkj)" d="M34.604 19.403c.655-.182 1.218-2.082 1.887-2.187 1.731-.273 3.596 1.468 5.327 1.715.473-4.514 4.292-8.033 8.944-8.033 4.961 0 8.993 4.024 8.993 8.978 0 3.47-1.991 6.501-4.897 7.984-1.224.635-2.627.994-4.096.994-1.012 0-1.975-.163-2.873-.473-1.06-.358-2.024-.912-2.872-1.613-.89-.157.207 2.084-.644 2.402-.649.243-3.273-1.539-3.796-1.017-.463.463.626 2.648.381 3.214-.187.431-1.753-.772-1.817-.314 2.154 2.25 4.962 3.862 8.112 4.563 1.126.244 2.3.375 3.509.375 2.203 0 4.325-.44 6.234-1.255 5.827-2.444 9.907-8.196 9.907-14.877 0-8.88-7.246-16.114-16.158-16.114-8.748 0-15.896 6.973-16.141 15.658z" transform="translate(-143 -136) translate(143 133) rotate(-105 50.754 19.868)"/>
                        <path fill="url(#4az0t46hak)" d="M50.976 7.724c-6.496 0-11.51 3.874-12.065 10.228.574-.032.593.943 1.092 1.243.494.298 2.025-.045 2.585.036.474-4.514 3.737-8.069 8.388-8.069 4.962 0 8.993 4.025 8.993 8.978 0 3.471-2.535 6.561-5.44 8.044-1.224.635-2.6.613-4.07.613-1.011 0-1.195-.996-2.093-1.306-1.06-.358-1.537-.42-2.386-1.12-.78-.142-.695.94-1.671 1.358-.976.418-2.501-.138-2.979.216 2.285 2.803 5.762 4.595 9.663 4.595 6.838-.016 12.404-5.572 12.404-12.416s-5.566-12.4-12.42-12.4z" transform="translate(-143 -136) translate(143 133) rotate(-105 51.154 20.132)"/>
                    </g>
                </g>
            </g>
        </g>
    </g>
</svg>
