<svg xmlns="http://www.w3.org/2000/svg" xmlns:xlink="http://www.w3.org/1999/xlink" width="40" height="40" viewBox="0 0 40 40">
    <defs>
        <filter id="hk867xdt7a" width="184.6%" height="184.6%" x="-42.3%" y="-34.6%" filterUnits="objectBoundingBox">
            <feMorphology in="SourceAlpha" operator="dilate" radius="1.5" result="shadowSpreadOuter1"/>
            <feOffset dy="2" in="shadowSpreadOuter1" result="shadowOffsetOuter1"/>
            <feGaussianBlur in="shadowOffsetOuter1" result="shadowBlurOuter1" stdDeviation="2.5"/>
            <feComposite in="shadowBlurOuter1" in2="SourceAlpha" operator="out" result="shadowBlurOuter1"/>
            <feColorMatrix in="shadowBlurOuter1" values="0 0 0 0 0 0 0 0 0 0 0 0 0 0 0 0 0 0 0.342872509 0"/>
        </filter>
        <circle id="ah8voke3gb" cx="13" cy="13" r="13"/>
    </defs>
    <g fill="none" fill-rule="evenodd">
        <g>
            <g>
                <g transform="translate(-203 -213) translate(210 218)">
                    <use fill="#000" filter="url(#hk867xdt7a)" xlink:href="#ah8voke3gb"/>
                    <circle cx="13" cy="13" r="13.5" fill="#FFC7CE" stroke="#3D17C9"/>
                </g>
                <g fill="#3D16C9" transform="translate(-203 -213) translate(210 218) translate(5.417 5.417)">
                    <circle cx="7.583" cy="7.583" r="2.311"/>
                    <path d="M5.417.361L4.095 1.806h-2.29c-.794 0-1.444.65-1.444 1.444v8.667c0 .794.65 1.444 1.445 1.444H13.36c.795 0 1.445-.65 1.445-1.444V3.25c0-.794-.65-1.444-1.445-1.444h-2.29L9.75.36H5.417zm2.166 10.833c-1.993 0-3.61-1.617-3.61-3.61 0-1.994 1.617-3.612 3.61-3.612 1.994 0 3.611 1.618 3.611 3.611 0 1.994-1.617 3.611-3.61 3.611z"/>
                </g>
            </g>
        </g>
    </g>
</svg>
