<svg xmlns="http://www.w3.org/2000/svg" xmlns:xlink="http://www.w3.org/1999/xlink" width="80" height="86" viewBox="0 0 80 86">
    <defs>
        <path id="jf3qk6pina" d="M0 0L0 72.966 72.866 72.966 72.866 0 0 0z"/>
        <path id="kmek26hj7c" d="M0 86L79.924 86 79.924 0 0 0z"/>
    </defs>
    <g fill="none" fill-rule="evenodd">
        <g>
            <g transform="translate(-146 -156) translate(146 156)">
                <g>
                    <mask id="h35xa5d5zb" fill="#fff">
                        <use xlink:href="#jf3qk6pina"/>
                    </mask>
                    <path fill="#FACBDA" d="M71.51 31.514L31.47 71.608c-1.81 1.811-4.743 1.811-6.552 0L1.357 48.014c-1.81-1.812-1.81-4.75 0-6.561L41.395 1.359c1.81-1.812 4.744-1.812 6.553 0l23.561 23.594c1.81 1.811 1.81 4.75 0 6.56" mask="url(#h35xa5d5zb)"/>
                </g>
                <path fill="#D88DA7" d="M71.51 24.952l-2.94-2.944c1.61 1.613 1.45 4.39-.36 6.202L28.17 68.304c-1.808 1.812-4.581 1.972-6.192.36l2.94 2.944c1.81 1.811 4.743 1.811 6.553 0l40.038-40.094c1.81-1.812 1.81-4.75 0-6.562"/>
                <path fill="#4C264B" d="M9.056 46.364c-.323 0-.644-.123-.89-.37-.491-.492-.491-1.289 0-1.78l19.612-19.64c.491-.491 1.288-.491 1.779 0 .491.493.491 1.29 0 1.782L9.945 45.996c-.246.245-.568.368-.89.368M15.288 52.605c-.322 0-.644-.123-.89-.37-.49-.492-.49-1.289 0-1.78l19.612-19.64c.492-.491 1.288-.491 1.78 0 .49.493.49 1.29 0 1.782L16.176 52.236c-.245.246-.567.369-.889.369"/>
                <path fill="#6155FF" d="M40.741 10.497l-3.923 3.929c-1.542 1.544-1.542 4.048 0 5.592 1.542 1.545 4.043 1.545 5.586 0l3.923-3.928c1.542-1.544 1.542-4.048 0-5.593-1.543-1.544-4.044-1.544-5.586 0"/>
                <path fill="#D2D2FF" d="M75.29 43.354H18.666c-2.559 0-4.633 2.078-4.633 4.64V81.36c0 2.562 2.074 4.639 4.633 4.639H75.29c2.56 0 4.633-2.077 4.633-4.64V47.995c0-2.562-2.074-4.64-4.633-4.64"/>
                <path fill="#B2B2F7" d="M75.29 43.354h-4.147c2.559 0 4.633 2.078 4.633 4.64V81.36c0 2.562-2.074 4.639-4.633 4.639h4.147c2.56 0 4.633-2.077 4.633-4.64V47.995c0-2.562-2.074-4.64-4.633-4.64"/>
                <mask id="7mpyn1jnsd" fill="#fff">
                    <use xlink:href="#kmek26hj7c"/>
                </mask>
                <path fill="#6155FF" d="M14.033 61.853L79.924 61.853 79.924 53.837 14.033 53.837z" mask="url(#7mpyn1jnsd)"/>
                <path fill="#3A3AFC" d="M75.776 61.853L79.923 61.853 79.923 53.837 75.776 53.837z" mask="url(#7mpyn1jnsd)"/>
                <path fill="#9F9FFF" d="M63.729 74.66v4.945c0 .382.31.692.691.692h7.853c.382 0 .691-.31.691-.692V74.66c0-.383-.309-.692-.69-.692H64.42c-.382 0-.691.31-.691.692M40.052 74.66v4.945c0 .382.31.692.69.692h16.61c.383 0 .692-.31.692-.692V74.66c0-.383-.31-.692-.691-.692h-16.61c-.382 0-.691.31-.691.692" mask="url(#7mpyn1jnsd)"/>
                <path fill="#3A3AFC" d="M33.281 81.557h-8.275c-.695 0-1.258-.565-1.258-1.26 0-.696.563-1.26 1.258-1.26h8.275c.695 0 1.258.564 1.258 1.26 0 .695-.563 1.26-1.258 1.26" mask="url(#7mpyn1jnsd)"/>
            </g>
        </g>
    </g>
</svg>
