<svg xmlns="http://www.w3.org/2000/svg" width="81" height="78" viewBox="0 0 81 78">
    <g fill="none" fill-rule="evenodd">
        <g>
            <g>
                <g>
                    <g>
                        <path fill="#7954FF" d="M15.53 10.466c1.074-.49 2.107-1.02 3.006-1.674 3.27-2.377 5.518-7.013 9.446-8.287 3.79-1.23 8.318 1.16 12.518 1.16 4.2 0 8.728-2.39 12.518-1.16 3.928 1.274 6.176 5.91 9.446 8.287 3.302 2.401 8.4 3.122 10.803 6.42 2.38 3.267 1.505 8.323 2.78 12.247C77.279 31.246 81 34.804 81 39c0 4.196-3.722 7.754-4.952 11.54-1.276 3.925-.401 8.98-2.781 12.247-2.403 3.3-7.502 4.02-10.803 6.42-3.27 2.378-5.518 7.014-9.446 8.288-3.79 1.23-8.318-1.16-12.518-1.16-4.2 0-8.728 2.39-12.518 1.16-3.928-1.274-6.176-5.91-9.446-8.287-3.302-2.401-8.4-3.122-10.803-6.42-2.38-3.267-1.505-8.323-2.78-12.247C3.722 46.754 0 43.196 0 39c0-4.196 3.722-7.754 4.952-11.54 1.276-3.925.402-8.98 2.781-12.247.758-1.04 1.785-1.825 2.938-2.486" transform="translate(-147 -264) translate(147 264)"/>
                        <path fill="#F4F1FF" d="M73.331 39c0 3.402-3.017 6.286-4.014 9.355-1.034 3.182-.326 7.28-2.254 9.928-1.948 2.675-6.081 3.259-8.758 5.205-2.65 1.927-4.473 5.685-7.657 6.718-3.072.997-6.743-.94-10.148-.94-3.404 0-7.076 1.937-10.148.94-3.184-1.033-5.006-4.79-7.657-6.718-2.676-1.946-6.81-2.53-8.757-5.205-1.93-2.648-1.22-6.746-2.254-9.927-.998-3.07-4.015-5.954-4.015-9.356s3.017-6.286 4.015-9.355c1.033-3.182.325-7.28 2.254-9.928 1.948-2.674 6.08-3.258 8.757-5.205 2.65-1.927 4.473-5.685 7.657-6.718 3.072-.997 6.744.94 10.148.94 3.405 0 7.076-1.937 10.148-.94 3.184 1.033 5.006 4.79 7.657 6.718 2.677 1.946 6.81 2.53 8.758 5.205 1.929 2.648 1.22 6.746 2.254 9.928.997 3.07 4.014 5.953 4.014 9.355z" transform="translate(-147 -264) translate(147 264)"/>
                        <path fill="#3B14CA" d="M73.267 15.213c-2.403-3.3-7.502-4.02-10.803-6.42-3.27-2.378-5.518-7.014-9.446-8.288-1.604-.52-3.341-.392-5.13-.07.08.022.161.044.24.07 3.929 1.274 6.177 5.91 9.446 8.287 3.302 2.401 8.4 3.122 10.804 6.42 2.379 3.267 1.505 8.323 2.78 12.247 1.23 3.787 4.953 7.345 4.953 11.541 0 4.196-3.722 7.754-4.953 11.54-1.275 3.925-.4 8.98-2.78 12.247-2.403 3.3-7.502 4.02-10.804 6.42-3.27 2.378-5.517 7.014-9.445 8.288-.08.026-.16.048-.24.07 1.787.322 3.525.45 5.13-.07 3.927-1.274 6.175-5.91 9.445-8.287 3.302-2.401 8.4-3.122 10.803-6.42 2.38-3.267 1.505-8.323 2.78-12.247C77.279 46.754 81 43.196 81 39c0-4.196-3.722-7.754-4.952-11.54-1.276-3.925-.401-8.98-2.781-12.247z" transform="translate(-147 -264) translate(147 264)"/>
                        <path fill="#E7E1FF" d="M69.317 29.645c-1.034-3.182-.326-7.28-2.254-9.928-1.948-2.674-6.081-3.259-8.758-5.205-2.65-1.927-4.473-5.685-7.657-6.718-1.474-.478-3.085-.28-4.739.054 3.091 1.1 4.898 4.768 7.506 6.664 2.677 1.947 6.81 2.53 8.758 5.205 1.93 2.648 1.22 6.746 2.254 9.928.998 3.07 4.015 5.953 4.015 9.355s-3.017 6.286-4.015 9.355c-1.034 3.182-.325 7.28-2.254 9.928-1.948 2.674-6.08 3.259-8.757 5.205-2.608 1.896-4.416 5.563-7.506 6.664 1.653.335 3.264.532 4.738.054 3.184-1.033 5.006-4.79 7.657-6.718 2.677-1.946 6.81-2.53 8.758-5.205 1.928-2.648 1.22-6.746 2.254-9.928.997-3.07 4.014-5.953 4.014-9.355s-3.017-6.286-4.014-9.355z" transform="translate(-147 -264) translate(147 264)"/>
                        <path fill="#FFC0C9" d="M32.16 52.124l-6.067-7.295c-.916-1.101-.765-2.735.337-3.65l1.7-1.413c1.103-.915 2.738-.764 3.654.337l3.057 3.675c.73.878 2.065.923 2.853.097l15.629-15.236c.988-1.037 2.63-1.077 3.668-.09l1.601 1.525c1.038.988 1.078 2.629.09 3.665L39.802 52.383c-2.112 2.215-5.685 2.094-7.642-.259z" transform="translate(-147 -264) translate(147 264)"/>
                        <path fill="#FF8797" d="M56.99 28.55c-1.037-.988-2.679-.948-3.667.089l-.557.543.937.892c1.038.988 1.077 2.629.09 3.665L34.913 52.383c-.38.398-.807.719-1.263.967 1.966 1.067 4.504.761 6.152-.967l18.879-18.644c.988-1.037.948-2.677-.09-3.665l-1.601-1.524z" transform="translate(-147 -264) translate(147 264)"/>
                    </g>
                </g>
            </g>
        </g>
    </g>
</svg>
