<svg xmlns="http://www.w3.org/2000/svg" xmlns:xlink="http://www.w3.org/1999/xlink" width="73" height="90" viewBox="0 0 73 90">
    <defs>
        <filter id="a4gogdwmlb" width="106.6%" height="106.6%" x="-3.3%" y="-3.3%" filterUnits="objectBoundingBox">
            <feGaussianBlur in="SourceAlpha" result="shadowBlurInner1" stdDeviation="1.5"/>
            <feOffset dy="1" in="shadowBlurInner1" result="shadowOffsetInner1"/>
            <feComposite in="shadowOffsetInner1" in2="SourceAlpha" k2="-1" k3="1" operator="arithmetic" result="shadowInnerInner1"/>
            <feColorMatrix in="shadowInnerInner1" values="0 0 0 0 0 0 0 0 0 0 0 0 0 0 0 0 0 0 0.5 0"/>
        </filter>
        <path id="lqiklf4bba" d="M41.5 22.741c-16.824 0-30.512 13.654-30.512 30.436S24.676 83.613 41.5 83.613c16.824 0 30.512-13.653 30.512-30.436 0-16.782-13.688-30.436-30.512-30.436zm15.054 53.745l-.619-1.068c-.373-.646-1.201-.867-1.848-.494-.648.372-.87 1.198-.496 1.844l.62 1.072c-3.433 1.768-7.282 2.844-11.358 3.04v-1.242c0-.746-.606-1.35-1.353-1.35s-1.353.604-1.353 1.35v1.242c-4.076-.196-7.925-1.272-11.359-3.04l.62-1.072c.375-.646.153-1.472-.495-1.844-.647-.373-1.475-.152-1.848.494l-.619 1.068c-3.325-2.144-6.164-4.976-8.313-8.292l1.07-.617c.648-.373.87-1.199.496-1.844-.374-.646-1.201-.867-1.849-.495l-1.075.62c-1.772-3.426-2.85-7.265-3.047-11.33h1.245c.748 0 1.354-.605 1.354-1.35 0-.746-.606-1.35-1.354-1.35h-1.245c.197-4.067 1.275-7.905 3.047-11.33l1.075.618c.648.373 1.476.152 1.85-.494.373-.646.151-1.471-.496-1.844l-1.071-.617c2.15-3.316 4.988-6.148 8.313-8.292l.619 1.068c.373.646 1.201.867 1.848.494.648-.373.87-1.198.496-1.844l-.62-1.072c3.433-1.769 7.282-2.844 11.358-3.04v1.242c0 .746.606 1.35 1.353 1.35s1.353-.604 1.353-1.35v-1.242c4.076.196 7.925 1.271 11.359 3.04l-.62 1.072c-.375.646-.153 1.471.495 1.844.647.373 1.475.152 1.848-.494l.619-1.068c3.325 2.144 6.164 4.976 8.313 8.292l-1.07.617c-.648.373-.87 1.198-.496 1.844.374.646 1.202.867 1.849.494l1.075-.619c1.772 3.426 2.85 7.264 3.047 11.33h-1.245c-.748 0-1.354.605-1.354 1.35 0 .746.606 1.35 1.354 1.35h1.245c-.197 4.066-1.275 7.905-3.047 11.33l-1.075-.619c-.648-.373-1.476-.151-1.85.495-.373.645-.151 1.471.496 1.844l1.071.617c-2.15 3.316-4.988 6.148-8.313 8.292z"/>
    </defs>
    <g fill="none" fill-rule="evenodd">
        <g>
            <g transform="translate(-151 -254) translate(136 254)">
                <ellipse cx="51.49" cy="53.176" fill="#7954FF" rx="36.371" ry="36.281" transform="rotate(-45 51.49 53.176)"/>
                <g transform="translate(10)">
                    <path fill="#7954FF" d="M22.652 13.963c-.414-.715-1.33-.96-2.048-.548l-3.863 2.225c-.717.413-.963 1.328-.549 2.043l3.663 6.33.614.078 5.803-3.348v-.526l-3.62-6.254z"/>
                    <path fill="#3B14CA" d="M19.556 15.67c-.288-.495-.321-1.067-.143-1.568L16.74 15.64c-.717.413-.963 1.327-.549 2.042l3.663 6.33.614.079 2.969-1.713-3.882-6.708z"/>
                    <path fill="#7954FF" d="M44.823 7.1L38.124 7.1 37.77 7.441 37.77 17.08 38.079 17.473 44.665 17.473 45.23 17.08 45.23 7.441z"/>
                    <path fill="#3B14CA" d="M41.5 7.441L41.854 7.1 38.124 7.1 37.77 7.441 37.77 17.08 38.079 17.473 41.808 17.473 41.5 17.08z"/>
                    <path fill="#A58DFF" d="M11.157 53.177c0-19.026 14.681-34.63 33.36-36.16-.995-.082-2-.126-3.017-.126-20.09 0-36.377 16.246-36.377 36.286 0 20.04 16.287 36.286 36.377 36.286 1.016 0 2.022-.043 3.017-.125-18.679-1.53-33.36-17.134-33.36-36.16z"/>
                    <ellipse cx="41.49" cy="53.176" fill="#F4FBFF" rx="29.154" ry="29.081" transform="rotate(-45 41.49 53.176)"/>
                    <path fill="#E4F6FF" d="M20.552 53.177c0-14.648 10.913-26.8 25.053-28.796-1.341-.19-2.712-.29-4.105-.29-16.078 0-29.158 13.048-29.158 29.086 0 16.038 13.08 29.086 29.158 29.086 1.393 0 2.764-.1 4.105-.29-14.14-1.996-25.053-14.148-25.053-28.796z"/>
                    <path fill="#7954FF" d="M49.143 0H33.857c-.895 0-1.62.724-1.62 1.617v4.207c0 .893.725 1.617 1.62 1.617h15.286c.895 0 1.62-.724 1.62-1.617V1.617c0-.893-.725-1.617-1.62-1.617z"/>
                    <path fill="#3B14CA" d="M39.154 5.824V1.617C39.154.724 39.88 0 40.775 0h-6.917c-.896 0-1.621.724-1.621 1.617v4.207c0 .893.725 1.617 1.62 1.617h6.918c-.895 0-1.62-.724-1.62-1.617z"/>
                    <path fill="#FFC0C9" d="M41.5 24.091v23.067l.414.557 4.285 3.33h15.565l2.39 1.485.558.647h5.947c0-16.038-13.081-29.086-29.159-29.086z"/>
                    <path fill="#FF8797" d="M47.316 24.673c-1.88-.38-3.825-.582-5.816-.582v23.067l.414.557 4.285 3.33h1.117V24.673z"/>
                    <path fill="#AD96FF" d="M36.11 50.477h-4.873c-1.495 0-2.707 1.209-2.707 2.7s1.212 2.7 2.707 2.7h4.873l.27-.572v-4.35l-.27-.478zM62.005 50.477H46.89l-.465.358v4.17l.465.872h15.115c1.495 0 2.707-1.209 2.707-2.7s-1.212-2.7-2.707-2.7z"/>
                    <path fill="#805CFF" d="M31.237 53.177c-1.001 0-1.874-.544-2.342-1.35-.23.398-.365.858-.365 1.35 0 1.491 1.212 2.7 2.707 2.7h4.873l.27-.572v-2.7l-.27.572h-4.873zM62.005 53.177H46.89l-.465-.872v2.7l.465.872h15.115c1.495 0 2.707-1.209 2.707-2.7 0-.492-.135-.952-.365-1.35-.469.806-1.341 1.35-2.342 1.35z"/>
                    <g>
                        <use fill="#3B14CA" xlink:href="#lqiklf4bba"/>
                        <use fill="#000" filter="url(#a4gogdwmlb)" xlink:href="#lqiklf4bba"/>
                    </g>
                    <ellipse cx="41.521" cy="53.189" fill="#AD96FF" rx="6.035" ry="6.02" transform="rotate(-67.486 41.52 53.189)"/>
                    <path fill="#805CFF" d="M39.707 53.177c0-2.575 1.63-4.776 3.913-5.634-.66-.248-1.374-.385-2.12-.385-3.327 0-6.034 2.7-6.034 6.02 0 3.318 2.707 6.018 6.034 6.018.746 0 1.46-.136 2.12-.384-2.284-.859-3.913-3.06-3.913-5.635z"/>
                </g>
            </g>
        </g>
    </g>
</svg>
