<svg xmlns="http://www.w3.org/2000/svg" width="75" height="90" viewBox="0 0 75 90">
    <g fill="none" fill-rule="evenodd">
        <g>
            <g>
                <g>
                    <g>
                        <g>
                            <path fill="#CEC1FF" d="M25.923 47.24l6.365-6.178c.132-.128.307-.2.493-.2.185 0 .36.072.492.2l6.365 6.178 25.477-19.51.446-.563L33.35.207c-.328-.276-.808-.276-1.136 0L0 27.166l.447.563 25.476 19.51z" transform="translate(-148 -140) translate(148 140)"/>
                            <g fill="#B5A2FF">
                                <path d="M26.399 12.595l10.876-9.103L33.349.206c-.328-.275-.808-.275-1.136 0L17.41 12.595H26.4zM8.488 20.063L0 27.167 8.488 33.667z" transform="translate(-148 -140) translate(148 140)"/>
                            </g>
                            <path fill="#FFF" d="M25.923 47.24l6.365-6.178c.132-.128.308-.2.493-.2s.36.072.493.2l6.364 6.178 17.436-13.352V14.344c0-.966-.79-1.75-1.763-1.75h-45.06c-.974 0-1.763.784-1.763 1.75v19.544L25.923 47.24z" transform="translate(-148 -140) translate(148 140)"/>
                            <path fill="#EAF6FF" d="M15.862 39.314v-24.97c0-.966.789-1.75 1.762-1.75H10.25c-.973 0-1.762.784-1.762 1.75v19.323l7.374 5.647z" transform="translate(-148 -140) translate(148 140)"/>
                            <path fill="#E4DDFF" d="M65.562 57.752V27.167L32.78 52.27 0 27.167v44.115c0 .483.395.874.881.874h38.6c.098-9.321 7.767-16.874 17.18-16.874 3.256 0 6.303.903 8.9 2.47z" transform="translate(-148 -140) translate(148 140)"/>
                            <path fill="#CEC1FF" d="M7.226 71.282V32.7L0 27.167v44.115c0 .483.395.874.881.874h7.226c-.487 0-.881-.391-.881-.874z" transform="translate(-148 -140) translate(148 140)"/>
                            <path fill="#B5A2FF" d="M49.689 56.75L33.397 40.937c-.343-.332-.89-.332-1.232 0L.26 71.903c.16.156.378.253.62.253h38.6c.072-6.864 4.25-12.77 10.208-15.406z" transform="translate(-148 -140) translate(148 140)"/>
                            <path fill="#A58EFE" d="M36.482 43.932l-3.085-2.995c-.343-.332-.89-.332-1.232 0L.26 71.903c.16.156.378.253.62.253h7.402c-.241 0-.46-.096-.62-.253l28.819-27.971z" transform="translate(-148 -140) translate(148 140)"/>
                            <g fill="#4B2DBF">
                                <path d="M22.503 2.792H1.466c-.73 0-1.322-.587-1.322-1.312C.144.755.736.168 1.466.168h21.037c.73 0 1.321.587 1.321 1.312 0 .725-.591 1.312-1.321 1.312zM22.503 9.09H1.466c-.73 0-1.322-.587-1.322-1.312 0-.725.592-1.312 1.322-1.312h21.037c.73 0 1.321.587 1.321 1.312 0 .725-.591 1.312-1.321 1.312zM22.503 15.388H1.466c-.73 0-1.322-.588-1.322-1.312 0-.725.592-1.312 1.322-1.312h21.037c.73 0 1.321.587 1.321 1.312 0 .724-.591 1.312-1.321 1.312z" transform="translate(-148 -140) translate(148 140) translate(20.796 21.168)"/>
                            </g>
                        </g>
                        <g transform="translate(-148 -140) translate(148 140) translate(39.302 55.107)">
                            <ellipse cx="17.36" cy="17.232" fill="#FFC7CE" rx="17.36" ry="17.232"/>
                            <path fill="#FF8594" d="M10.26 26.7c-2.909-2.154-4.796-5.597-4.796-9.468 0-3.872 1.887-7.314 4.796-9.469 2.454-3.695 6.3-6.4 10.8-7.37C19.869.138 18.63 0 17.36 0 7.772 0 0 7.715 0 17.232s7.772 17.232 17.36 17.232c1.27 0 2.508-.137 3.7-.394-4.5-.97-8.346-3.674-10.8-7.37z"/>
                            <path fill="#341D8D" d="M17.552 5.424h-.192c-6.56 0-11.896 5.297-11.896 11.808 0 6.51 5.336 11.808 11.896 11.808h5.76c.73 0 1.322-.588 1.322-1.312 0-.725-.592-1.312-1.322-1.312h-5.76c-5.102 0-9.252-4.12-9.252-9.184 0-5.064 4.15-9.184 9.252-9.184h.192c4.996 0 9.06 4.034 9.06 8.993v1.944c0 1.15-.944 2.087-2.103 2.087h-.637V12.08c0-.724-.592-1.312-1.322-1.312-.715 0-1.297.565-1.32 1.27-1.082-.797-2.422-1.27-3.87-1.27-3.591 0-6.513 2.9-6.513 6.465 0 3.564 2.922 6.464 6.513 6.464h7.149c2.617 0 4.746-2.113 4.746-4.711V17.04c0-6.406-5.25-11.617-11.703-11.617zm3.677 15.648h-3.87c-2.132 0-3.868-1.723-3.868-3.84 0-2.118 1.736-3.84 3.869-3.84s3.869 1.722 3.869 3.84v3.84z"/>
                        </g>
                    </g>
                </g>
            </g>
        </g>
    </g>
</svg>
