<?xml version="1.0" encoding="UTF-8"?>
<svg width="21px" height="18px" viewBox="0 0 21 18" version="1.1" xmlns="http://www.w3.org/2000/svg" xmlns:xlink="http://www.w3.org/1999/xlink">
    <title>Group 5</title>
    <g id="Page-1" stroke="none" stroke-width="1" fill="none" fill-rule="evenodd">
        <g id="06-profile" transform="translate(-329.000000, -69.000000)" fill="#FEE1E5">
            <g id="Group-5" transform="translate(329.000000, 69.111111)">
                <path d="M21,5.25666667 L21,14.7777778 C21,15.9388889 20.055,16.8888889 18.9,16.8888889 L2.1,16.8888889 C0.945,16.8888889 0,15.9388889 0,14.7777778 L0.0105,2.11111111 C0.0105,0.95 0.945,8.08242362e-13 2.1,8.08242362e-13 L12.705,8.08242362e-13 C12.642,0.337777778 12.6,0.696666667 12.6,1.05555556 C12.6,1.41444444 12.642,1.77333333 12.705,2.11111111 L2.1,2.11111111 L10.5,7.38888889 L14.3535,4.97166667 C14.847,5.42555556 15.4245,5.77388889 16.065,6.00611111 C16.065,6.00611111 15.2053524,6.54582598 14.6600566,6.8881805 C14.6064225,6.92185373 14.5558295,6.95361765 14.5093948,6.9827709 C13.1729299,7.82184727 10.5,9.5 10.5,9.5 L2.1,4.22222222 L2.1,14.7777778 L18.9,14.7777778 L18.9,6.22777778 C19.350415,6.13599437 19.7796598,5.98036444 20.1795532,5.7752811 C20.4695061,5.62658013 20.744028,5.45187978 21,5.25666667 Z" id="Shape"></path>
                <path d="M10.2076422,0 L21,0 L21,10.4523992 L18.9337219,10.4523992 L18.8183918,2.11260556 C15.9865853,2.11260556 13.1163354,2.11260556 10.2076422,2.11260556 L10.2076422,0 Z" id="Path-3"></path>
                <polygon id="Path-4" points="10.5 7.38888889 19.1042716 1.99091266 20.4241074 3.27394217 11.340829 8.93863475"></polygon>
            </g>
        </g>
    </g>
</svg>