<?xml version="1.0" encoding="UTF-8"?>
<svg width="80px" height="81px" viewBox="0 0 80 81" version="1.1" xmlns="http://www.w3.org/2000/svg" xmlns:xlink="http://www.w3.org/1999/xlink">
    <title>Page 1</title>
    <defs>
        <polygon id="path-1" points="0 0.0326005957 0 59.3002296 54.033259 59.3002296 54.033259 0.0326005957"></polygon>
        <polygon id="path-3" points="0 81 79.9959715 81 79.9959715 4.0500001e-05 0 4.0500001e-05"></polygon>
    </defs>
    <g id="Page-1" stroke="none" stroke-width="1" fill="none" fill-rule="evenodd">
        <g id="03.6-create-payout-pop-up" transform="translate(-155.000000, -251.000000)">
            <g id="Page-1" transform="translate(155.000000, 251.000000)">
                <g id="Group-3" transform="translate(0.000000, 20.209500)">
                    <mask id="mask-2" fill="white">
                        <use xlink:href="#path-1"></use>
                    </mask>
                    <g id="Clip-2"></g>
                    <path d="M40.5620183,13.4396901 C30.0527202,2.9812536 18.5292208,-2.5070634 14.8222828,1.1810691 C14.415528,1.6051446 14.1162401,2.1194541 13.949119,2.6816751 L13.8894649,2.6223021 L10.3493225,17.0616861 L6.82407325,31.4578566 L2.64527365,48.5044281 L-1.62767037e-05,59.3002296 L15.661591,53.4016881 L35.5819166,45.8999541 L51.474002,39.9150261 L51.4550397,39.8961126 C51.9870437,39.7272681 52.4737986,39.4408521 52.8786816,39.0580866 C56.5856195,35.3686581 51.0713164,23.8994631 40.5620183,13.4396901" id="Fill-1" fill="#511CDD" mask="url(#mask-2)"></path>
                </g>
                <path d="M27.1396989,47.0039841 C16.6308077,36.5446161 11.1163011,25.0750971 14.8227508,21.3861141 C18.5292004,17.6971311 30.0530254,23.1856101 40.5619573,33.6449781 C51.0708484,44.1043866 56.5853143,55.5739056 52.8788647,59.2628886 C49.1724151,62.9518716 37.64859,57.4633521 27.1396989,47.0039841" id="Fill-4" fill="#D1E3EE"></path>
                <path d="M50.0313733,60.5914465 C48.1338352,60.6244945 46.2512309,60.252745 44.5102747,59.501065 L31.5211394,64.392898 L11.5939776,71.887909 L0.90844354,75.9120295 L0,79.619035 L15.6615666,73.7204935 L35.5819329,66.2187595 L50.1669583,60.7263925 L50.0313733,60.5914465 Z" id="Fill-6" fill="#421DB2"></path>
                <path d="M66.4373184,49.9305951 C66.2749583,49.9301091 66.113941,49.9012326 65.9613876,49.8455856 C59.0782136,47.2790601 51.6377253,46.5594561 44.3869013,47.7593091 L39.5437681,48.5622216 C38.8024456,48.6674811 38.1156907,48.1547106 38.0099329,47.4168411 C37.9077558,46.7040006 38.3858433,46.0368441 39.0963215,45.9010476 L43.9408383,45.0913716 C51.6614486,43.8146091 59.5836053,44.5802616 66.9132085,47.3112576 C67.6179491,47.5632891 67.9838494,48.3361911 67.7306246,49.0375701 C67.53506,49.5793791 67.0157518,49.9380066 66.4373184,49.9305951" id="Fill-8" fill="#FF78A5"></path>
                <path d="M42.0317762,41.8337501 C41.2830071,41.8293761 40.6794669,41.2215926 40.6838616,40.4763521 C40.6869135,39.9618806 40.9835158,39.4939436 41.4487447,39.2697356 L69.9219084,25.7750141 C70.5981241,25.4544971 71.4072391,25.7402651 71.7292737,26.4132941 C72.0512675,27.0863636 71.7641872,27.8916656 71.0879308,28.2121421 L42.6148077,41.7069041 C42.4324273,41.7917516 42.2332818,41.8350866 42.0317762,41.8337501" id="Fill-10" fill="#FF78A5"></path>
                <path d="M26.1763052,39.1348057 C25.9975056,39.1351297 25.8203744,39.0998947 25.6556541,39.0308827 C24.9645046,38.7439402 24.6379125,37.9538257 24.9262136,37.2659332 L24.9262136,37.2657712 L26.8976073,32.5574842 C29.9308525,25.3436647 30.638116,17.3703082 28.921941,9.73921725 C28.7459898,9.01471275 29.1935992,8.28563175 29.9213713,8.11055025 C30.6493062,7.93546875 31.3817986,8.38096875 31.5577091,9.10531125 C31.5616155,9.12130875 31.5651963,9.13734675 31.5685738,9.15354675 C33.4071089,17.3281477 32.6490214,25.8693142 29.399174,33.5965522 L27.4263967,38.3048797 C27.2158983,38.8070392 26.7230397,39.1342792 26.1763052,39.1348057" id="Fill-12" fill="#FF78A5"></path>
                <path d="M73.2166348,49.9305951 C74.714295,49.9305951 75.9283744,51.1389531 75.9283744,52.6295556 C75.9283744,54.1201176 74.714295,55.3284756 73.2166348,55.3284756 C71.7189746,55.3284756 70.5048952,54.1201176 70.5048952,52.6295556 C70.5048952,51.1389531 71.7189746,49.9305951 73.2166348,49.9305951" id="Fill-14" fill="#D5557E"></path>
                <path d="M40.6759105,12.1453182 C42.1735707,12.1453182 43.3876501,13.3536762 43.3876501,14.8442787 C43.3876501,16.3348407 42.1735707,17.5431987 40.6759105,17.5431987 C39.1782503,17.5431987 37.9641709,16.3348407 37.9641709,14.8442787 C37.9641709,13.3536762 39.1782503,12.1453182 40.6759105,12.1453182" id="Fill-16" fill="#9278F4"></path>
                <path d="M28.4731394,5.39794935 C26.9753978,5.39794935 25.7613998,4.18967235 25.7613998,2.69898885 C25.7613998,1.20834585 26.9753978,6.88500004e-05 28.4731394,6.88500004e-05 C29.970881,6.88500004e-05 31.1848789,1.20834585 31.1848789,2.69898885 C31.1848789,4.18967235 29.9708403,5.39794935 28.4731394,5.39794935" id="Fill-18" fill="#7FCCCB"></path>
                <path d="M66.4373184,10.7958461 C65.6885493,10.7958461 65.081469,10.1916266 65.081469,9.44638605 L65.081469,8.09688555 C65.081469,7.35164505 65.6885493,6.74742555 66.4373184,6.74742555 C67.1860875,6.74742555 67.7931679,7.35164505 67.7931679,8.09688555 L67.7931679,9.44638605 C67.7931679,10.1916266 67.1862503,10.7958461 66.4373184,10.7958461" id="Fill-20" fill="#2276BB"></path>
                <path d="M66.4373184,4.04847315 C65.6885493,4.04847315 65.081469,3.44425365 65.081469,2.69901315 L65.081469,1.34951265 C65.081469,0.60427215 65.6885493,5.26499989e-05 66.4373184,5.26499989e-05 C67.1860875,5.26499989e-05 67.7931679,0.60427215 67.7931679,1.34951265 L67.7931679,2.69901315 C67.7931679,3.44425365 67.1862503,4.04847315 66.4373184,4.04847315" id="Fill-22" fill="#2276BB"></path>
                <path d="M70.5049115,6.7474215 L69.1490621,6.7474215 C68.4002523,6.7474215 67.7931719,6.143202 67.7931719,5.3979615 C67.7931719,4.6526805 68.4002523,4.048461 69.1490621,4.048461 L70.5049115,4.048461 C71.2536806,4.048461 71.8607609,4.6526805 71.8607609,5.3979615 C71.8607609,6.143202 71.2538433,6.7474215 70.5049115,6.7474215" id="Fill-24" fill="#2276BB"></path>
                <path d="M63.725591,6.7474215 L62.3697416,6.7474215 C61.6209725,6.7474215 61.0138515,6.143202 61.0138515,5.3979615 C61.0138515,4.6526805 61.6209725,4.048461 62.3697416,4.048461 L63.725591,4.048461 C64.4743601,4.048461 65.0814405,4.6526805 65.0814405,5.3979615 C65.0814405,6.143202 64.4745229,6.7474215 63.725591,6.7474215" id="Fill-26" fill="#2276BB"></path>
                <path d="M10.7628444,39.1348057 C10.6109827,38.5572352 10.4753978,37.9742377 10.349294,37.3804672 L6.82404476,51.7766782 L7.09521465,55.0680322 C7.68622177,62.0851432 10.7148688,68.6779762 15.6602197,73.7137462 L35.5819288,66.2187352 C35.4734446,66.1849987 35.3609318,66.1607392 35.2524476,66.1242892 C23.1725697,61.6161937 14.0419898,51.5535232 10.7628444,39.1348057" id="Fill-28" fill="#FFFFFF"></path>
                <path d="M35.5819329,66.2187514 C35.4734486,66.1850149 35.3609359,66.1607149 35.2524517,66.1243054 C33.9474262,65.6325544 32.6692167,65.0727229 31.4235198,64.4468764 L13.48,71.2036939 C14.1602848,72.0818959 14.888586,72.9221089 15.6615666,73.7204854 L35.5819329,66.2187514 Z" id="Fill-30" fill="#F6F6E7"></path>
                <mask id="mask-4" fill="white">
                    <use xlink:href="#path-3"></use>
                </mask>
                <g id="Clip-33"></g>
                <polygon id="Fill-32" fill="#F9ACC9" mask="url(#mask-4)" points="50.1384741 22.9411035 56.9462869 22.9411035 56.9462869 16.1653725 50.1384741 16.1653725"></polygon>
                <path d="M32.5407284,40.4842779 C31.7919593,40.4841159 31.1850417,39.8796939 31.1852045,39.1344534 C31.1853672,38.7522144 31.3482564,38.3880384 31.6336684,38.1321594 L45.1922848,25.9868574 C45.7585514,25.4991969 46.6147467,25.5607974 47.1047162,26.1243549 C47.5811353,26.6722389 47.5377579,27.4967784 47.0064456,27.9921744 L33.4477884,40.1374764 C33.198999,40.3606314 32.8757843,40.4841159 32.5407284,40.4842779" id="Fill-34" fill="#FF78A5" mask="url(#mask-4)"></path>
                <path d="M71.8607731,35.0863812 C71.1120041,35.0863812 70.5049237,34.4821617 70.5049237,33.7369212 L70.5049237,32.3874207 C70.5049237,31.6421802 71.1120041,31.0379607 71.8607731,31.0379607 C72.6095422,31.0379607 73.2166226,31.6421802 73.2166226,32.3874207 L73.2166226,33.7369212 C73.2166226,34.4821617 72.609705,35.0863812 71.8607731,35.0863812" id="Fill-35" fill="#AA8FFF" mask="url(#mask-4)"></path>
                <path d="M76.6551129,33.1094021 C76.2953164,33.1104146 75.9500468,32.9680571 75.6964964,32.7140006 L74.7379207,31.7599421 C74.2177579,31.2238436 74.232529,30.3694556 74.7711251,29.8517846 C75.2965371,29.3467091 76.1295381,29.3467091 76.6551129,29.8517846 L77.6136887,30.8058431 C78.1431699,31.3329911 78.1430071,32.1873791 77.6133632,32.7143246 C77.3593245,32.9672066 77.0145839,33.1094021 76.6551129,33.1094021" id="Fill-36" fill="#AA8FFF" mask="url(#mask-4)"></path>
                <path d="M78.6400936,28.3390083 L77.2842442,28.3390083 C76.5354344,28.3390083 75.928354,27.7347888 75.928354,26.9895483 C75.928354,26.2442673 76.5354344,25.6400478 77.2842442,25.6400478 L78.6400936,25.6400478 C79.3888627,25.6400478 79.995943,26.2442673 79.995943,26.9895483 C79.995943,27.7347888 79.3890254,28.3390083 78.6400936,28.3390083" id="Fill-37" fill="#AA8FFF" mask="url(#mask-4)"></path>
                <path d="M75.6965127,24.5227014 C74.9477436,24.5225394 74.340826,23.9183199 74.3409888,23.1728769 C74.3409888,22.8150999 74.4838576,22.4719839 74.7379369,22.2191424 L75.6965127,21.2650839 C76.2351495,20.7472104 77.0933795,20.7620334 77.613705,21.2981319 C78.1211312,21.8210679 78.1211312,22.6501434 77.613705,23.1732414 L76.6551292,24.1272999 C76.4008871,24.3803439 76.0561465,24.5227014 75.6965127,24.5227014" id="Fill-38" fill="#AA8FFF" mask="url(#mask-4)"></path>
                <path d="M71.8607731,22.9411156 C71.1120041,22.9411156 70.5049237,22.3368961 70.5049237,21.5916556 L70.5049237,20.2421551 C70.5049237,19.4969146 71.1120041,18.8926951 71.8607731,18.8926951 C72.6095422,18.8926951 73.2166226,19.4969146 73.2166226,20.2421551 L73.2166226,21.5916556 C73.2166226,22.3368961 72.609705,22.9411156 71.8607731,22.9411156" id="Fill-39" fill="#AA8FFF" mask="url(#mask-4)"></path>
                <path d="M68.0250376,24.5227014 C67.6654039,24.5227014 67.3206633,24.3803439 67.0664619,24.1272999 L66.1078454,23.1732414 C65.5876826,22.6371429 65.6024537,21.7827549 66.1410498,21.2650839 C66.6664619,20.7600084 67.4994629,20.7600084 68.0250376,21.2650839 L68.9836134,22.2191424 C69.5130946,22.7462904 69.5129318,23.6006784 68.9832879,24.1276239 C68.7292492,24.3805059 68.3845086,24.5227014 68.0250376,24.5227014" id="Fill-40" fill="#AA8FFF" mask="url(#mask-4)"></path>
                <polygon id="Fill-41" fill="#AA8FFF" mask="url(#mask-4)" points="6.77931638 1.34952885 8.87412818 5.57473185 13.558645 6.25217535 10.1689807 9.54085635 10.96894 14.1843838 6.77931638 11.9914708 2.58969278 14.1843838 3.38965209 9.54085635 -1.2207528e-05 6.25217535 4.68450458 5.57473185"></polygon>
                <path d="M72.8193693,74.1010275 C72.0956663,75.40614 70.4461038,75.880152 69.1349746,75.1598595 C67.8236826,74.439567 67.3474262,72.797778 68.0711292,71.4928275 C68.0751984,71.485578 68.0792675,71.4781665 68.0833367,71.470917 C68.8834588,70.166979 70.2330417,69.2928675 71.7549949,69.0931215 C71.990763,69.0867225 72.2241302,69.140709 72.4329603,69.249654 C73.577294,69.885261 73.6382909,72.640881 72.8193693,74.1010275 M79.5674873,73.0956555 C78.922645,70.820973 77.437762,68.873166 75.4104171,67.642452 L74.8518006,66.808476 C71.7195931,62.1465615 66.7942625,58.9766265 61.2375992,58.0463415 C60.4962767,57.941082 59.8095219,58.453893 59.703764,59.1916815 C59.6015463,59.9045625 60.0796745,60.571719 60.7901526,60.7075155 C64.7980875,61.3845945 68.4506205,63.411174 71.136765,66.4481475 C68.8783723,66.8524995 66.903235,68.202486 65.7132859,70.155153 C64.2530214,72.7581285 65.1894201,76.046283 67.8047202,77.499666 C70.4200203,78.953049 73.7237436,78.0211035 75.1840081,75.418128 C75.7417701,74.3464575 76.0429298,73.1607795 76.0639674,71.954001 C77.5065717,74.0394675 77.6220142,76.76289 76.3608952,78.9618375 C75.978881,79.602831 76.1912513,80.430732 76.8352798,80.810946 C77.4793082,81.19116 78.3111292,80.979831 78.6931434,80.338797 C78.705351,80.318223 78.7170295,80.297487 78.7282197,80.2762245 C79.9600407,78.090237 80.2622177,75.504636 79.5674873,73.0956555" id="Fill-42" fill="#2BB3CE" mask="url(#mask-4)"></path>
            </g>
        </g>
    </g>
</svg>