<svg xmlns="http://www.w3.org/2000/svg" width="23" height="22" viewBox="0 0 23 22">
    <g fill="none" fill-rule="evenodd">
        <g fill="#3E249D">
            <g>
                <path d="M21.055 15.455c-.288 0-.528.241-.528.531v2.222c0 1.376-1.105 2.487-2.473 2.487h-2.4c-.289 0-.529.242-.529.531 0 .29.24.532.528.532h2.401c1.945 0 3.53-1.594 3.53-3.55v-2.222c0-.29-.241-.531-.529-.531zM18.054 0h-2.4c-.289 0-.529.241-.529.531 0 .29.24.532.528.532h2.401c1.368 0 2.473 1.11 2.473 2.487v2.584c0 .29.24.53.528.53.288 0 .528-.24.528-.53V3.55C21.583 1.594 20 0 18.054 0zM15.317 10.553c.36 0 .648-.29.672-.652V8.162c0-.386-.288-.676-.672-.676-.384 0-.672.314-.672.676v1.715c0 .386.312.676.672.676zM13.967 15.376c-.865.87-2.017 1.353-3.193 1.353h-.193c-1.2 0-2.328-.483-3.193-1.353-.192-.217-.528-.217-.744 0-.216.194-.216.532 0 .749 1.08 1.087 2.473 1.666 3.937 1.666h.193c1.464 0 2.88-.58 3.937-1.666.216-.193.216-.531 0-.749-.192-.217-.528-.217-.744 0zM9.411 13.861h.12c1.08 0 1.945-.87 1.945-1.932V8.26c0-.29-.24-.532-.528-.532-.288 0-.529.242-.529.532v3.646c0 .507-.408.894-.888.894h-.12c-.288 0-.528.241-.528.53 0 .29.24.532.528.532zM5.714 7.486c-.384 0-.672.314-.672.676v1.715c0 .386.312.676.672.676.384 0 .672-.29.672-.652V8.162c0-.386-.312-.676-.672-.676zM.528 6.665c.288 0 .528-.242.528-.531V3.55c0-1.377 1.105-2.487 2.473-2.487H5.93c.288 0 .528-.242.528-.532 0-.29-.24-.531-.528-.531h-2.4C1.584 0 0 1.594 0 3.55v2.584c0 .29.24.53.528.53zM5.93 20.695h-2.4c-1.37 0-2.474-1.11-2.474-2.487v-2.222c0-.29-.24-.531-.528-.531-.288 0-.528.241-.528.531v2.222c0 1.956 1.585 3.55 3.53 3.55h2.4c.312 0 .528-.242.528-.532 0-.29-.24-.53-.528-.53z" transform="translate(-55 -490) translate(55.595 490)"/>
            </g>
        </g>
    </g>
</svg>
