<svg xmlns="http://www.w3.org/2000/svg" width="10" height="16" viewBox="0 0 10 16">
    <g fill="none" fill-rule="evenodd">
        <g fill="#4B24DD">
            <path d="M298.165 611.003l-2.091-.003c-2.35 0-3.868 1.532-3.868 3.902v1.8h-2.103c-.182 0-.33.144-.33.323v2.606c0 .179.148.324.33.324h2.103v6.577c0 .179.147.323.328.323h2.744c.182 0 .329-.144.329-.323v-6.577h2.459c.182 0 .329-.145.329-.324v-2.606c0-.086-.034-.168-.096-.229-.061-.06-.145-.095-.232-.095h-2.46v-1.525c0-.733.178-1.105 1.149-1.105h1.409c.182 0 .329-.145.329-.324v-2.42c0-.179-.147-.323-.329-.324z" transform="translate(-289 -611)"/>
        </g>
    </g>
</svg>
