<svg width="81" height="78" viewBox="0 0 81 78" xmlns="http://www.w3.org/2000/svg">
    <g fill="none" fill-rule="evenodd">
        <path d="M15.53 10.466c1.074-.49 2.107-1.02 3.006-1.674 3.27-2.377 5.518-7.013 9.446-8.287 3.79-1.23 8.318 1.16 12.518 1.16 4.2 0 8.728-2.39 12.518-1.16 3.928 1.274 6.176 5.91 9.446 8.287 3.302 2.401 8.4 3.122 10.803 6.42 2.38 3.267 1.505 8.323 2.78 12.247C77.279 31.246 81 34.804 81 39c0 4.196-3.722 7.754-4.952 11.54-1.276 3.925-.401 8.98-2.781 12.247-2.403 3.3-7.502 4.02-10.803 6.42-3.27 2.378-5.518 7.014-9.446 8.288-3.79 1.23-8.318-1.16-12.518-1.16-4.2 0-8.728 2.39-12.518 1.16-3.928-1.274-6.176-5.91-9.446-8.287-3.302-2.401-8.4-3.122-10.803-6.42-2.38-3.267-1.505-8.323-2.78-12.247C3.722 46.754 0 43.196 0 39c0-4.196 3.722-7.754 4.952-11.54 1.276-3.925.402-8.98 2.781-12.247.758-1.04 1.785-1.825 2.938-2.486" fill="#7954FF"/>
        <path d="M73.331 39c0 3.402-3.017 6.286-4.014 9.355-1.034 3.182-.326 7.28-2.254 9.928-1.948 2.675-6.081 3.259-8.758 5.205-2.65 1.927-4.473 5.685-7.657 6.718-3.072.997-6.743-.94-10.148-.94-3.404 0-7.076 1.937-10.148.94-3.184-1.033-5.006-4.79-7.657-6.718-2.676-1.946-6.81-2.53-8.757-5.205-1.93-2.648-1.22-6.746-2.254-9.927-.998-3.07-4.015-5.954-4.015-9.356s3.017-6.286 4.015-9.355c1.033-3.182.325-7.28 2.254-9.928 1.948-2.674 6.08-3.258 8.757-5.205 2.65-1.927 4.473-5.685 7.657-6.718 3.072-.997 6.744.94 10.148.94 3.405 0 7.076-1.937 10.148-.94 3.184 1.033 5.006 4.79 7.657 6.718 2.677 1.946 6.81 2.53 8.758 5.205 1.929 2.648 1.22 6.746 2.254 9.928.997 3.07 4.014 5.953 4.014 9.355z" fill="#F4F1FF"/>
        <path d="M73.267 15.213c-2.403-3.3-7.502-4.02-10.803-6.42-3.27-2.378-5.518-7.014-9.446-8.288-1.604-.52-3.341-.392-5.13-.07.08.022.161.044.24.07 3.929 1.274 6.177 5.91 9.446 8.287 3.302 2.401 8.4 3.122 10.804 6.42 2.379 3.267 1.505 8.323 2.78 12.247 1.23 3.787 4.953 7.345 4.953 11.541 0 4.196-3.722 7.754-4.953 11.54-1.275 3.925-.4 8.98-2.78 12.247-2.403 3.3-7.502 4.02-10.804 6.42-3.27 2.378-5.517 7.014-9.445 8.288-.08.026-.16.048-.24.07 1.787.322 3.525.45 5.13-.07 3.927-1.274 6.175-5.91 9.445-8.287 3.302-2.401 8.4-3.122 10.803-6.42 2.38-3.267 1.505-8.323 2.78-12.247C77.279 46.754 81 43.196 81 39c0-4.196-3.722-7.754-4.952-11.54-1.276-3.925-.401-8.98-2.781-12.247z" fill="#3B14CA"/>
        <path d="M69.317 29.645c-1.034-3.182-.326-7.28-2.254-9.928-1.948-2.674-6.081-3.259-8.758-5.205-2.65-1.927-4.473-5.685-7.657-6.718-1.474-.478-3.085-.28-4.739.054 3.091 1.1 4.898 4.768 7.506 6.664 2.677 1.947 6.81 2.53 8.758 5.205 1.93 2.648 1.22 6.746 2.254 9.928.998 3.07 4.015 5.953 4.015 9.355s-3.017 6.286-4.015 9.355c-1.034 3.182-.325 7.28-2.254 9.928-1.948 2.674-6.08 3.259-8.757 5.205-2.608 1.896-4.416 5.563-7.506 6.664 1.653.335 3.264.532 4.738.054 3.184-1.033 5.006-4.79 7.657-6.718 2.677-1.946 6.81-2.53 8.758-5.205 1.928-2.648 1.22-6.746 2.254-9.928.997-3.07 4.014-5.953 4.014-9.355s-3.017-6.286-4.014-9.355z" fill="#E7E1FF"/>
        <g transform="translate(23 15)" fill-rule="nonzero">
            <circle fill="#FF8797" cx="15" cy="15" r="15"/>
            <path d="M15.5 28C8.607 28 3 22.393 3 15.5S8.607 3 15.5 3 28 8.607 28 15.5 22.392 28 15.5 28z" fill="#FFC0C9"/>
            <path d="M33 33.9v9.194c0 .508-.037 1.007-.11 1.496A23.977 23.977 0 0 1 19 49a23.98 23.98 0 0 1-13.825-4.364A17.533 17.533 0 0 1 5 42.168v-10.13a2.78 2.78 0 0 1 1.218-2.305 2.732 2.732 0 0 1 1.539-.473 2.767 2.767 0 0 1 2.757 2.779V29.71c0-.768.308-1.461.807-1.964a2.738 2.738 0 0 1 1.95-.815c1.522 0 2.757 1.245 2.757 2.779v-.945c0-.767.309-1.462.807-1.965a2.741 2.741 0 0 1 1.95-.813 2.767 2.767 0 0 1 2.757 2.778V16.778a2.78 2.78 0 0 1 1.218-2.306 2.725 2.725 0 0 1 1.61-.471c1.505.039 2.685 1.323 2.685 2.84v19.547a5.995 5.995 0 0 1 1.742-4.237l.032-.033C30.377 30.583 33 31.71 33 33.9z" fill="#F9D5A9"/>
            <g fill="#E5A379">
                <path d="M23.094 15.09V34.5a.608.608 0 0 1-.62.595.608.608 0 0 1-.62-.594V17.32c0-.742.314-1.414.821-1.9.128-.123.268-.234.42-.331zM17.479 26.692v8.9a.608.608 0 0 1-.62.595.608.608 0 0 1-.621-.594v-6.669c0-.743.314-1.415.822-1.901.128-.123.268-.234.419-.33zM11.862 27.606v8.662a.608.608 0 0 1-.62.594.608.608 0 0 1-.621-.594v-6.43c0-.742.314-1.415.822-1.9.128-.123.268-.234.419-.332zM6.246 29.86v15.094c-.36-.215-.715-.438-1.063-.67a16.14 16.14 0 0 1-.178-2.389v-9.803c0-.743.314-1.415.823-1.902.128-.123.268-.234.418-.33zM28.936 32.518v9.525c0 .388-.328.703-.733.703-.406 0-.734-.315-.734-.703v-5.742c0-1.446.553-2.768 1.467-3.783z"/>
            </g>
            <path d="M20.792 18.39 17.9 15.5l2.89-2.89a.711.711 0 0 0 0-1.007l-1.394-1.395a.711.711 0 0 0-1.006 0L15.5 13.1l-2.89-2.89a.711.711 0 0 0-1.007 0l-1.395 1.394a.711.711 0 0 0 0 1.006L13.1 15.5l-2.89 2.89a.711.711 0 0 0 0 1.007l1.394 1.395a.711.711 0 0 0 1.006 0L15.5 17.9l2.89 2.89a.711.711 0 0 0 1.007 0l1.395-1.394a.711.711 0 0 0 0-1.006z" fill="#4B24DD"/>
        </g>
    </g>
</svg>
