<?xml version="1.0" encoding="UTF-8"?>
<svg width="69px" height="69px" viewBox="0 0 69 69" version="1.1" xmlns="http://www.w3.org/2000/svg" xmlns:xlink="http://www.w3.org/1999/xlink">
    <title>Group 22</title>
    <g id="Page-1" stroke="none" stroke-width="1" fill="none" fill-rule="evenodd">
        <g id="Group-22">
            <path d="M34.5,0 C15.5384766,0 0,15.5384766 0,34.5 C0,40.6454473 1.65748242,46.844666 4.8515625,52.1409551 L0.121423828,66.3317754 C-0.121423828,67.0595098 0.0404296875,67.867834 0.606580078,68.3934199 C1.13216602,68.9594355 1.940625,69.1214238 2.66822461,68.8785762 L16.8590449,64.1484375 C22.155334,67.3425176 28.3545527,69 34.5,69 C53.4615234,69 69,53.4615234 69,34.5 C69,15.5384766 53.4615234,0 34.5,0 Z" id="Shape" fill="#7954FF"></path>
            <path d="M69,34.5 C69,53.4615234 53.4615234,69 34.5,69 L34.5,0 C53.4615234,0 69,15.5384766 69,34.5 Z" id="Shape" fill="#3B14CA"></path>
            <path d="M34.5,5 C50.7924001,5 64,18.2075999 64,34.5 C64,50.7924001 50.7924001,64 34.5,64 C28.1826546,64 22.3291043,62.0142571 17.5294813,58.6329036 L8.24264069,61.7279221 L11.2606793,52.6730683 C7.3382425,47.6642035 5,41.3551646 5,34.5 C5,18.2075999 18.2075999,5 34.5,5 Z" id="Combined-Shape" stroke="#FFC0C9"></path>
            <path d="M35,26 C36.6666667,26 37.9166667,25.5866667 38.75,24.76 C39.5833333,23.9333333 40,22.8533333 40,21.52 C40,20.24 39.5698925,19.1666667 38.7096774,18.3 C37.8494624,17.4333333 36.6129032,17 35,17 C33.3064516,17 32.0497312,17.4266667 31.2298387,18.28 C30.4099462,19.1333333 30,20.2133333 30,21.52 C30,22.8533333 30.4099462,23.9333333 31.2298387,24.76 C32.0497312,25.5866667 33.3064516,26 35,26 Z M39.9583333,51 C39.7638889,46.8095238 39.6666667,43.2368742 39.6666667,40.2820513 C39.6666667,36.7631258 39.7777778,33.002442 40,29 L40,29 L30,29 C30.2222222,33.1636142 30.3333333,36.9242979 30.3333333,40.2820513 C30.3333333,43.1025641 30.2361111,46.6752137 30.0416667,51 L30.0416667,51 L39.9583333,51 Z" id="i" fill="#FFC0C9" fill-rule="nonzero"></path>
        </g>
    </g>
</svg>