<svg xmlns="http://www.w3.org/2000/svg" width="5" height="20" viewBox="0 0 5 20">
    <g fill="none" fill-rule="evenodd">
        <g fill="#FFF">
            <path d="M325.5 117c1.375 0 2.5-1.125 2.5-2.5s-1.125-2.5-2.5-2.5-2.5 1.125-2.5 2.5 1.125 2.5 2.5 2.5zm0 2.5c-1.375 0-2.5 1.125-2.5 2.5s1.125 2.5 2.5 2.5 2.5-1.125 2.5-2.5-1.125-2.5-2.5-2.5zm0 7.5c-1.375 0-2.5 1.125-2.5 2.5s1.125 2.5 2.5 2.5 2.5-1.125 2.5-2.5-1.125-2.5-2.5-2.5z" transform="translate(-323 -112)"/>
        </g>
    </g>
</svg>
