<svg xmlns="http://www.w3.org/2000/svg" width="19" height="18" viewBox="0 0 19 18">
    <g fill="none" fill-rule="evenodd">
        <g fill="#3D16C9">
            <g transform="translate(-55 -740) translate(55 740)">
                <ellipse cx="9.606" cy="9.75" rx="2.927" ry="2.971"/>
                <path d="M6.861.464L5.187 2.321h-2.9c-1.006 0-1.83.836-1.83 1.858V15.32c0 1.022.824 1.858 1.83 1.858h14.637c1.006 0 1.83-.836 1.83-1.858V4.18c0-1.022-.824-1.858-1.83-1.858h-2.9L12.35.464H6.861zm2.745 13.929c-2.525 0-4.575-2.08-4.575-4.643 0-2.563 2.05-4.643 4.575-4.643 2.524 0 4.574 2.08 4.574 4.643 0 2.563-2.05 4.643-4.574 4.643z"/>
            </g>
        </g>
    </g>
</svg>
