<svg xmlns="http://www.w3.org/2000/svg" width="30" height="38" viewBox="0 0 30 38">
    <g fill="none" fill-rule="evenodd">
        <g>
            <g>
                <path fill="#D7CCFF" d="M29.858 32.628V6.233c0-1.377-1.114-2.493-2.488-2.493H2.488C1.114 3.74 0 4.856 0 6.233v26.395h29.858z" transform="translate(-96 -452) translate(96 452)"/>
                <path fill="#7954FF" d="M28.13 6.233v26.395h1.728V6.233c0-1.377-1.114-2.493-2.488-2.493h-1.727c1.374 0 2.488 1.116 2.488 2.493" transform="translate(-96 -452) translate(96 452)"/>
                <path fill="#FFC0C9" d="M21.81 13.713h-6.298c-.322 0-.583-.261-.583-.584v-1.325c0-.322.261-.584.583-.584h6.298c.322 0 .584.262.584.584v1.325c0 .323-.262.584-.584.584M26.787 18.7H15.512c-.322 0-.583-.262-.583-.584V16.79c0-.323.261-.584.583-.584h11.275c.322 0 .583.261.583.584v1.325c0 .322-.261.584-.583.584M19.322 23.687h-3.81c-.322 0-.583-.262-.583-.585v-1.324c0-.323.261-.585.583-.585h3.81c.322 0 .583.262.583.585v1.324c0 .323-.26.585-.583.585" transform="translate(-96 -452) translate(96 452)"/>
                <path fill="#7954FF" d="M2.488 37.4H27.37c1.374 0 2.488-1.116 2.488-2.493v-2.494H0v2.494C0 36.284 1.114 37.4 2.488 37.4" transform="translate(-96 -452) translate(96 452)"/>
                <path fill="#5F32FF" d="M28.13 34.907c0 1.377-1.113 2.493-2.487 2.493h1.727c1.374 0 2.488-1.116 2.488-2.493v-2.494h-1.727v2.494z" transform="translate(-96 -452) translate(96 452)"/>
                <path fill="#3B14CA" d="M26.787 34.907H15.512c-.322 0-.583-.262-.583-.585v-3.818c0-.322.261-.584.583-.584h11.275c.322 0 .583.262.583.584v3.818c0 .323-.261.585-.583.585" transform="translate(-96 -452) translate(96 452)"/>
                <path fill="#E5DFFF" d="M21.15 32.978h-3.733c-.31 0-.563-.253-.563-.565 0-.311.252-.564.563-.564h3.732c.312 0 .564.253.564.564 0 .312-.252.565-.564.565M24.882 32.978h-1.244c-.311 0-.564-.253-.564-.565 0-.311.253-.564.564-.564h1.244c.31 0 .563.253.563.564 0 .312-.252.565-.563.565" transform="translate(-96 -452) translate(96 452)"/>
                <path fill="#341D8D" d="M26.77 29.92h-1.728c.332 0 .6.27.6.602v3.783c0 .332-.268.602-.6.602h1.727c.332 0 .6-.27.6-.602v-3.783c0-.332-.268-.602-.6-.602" transform="translate(-96 -452) translate(96 452)"/>
                <path fill="#FF8797" d="M26.77 16.207h-1.728c.332 0 .6.27.6.602v1.289c0 .333-.268.602-.6.602h1.727c.332 0 .6-.27.6-.602v-1.29c0-.332-.268-.601-.6-.601M19.305 21.193h-1.728c.332 0 .601.27.601.602v1.29c0 .332-.269.602-.6.602h1.727c.331 0 .6-.27.6-.602v-1.29c0-.332-.269-.602-.6-.602M21.793 11.22h-1.727c.331 0 .6.27.6.602v1.29c0 .332-.269.601-.6.601h1.727c.332 0 .6-.27.6-.602v-1.289c0-.332-.268-.602-.6-.602" transform="translate(-96 -452) translate(96 452)"/>
                <path fill="#D4CAFF" d="M19.905 6.798H9.953c-.311 0-.564-.253-.564-.565 0-.311.253-.564.564-.564h9.952c.311 0 .564.253.564.564 0 .312-.253.565-.564.565" transform="translate(-96 -452) translate(96 452)"/>
                <path fill="#3B14CA" d="M13.607 0h2.644c.644 0 1.166.523 1.166 1.169V6.31c0 .646-.522 1.169-1.166 1.169h-2.644c-.644 0-1.166-.523-1.166-1.169V1.17C12.44.523 12.963 0 13.607 0" transform="translate(-96 -452) translate(96 452)"/>
                <path fill="#341D8D" d="M16.216 0h-1.728c.664 0 1.202.54 1.202 1.204v5.072c0 .665-.538 1.204-1.202 1.204h1.728c.663 0 1.201-.539 1.201-1.204V1.204C17.417.539 16.88 0 16.216 0" transform="translate(-96 -452) translate(96 452)"/>
                <path fill="#341D8D" d="M12.441 5.551L17.417 5.551 17.417 4.422 12.441 4.422z" transform="translate(-96 -452) translate(96 452)"/>
                <path fill="#FDADCC" d="M12.44 23.998c0-1.549-1.252-2.805-2.798-2.805H5.287c-1.546 0-2.799 1.256-2.799 2.805v2.182c0 .689.557 1.247 1.244 1.247h7.465c.687 0 1.244-.558 1.244-1.247v-2.182z" transform="translate(-96 -452) translate(96 452)"/>
                <path fill="#878FE3" d="M12.44 23.998c0-1.549-1.252-2.805-2.798-2.805H5.287c-1.546 0-2.799 1.256-2.799 2.805v2.182c0 .689.557 1.247 1.244 1.247h7.465c.687 0 1.244-.558 1.244-1.247v-2.182z" transform="translate(-96 -452) translate(96 452)"/>
                <path fill="#9A8CD4" d="M9.642 21.193H7.914c1.546 0 2.8 1.256 2.8 2.805v2.182c0 .689-.557 1.247-1.244 1.247h1.727c.687 0 1.244-.558 1.244-1.247v-2.182c0-1.549-1.253-2.805-2.8-2.805z" transform="translate(-96 -452) translate(96 452)"/>
                <path fill="#D6F2A3" d="M6.704 22.811L8.225 22.811 8.225 19.575 6.704 19.575z" transform="translate(-96 -452) translate(96 452)"/>
                <path fill="#FBFFD7" d="M11.197 13.192v4.261c0 2.087-1.706 3.775-3.796 3.74-2.047-.034-3.669-1.75-3.669-3.801v-4.2h7.465z" transform="translate(-96 -452) translate(96 452)"/>
                <path fill="#210460" d="M6.22 18.018c-.31 0-.563-.253-.563-.565v-.311c0-.312.252-.565.563-.565.312 0 .564.253.564.565v.311c0 .312-.252.565-.564.565M8.709 18.018c-.311 0-.564-.253-.564-.565v-.311c0-.312.253-.565.564-.565.31 0 .563.253.563.565v.311c0 .312-.252.565-.563.565" transform="translate(-96 -452) translate(96 452)"/>
                <path fill="#FFE8A9" d="M9.47 13.192v4.261c0 1.766-1.222 3.246-2.864 3.638.255.062.521.097.795.102 2.09.035 3.796-1.653 3.796-3.74v-4.26H9.47z" transform="translate(-96 -452) translate(96 452)"/>
                <path fill="#3B14CA" d="M9.33 11.22H5.599c-1.374 0-2.488 1.116-2.488 2.493v1.87c0 .345.279.624.622.624 1.204 0 2.208-.857 2.439-1.995.058-.29.313-.499.609-.499h1.37c.295 0 .55.209.608.499.23 1.138 1.235 1.995 2.439 1.995.343 0 .622-.28.622-.624v-1.87c0-1.377-1.114-2.493-2.488-2.493z" transform="translate(-96 -452) translate(96 452)"/>
                <path fill="#341D8D" d="M9.33 11.22H7.604c1.375 0 2.489 1.116 2.489 2.493v1.87c0 .117-.033.225-.088.318.354.195.76.306 1.193.306.343 0 .622-.28.622-.624v-1.87c0-1.377-1.114-2.493-2.488-2.493z" transform="translate(-96 -452) translate(96 452)"/>
                <path fill="#FC92BD" d="M9.123 23.687l-1.285.966c-.221.166-.526.166-.747 0l-1.285-.966v-2.494h3.317v2.494z" transform="translate(-96 -452) translate(96 452)"/>
                <path fill="#FDADCC" d="M9.642 21.193H7.465l1.798 2.704c.284.427.933.346 1.104-.138l.755-2.14c-.43-.27-.937-.426-1.48-.426zM3.807 21.618l.755 2.14c.17.485.82.566 1.104.139l1.799-2.704H5.287c-.543 0-1.05.156-1.48.425z" transform="translate(-96 -452) translate(96 452)"/>
            </g>
        </g>
    </g>
</svg>
