<svg xmlns="http://www.w3.org/2000/svg" width="63" height="84" viewBox="0 0 63 84">
    <defs>
        <linearGradient id="1xsdo8mtha" x1="6.147%" x2="86.017%" y1="50.167%" y2="50.167%">
            <stop offset="0%" stop-color="#FFD7DE"/>
            <stop offset="100%" stop-color="#FDA9CB"/>
        </linearGradient>
        <linearGradient id="cfdgei2ccb" x1="154.176%" x2="-4.419%" y1="50.014%" y2="50.014%">
            <stop offset="0%" stop-color="#FFD7DE"/>
            <stop offset="100%" stop-color="#FDA9CB"/>
        </linearGradient>
        <linearGradient id="wyrwaj6n2c" x1="69.837%" x2="48.889%" y1="70.515%" y2="6.413%">
            <stop offset="0%" stop-color="#FF88C1" stop-opacity="0"/>
            <stop offset="100%" stop-color="#FF88C1"/>
        </linearGradient>
        <linearGradient id="f0pljiqs2d" x1="27.513%" x2="128.624%" y1="72.417%" y2="-28.359%">
            <stop offset="0%" stop-color="#FFD7DE"/>
            <stop offset="100%" stop-color="#FDA9CB"/>
        </linearGradient>
        <linearGradient id="vlqjc5rjse" x1="74.017%" x2="-41.954%" y1="26.067%" y2="141.653%">
            <stop offset="0%" stop-color="#FFD7DE"/>
            <stop offset="100%" stop-color="#FDA9CB"/>
        </linearGradient>
        <linearGradient id="invzqahorf" x1="87.662%" x2="53.758%" y1="87.558%" y2="53.767%">
            <stop offset="0%" stop-color="#FF88C1" stop-opacity="0"/>
            <stop offset="100%" stop-color="#FF88C1"/>
        </linearGradient>
        <linearGradient id="tmc0u00o0g" x1="31.268%" x2="54.362%" y1="43.401%" y2="66.432%">
            <stop offset="0%" stop-color="#FFD7DE"/>
            <stop offset="100%" stop-color="#FDA9CB"/>
        </linearGradient>
        <linearGradient id="yab95qhxlh" x1="60.389%" x2="41.985%" y1="63.746%" y2="45.403%">
            <stop offset="0%" stop-color="#FFD7DE"/>
            <stop offset="100%" stop-color="#FDA9CB"/>
        </linearGradient>
        <linearGradient id="rruevp106i" x1="18.154%" x2="161.134%" y1="50%" y2="50%">
            <stop offset="0%" stop-color="#FFD7DE"/>
            <stop offset="100%" stop-color="#FDA9CB"/>
        </linearGradient>
        <linearGradient id="h413j56mgj" x1="83.877%" x2="-80.115%" y1="49.971%" y2="49.972%">
            <stop offset="0%" stop-color="#FFD7DE"/>
            <stop offset="100%" stop-color="#FDA9CB"/>
        </linearGradient>
        <linearGradient id="7a276a985k" x1="62.097%" x2="47.585%" y1="65.015%" y2="16.505%">
            <stop offset="0%" stop-color="#FF88C1" stop-opacity="0"/>
            <stop offset="100%" stop-color="#FF88C1"/>
        </linearGradient>
        <linearGradient id="yuye5gy1zl" x1="-.028%" x2="99.973%" y1="50.02%" y2="50.02%">
            <stop offset="0%" stop-color="#7954FF"/>
            <stop offset="100%" stop-color="#3B14CA"/>
        </linearGradient>
        <linearGradient id="6nynqsgkcm" x1="114.401%" x2="2.302%" y1="114.411%" y2="2.391%">
            <stop offset="0%" stop-color="#D7CCFF"/>
            <stop offset="100%" stop-color="#7E65D9"/>
        </linearGradient>
    </defs>
    <g fill="none" fill-rule="evenodd">
        <g>
            <g>
                <g>
                    <g>
                        <g>
                            <g>
                                <path fill="url(#1xsdo8mtha)" d="M21.838 56.035v-1.71c0-.473.212-.913.587-1.206.784-.603.784-1.793 0-2.412-.375-.293-.587-.733-.587-1.205V47.79c0-.603.49-1.092 1.093-1.092.604 0 1.094-.489 1.094-1.092v-1.222c0-.603-.49-1.092-1.094-1.092-.604 0-1.093-.488-1.093-1.091v-3.275c0-.603.49-1.092 1.093-1.092.604 0 1.094-.489 1.094-1.092V31.22h-12.29V59.13c0 1.108.408 2.168 1.142 2.999l3.265 3.666c.93 1.043 2.546 1.043 3.476 0l3.264-3.666c.735-.831 1.143-1.89 1.143-2.999v-.977c0-.603-.49-1.092-1.094-1.092-.604.065-1.093-.424-1.093-1.027z" transform="translate(-157 -137) translate(157 137) translate(0 14.99) translate(22.197 1.792)"/>
                                <path fill="url(#cfdgei2ccb)" d="M19.83 31.268V60.24c0 1.076-.881 1.956-1.958 1.956s-1.959-.88-1.959-1.956V31.27h3.917z" transform="translate(-157 -137) translate(157 137) translate(0 14.99) translate(22.197 1.792)"/>
                                <path fill="url(#wyrwaj6n2c)" d="M24.009 44.401c0-.602-.49-1.091-1.094-1.091-.604 0-1.093-.489-1.093-1.092v-3.275c0-.603.49-1.092 1.093-1.092.604 0 1.094-.489 1.094-1.091v-5.524h-12.29v2.9L23.813 46.21c.114-.18.18-.375.18-.603l.016-1.206z" transform="translate(-157 -137) translate(157 137) translate(0 14.99) translate(22.197 1.792)"/>
                                <path fill="url(#f0pljiqs2d)" d="M17.872.114C8.079.114.147 8.033.147 17.81c0 9.777 7.932 17.696 17.725 17.696 9.793 0 17.725-7.919 17.725-17.696 0-9.776-7.932-17.695-17.725-17.695zm0 16c-2.775 0-5.027-2.248-5.027-5.018 0-2.77 2.252-5.018 5.027-5.018 2.774 0 5.027 2.248 5.027 5.018 0 2.77-2.253 5.019-5.027 5.019z" transform="translate(-157 -137) translate(157 137) translate(0 14.99) translate(22.197 1.792)"/>
                                <path fill="url(#vlqjc5rjse)" d="M17.872 3.21c-8.08 0-14.624 6.534-14.624 14.6 0 8.065 6.545 14.599 14.624 14.599s14.624-6.534 14.624-14.6c0-8.065-6.545-14.6-14.624-14.6zm0 12.905c-2.775 0-5.027-2.249-5.027-5.019s2.252-5.018 5.027-5.018c2.774 0 5.027 2.248 5.027 5.018 0 2.77-2.253 5.019-5.027 5.019z" transform="translate(-157 -137) translate(157 137) translate(0 14.99) translate(22.197 1.792)"/>
                            </g>
                            <path fill="url(#invzqahorf)" d="M40.069 1.906c-9.793 0-17.725 7.92-17.725 17.696 0 9.776 7.932 17.695 17.725 17.695 9.792 0 17.725-7.919 17.725-17.695 0-9.777-7.933-17.696-17.725-17.696zm0 16.001c-2.775 0-5.027-2.248-5.027-5.018 0-2.77 2.252-5.019 5.027-5.019 2.774 0 5.027 2.249 5.027 5.019s-2.253 5.018-5.027 5.018z" transform="translate(-157 -137) translate(157 137) translate(0 14.99)"/>
                            <path fill="url(#tmc0u00o0g)" d="M11.082 47.546l1.208-1.206c.326-.325.8-.488 1.273-.44.996.13 1.828-.716 1.697-1.694-.065-.473.098-.929.441-1.271l1.208-1.206c.424-.423 1.11-.423 1.534 0 .424.424 1.11.424 1.534 0l.865-.863c.425-.424.425-1.108 0-1.532-.424-.424-.424-1.108 0-1.532l2.318-2.313c.424-.424 1.11-.424 1.534 0 .424.423 1.11.423 1.534 0l3.917-3.911-8.683-8.668L1.714 42.642C.93 43.424.457 44.467.392 45.575l-.294 4.904c-.082 1.385 1.06 2.542 2.448 2.444l4.913-.293c1.11-.065 2.154-.538 2.938-1.32l.685-.684c.424-.424.424-1.108 0-1.532-.424-.44-.424-1.124 0-1.548z" transform="translate(-157 -137) translate(157 137) translate(0 14.99)"/>
                            <path fill="url(#yab95qhxlh)" d="M27.208 28.612L6.692 49.094c-.767.766-2.008.766-2.775 0-.767-.766-.767-2.004 0-2.77l20.516-20.482 2.775 2.77z" transform="translate(-157 -137) translate(157 137) translate(0 14.99)"/>
                            <path fill="url(#rruevp106i)" d="M47.887 5.198c-6.92-6.909-18.15-6.909-25.07 0-6.92 6.909-6.92 18.119 0 25.028 6.92 6.908 18.15 6.908 25.07 0 6.92-6.91 6.92-18.12 0-25.028zM36.56 16.506c-1.959-1.955-1.959-5.133 0-7.088 1.958-1.955 5.14-1.955 7.1 0 1.958 1.955 1.958 5.133 0 7.088-1.96 1.955-5.142 1.955-7.1 0z" transform="translate(-157 -137) translate(157 137) translate(0 14.99)"/>
                            <path fill="url(#h413j56mgj)" d="M45.7 7.398c-5.713-5.703-14.967-5.703-20.68 0-5.712 5.702-5.712 14.941 0 20.644 5.713 5.703 14.967 5.703 20.68 0 5.712-5.703 5.712-14.958 0-20.644zm-9.14 9.108c-1.959-1.955-1.959-5.133 0-7.088 1.958-1.955 5.14-1.955 7.1 0 1.958 1.955 1.958 5.133 0 7.088-1.96 1.955-5.142 1.955-7.1 0z" transform="translate(-157 -137) translate(157 137) translate(0 14.99)"/>
                        </g>
                        <path fill="url(#7a276a985k)" d="M43.251 31.871L55.198 43.8c1.649-2.689 2.596-5.834 2.596-9.207 0-2.346-.457-4.595-1.29-6.648-1.55 1.483-5.451 4.14-13.253 3.927z" transform="translate(-157 -137) translate(157 137)"/>
                        <path fill="url(#yuye5gy1zl)" d="M46.76 0C38.012 0 30.863 6.974 30.62 15.659c2.35-.652 4.814-.815 7.214-.473.473-4.513 4.292-8.033 8.944-8.033 4.961 0 8.993 4.025 8.993 8.978 0 3.47-1.992 6.502-4.897 7.984-1.224.636-2.627.994-4.096.994-1.012 0-1.975-.163-2.873-.472-1.06-.359-2.024-.913-2.872-1.613-1.567-.277-3.232.179-4.44 1.385-.816.814-1.29 1.84-1.436 2.9 2.154 2.249 4.962 3.862 8.112 4.562 1.126.245 2.3.375 3.509.375 2.203 0 4.325-.44 6.234-1.255 5.827-2.444 9.907-8.196 9.907-14.876C62.918 7.235 55.672 0 46.76 0z" transform="translate(-157 -137) translate(157 137)"/>
                        <path fill="url(#6nynqsgkcm)" d="M46.76 3.731c-6.495 0-11.816 4.97-12.371 11.325 1.142-.065 2.301-.017 3.427.146.474-4.513 4.293-8.033 8.944-8.033 4.962 0 8.993 4.025 8.993 8.978 0 3.471-1.99 6.502-4.896 7.985-1.224.635-2.628.994-4.097.994-1.012 0-1.975-.163-2.872-.473-1.061-.358-2.024-.912-2.873-1.613-1.338-.245-2.758.065-3.9.912 2.284 2.803 5.76 4.595 9.662 4.595 6.838-.016 12.404-5.572 12.404-12.416 0-6.843-5.566-12.4-12.42-12.4z" transform="translate(-157 -137) translate(157 137)"/>
                    </g>
                </g>
            </g>
        </g>
    </g>
</svg>
