<svg xmlns="http://www.w3.org/2000/svg" width="54" height="40" viewBox="0 0 54 40">
    <g fill="none" fill-rule="evenodd">
        <g fill="#FFF">
            <path d="M210.657 105.69c-3.454 0-6.473 1.836-8.143 4.593-.906 1.371-2.492 2.278-4.304 2.278-1.769 0-3.334-.879-4.247-2.208-.365-.527-.603-1.641-.75-1.772-2.29-4.5-6.957-7.581-12.349-7.581-7.658 0-13.864 6.224-13.864 13.896 0 7.665 6.206 13.882 13.864 13.882 5.504 0 10.256-3.214 12.496-7.862.688-1.526 2.569-2.638 4.794-2.638 1.917 0 3.58.823 4.437 2.04.386.555.604 1.188.604 1.863 0 1.787-1.552 3.292-3.665 3.756-.365.077-.716.126-1.088.133-3.412.704-5.946 3.7-5.946 7.293 0 4.1 3.314 7.426 7.413 7.426 4.093 0 7.413-3.326 7.413-7.426 0-.865-.147-1.702-.42-2.476-.085-.246-.183-.478-.296-.71-.112-.387-.175-.787-.175-1.21 0-2.215 1.706-4.029 3.868-4.205.12.007.238.007.358.007s.238 0 .358-.007c5.09-.19 9.16-4.388 9.16-9.536 0-5.267-4.26-9.535-9.518-9.535z" transform="translate(-167 -101)"/>
        </g>
    </g>
</svg>
