<svg xmlns="http://www.w3.org/2000/svg" width="84" height="95" viewBox="0 0 84 95">
    <g fill="none" fill-rule="evenodd">
        <g>
            <g>
                <path fill="#FFDCC8" d="M74.638 49.491v-11.04c0-4.572-3.713-8.28-8.293-8.28H46.109c-1.041 0-1.88.852-1.879 1.891.002 1.266.203 2.485.572 3.63H5.638c-3.098 0-5.694 2.53-5.637 5.623.055 3 2.51 5.416 5.528 5.416h5.529v33.12H66.345c4.58 0 8.293-3.707 8.293-8.28h5.864c1.341 0 2.43-1.086 2.43-2.426V51.917c0-1.34-1.089-2.426-2.43-2.426h-5.864z" transform="translate(-148 -155) translate(148.5 155.022)"/>
                <path fill="#4B2DBF" d="M18.405 0c-4.051 0-7.347 3.29-7.347 7.336V86.79c0 4.045 3.296 7.336 7.347 7.336h35.064c4.051 0 7.347-3.29 7.347-7.336V7.336C60.816 3.29 57.52 0 53.47 0H18.405z" transform="translate(-148 -155) translate(148.5 155.022)"/>
                <path fill="#341D8D" d="M60.816 7.336C60.816 3.29 57.52 0 53.47 0H35.937v94.127h17.532c4.051 0 7.347-3.29 7.347-7.335V7.336z" transform="translate(-148 -155) translate(148.5 155.022)"/>
                <path fill="#E5DFFF" d="M53.182 4.851h-2.775v.829c0 4.21-3.418 7.622-7.635 7.622h-13.67c-4.217 0-7.635-3.412-7.635-7.622V4.85h-2.775c-1.53 0-2.775 1.243-2.775 2.771v78.883c0 1.528 1.245 2.77 2.775 2.77h34.49c1.53 0 2.775-1.242 2.775-2.77V7.622c0-1.528-1.245-2.77-2.775-2.77z" transform="translate(-148 -155) translate(148.5 155.022)"/>
                <path fill="#D4CAFF" d="M55.957 86.505V7.622c0-1.528-1.245-2.77-2.775-2.77h-2.775v.828c0 4.21-3.418 7.622-7.635 7.622h-6.835v75.974h17.245c1.53 0 2.775-1.243 2.775-2.771" transform="translate(-148 -155) translate(148.5 155.022)"/>
                <path fill="#FFC5BB" d="M11.058 68.81c3.053 0 5.528 2.472 5.528 5.52 0 3.05-2.475 5.52-5.528 5.52-3.054 0-5.53-2.47-5.53-5.52 0-3.048 2.476-5.52 5.53-5.52" transform="translate(-148 -155) translate(148.5 155.022)"/>
                <path fill="#FF8797" d="M41.142 84.702h-10.41c-1.342 0-2.43-1.086-2.43-2.426s1.088-2.426 2.43-2.426h10.41c1.341 0 2.43 1.087 2.43 2.426 0 1.34-1.089 2.426-2.43 2.426" transform="translate(-148 -155) translate(148.5 155.022)"/>
                <path fill="#FF8797" d="M43.571 82.276c0-1.34-1.088-2.426-2.43-2.426h-5.204v4.852h5.205c1.341 0 2.43-1.086 2.43-2.426" transform="translate(-148 -155) translate(148.5 155.022)"/>
                <path fill="#FFC5BB" d="M74.638 45.934V38.45c0-4.572-3.713-8.28-8.293-8.28H46.109c-1.037 0-1.879.84-1.879 1.877 0 6.575 5.358 11.923 11.943 11.923h4.643v35.88h5.529c4.58 0 8.293-3.707 8.293-8.28h5.864c1.341 0 2.43-1.086 2.43-2.426V48.36c0-1.34-1.089-2.425-2.43-2.425h-5.864z" transform="translate(-148 -155) translate(148.5 155.022)"/>
                <path fill="#D9D0FF" d="M28.396 46.759c0 2.484-2.017 4.499-4.506 4.499-2.489 0-4.506-2.015-4.506-4.5 0-2.484 2.017-4.498 4.506-4.498 2.489 0 4.506 2.014 4.506 4.499" transform="translate(-148 -155) translate(148.5 155.022)"/>
                <path fill="#CABDFF" d="M52.93 46.81c0 2.484-2.018 4.498-4.506 4.498-2.49 0-4.507-2.014-4.507-4.499 0-2.484 2.018-4.498 4.507-4.498 2.488 0 4.506 2.014 4.506 4.498" transform="translate(-148 -155) translate(148.5 155.022)"/>
                <path fill="#D9D0FF" d="M31.65 46.759c0 2.415 1.907 4.385 4.3 4.493v-8.987c-2.393.108-4.3 2.078-4.3 4.494" transform="translate(-148 -155) translate(148.5 155.022)"/>
                <path fill="#CABDFF" d="M36.157 42.26c-.07 0-.139.002-.207.005v8.987c.068.004.137.006.207.006 2.488 0 4.506-2.015 4.506-4.5 0-2.484-2.018-4.498-4.506-4.498" transform="translate(-148 -155) translate(148.5 155.022)"/>
                <path fill="#D9D0FF" d="M28.396 58.69c0 2.485-2.017 4.499-4.506 4.499-2.489 0-4.506-2.014-4.506-4.5 0-2.484 2.017-4.498 4.506-4.498 2.489 0 4.506 2.014 4.506 4.499" transform="translate(-148 -155) translate(148.5 155.022)"/>
                <path fill="#CABDFF" d="M52.93 58.74c0 2.485-2.018 4.5-4.506 4.5-2.49 0-4.507-2.015-4.507-4.5 0-2.484 2.018-4.498 4.507-4.498 2.488 0 4.506 2.014 4.506 4.499" transform="translate(-148 -155) translate(148.5 155.022)"/>
                <path fill="#D9D0FF" d="M31.65 58.69c0 2.415 1.907 4.386 4.3 4.494v-8.988c-2.393.108-4.3 2.078-4.3 4.494" transform="translate(-148 -155) translate(148.5 155.022)"/>
                <path fill="#CABDFF" d="M36.157 54.19c-.07 0-.139.003-.207.006v8.988c.068.003.137.005.207.005 2.488 0 4.506-2.014 4.506-4.5 0-2.484-2.018-4.498-4.506-4.498" transform="translate(-148 -155) translate(148.5 155.022)"/>
                <path fill="#D9D0FF" d="M28.396 70.837c0 2.484-2.017 4.499-4.506 4.499-2.489 0-4.506-2.015-4.506-4.5 0-2.484 2.017-4.498 4.506-4.498 2.489 0 4.506 2.014 4.506 4.499" transform="translate(-148 -155) translate(148.5 155.022)"/>
                <path fill="#CABDFF" d="M52.93 70.887c0 2.485-2.018 4.5-4.506 4.5-2.49 0-4.507-2.015-4.507-4.5 0-2.484 2.018-4.498 4.507-4.498 2.488 0 4.506 2.014 4.506 4.498" transform="translate(-148 -155) translate(148.5 155.022)"/>
                <path fill="#D9D0FF" d="M31.65 70.837c0 2.415 1.907 4.385 4.3 4.493v-8.987c-2.393.108-4.3 2.078-4.3 4.494" transform="translate(-148 -155) translate(148.5 155.022)"/>
                <path fill="#CABDFF" d="M36.157 66.338c-.07 0-.139.002-.207.005v8.988c.068.003.137.005.207.005 2.488 0 4.506-2.015 4.506-4.5 0-2.484-2.018-4.498-4.506-4.498" transform="translate(-148 -155) translate(148.5 155.022)"/>
                <path fill="#FFC5BB" d="M17.968 57.771c3.052 0 5.53-2.473 5.53-5.52 0-3.047-2.478-5.52-5.53-5.52H6.911c-3.052 0-5.529 2.473-5.529 5.52 0 3.047 2.477 5.52 5.529 5.52h2.764c-3.052 0-5.528 2.473-5.528 5.52 0 3.047 2.477 5.52 5.528 5.52h8.294c3.051 0 5.528-2.473 5.528-5.52 0-3.047-2.477-5.52-5.529-5.52z" transform="translate(-148 -155) translate(148.5 155.022)"/>
                <path fill="#FFADAD" d="M17.968 57.771H9.675c-3.052 0-5.528 2.473-5.528 5.52 0 3.047 2.476 5.52 5.528 5.52h8.293c3.052 0 5.53-2.473 5.53-5.52 0-3.047-2.478-5.52-5.53-5.52M60.816 57.771v22.08h5.529c4.58 0 8.293-3.707 8.293-8.28h5.864c1.341 0 2.43-1.086 2.43-2.426V57.77H60.815z" transform="translate(-148 -155) translate(148.5 155.022)"/>
            </g>
        </g>
    </g>
</svg>
