<?xml version="1.0" encoding="UTF-8"?>
<svg width="24px" height="24px" viewBox="0 0 24 24" version="1.1" xmlns="http://www.w3.org/2000/svg" xmlns:xlink="http://www.w3.org/1999/xlink">
    <title>Group 7</title>
    <g id="Page-1" stroke="none" stroke-width="1" fill="none" fill-rule="evenodd">
        <g id="05-details" transform="translate(-204.000000, -891.000000)">
            <g id="Group-7" transform="translate(204.000000, 891.000000)">
                <g id="Group-5-Copy-3" fill="#4B24DD">
                    <circle id="Oval-3" cx="12" cy="12" r="12"></circle>
                </g>
                <path d="M16.9294088,11 C17.0814614,11.0710509 17.1346786,11.2017111 17.1342603,11.3905236 C17.1305653,13.0274466 17.1321223,14.6643697 17.1321455,16.3013198 C17.1321455,16.5539782 17.1940077,16.6255418 17.412361,16.6255688 C17.8440247,16.6256227 18.2757117,16.6242195 18.7073755,16.6262164 C18.9211042,16.6271878 19.0566106,16.8422025 18.976901,17.0526297 C18.9593788,17.0988816 18.9297491,17.1416794 18.8986321,17.177839 C17.834915,18.4143621 16.7705705,19.6501296 15.705645,20.8851955 C15.5731829,21.0388468 15.4253831,21.0380912 15.2925027,20.8839812 C14.2276469,19.6488073 13.163465,18.4128779 12.0988183,17.1774343 C12.0093251,17.0735969 11.9718639,16.9537305 12.0233149,16.8142732 C12.0747428,16.6748969 12.1758555,16.6248941 12.3018107,16.625218 C12.7334744,16.6262434 13.1651614,16.6256227 13.5968484,16.6255688 C13.812018,16.6255148 13.8729738,16.5557322 13.8729738,16.3083898 C13.8730435,14.6779431 13.8745076,13.0475233 13.8709985,11.4171306 C13.8706034,11.2265641 13.9127357,11.0808194 14.0698775,11 L16.9294088,11 Z" id="Fill-1" fill="#FFFFFF"></path>
                <path d="M7.8045042,17.5319664 C7.97391597,17.5319664 8.11186555,17.4775126 8.21835294,17.368605 C8.32484034,17.2596975 8.38534454,17.137479 8.39986555,17.0019496 L8.39986555,17.0019496 L8.4869916,16.0943866 C9.04847059,16.0508235 9.54702521,15.9310252 9.98265546,15.7349916 C10.4182857,15.538958 10.7861513,15.2860504 11.0862521,14.9762689 C11.3863529,14.6664874 11.6138487,14.3095126 11.7687395,13.9053445 C11.9236303,13.5011765 12.0010756,13.0691765 12.0010756,12.6093445 C12.0010756,12.3044034 11.9623529,12.0321345 11.8849076,11.7925378 C11.8074622,11.5529412 11.6997647,11.3411765 11.5618151,11.1572437 C11.4238655,10.9733109 11.2617143,10.8135798 11.0753613,10.6780504 C10.8890084,10.542521 10.6881345,10.4227227 10.4727395,10.3186555 C10.2573445,10.2145882 10.033479,10.1226218 9.80114286,10.0427563 C9.56880672,9.96289076 9.33647059,9.88907563 9.10413445,9.82131092 L9.10413445,9.82131092 L9.3582521,7.24383193 C9.50830252,7.28739496 9.64988235,7.33821849 9.7829916,7.39630252 C9.91610084,7.45438655 10.0407395,7.50884034 10.1569076,7.55966387 C10.2730756,7.61048739 10.379563,7.65284034 10.4763697,7.68672269 C10.5731765,7.72060504 10.6603025,7.73754622 10.7377479,7.73754622 C10.853916,7.73754622 10.9543529,7.70971429 11.0390588,7.65405042 C11.1237647,7.59838655 11.2072605,7.51005042 11.2895462,7.38904202 L11.2895462,7.38904202 L11.8413445,6.58312605 C11.5799664,6.33626891 11.2605042,6.10514286 10.882958,5.8897479 C10.5054118,5.67435294 10.0552605,5.5182521 9.5325042,5.42144538 L9.5325042,5.42144538 L9.67771429,3.99112605 L8.85001681,3.99112605 C8.68060504,3.99112605 8.54265546,4.04557983 8.43616807,4.15448739 C8.32968067,4.26339496 8.26917647,4.38561345 8.25465546,4.52114286 L8.25465546,4.52114286 L8.17478992,5.32705882 C7.61331092,5.35610084 7.1147563,5.46379832 6.67912605,5.65015126 C6.2434958,5.8365042 5.87684034,6.07489076 5.57915966,6.36531092 C5.28147899,6.65573109 5.05519328,6.98245378 4.90030252,7.34547899 C4.74541176,7.7085042 4.66796639,8.08121008 4.66796639,8.46359664 C4.66796639,8.98151261 4.75388235,9.41230252 4.92571429,9.75596639 C5.09754622,10.0996303 5.32141176,10.3827899 5.59731092,10.6054454 C5.87321008,10.8281008 6.1829916,11.0047731 6.52665546,11.1354622 C6.87031933,11.2661513 7.21640336,11.3798992 7.56490756,11.4767059 L7.56490756,11.4767059 L7.29626891,14.2211765 C7.07845378,14.1630924 6.88484034,14.0892773 6.71542857,13.9997311 C6.54601681,13.9101849 6.38991597,13.8218487 6.24712605,13.7347227 C6.10433613,13.6475966 5.97243697,13.5737815 5.85142857,13.5132773 C5.73042017,13.4527731 5.61183193,13.422521 5.49566387,13.422521 C5.38433613,13.422521 5.27905882,13.4503529 5.17983193,13.5060168 C5.08060504,13.5616807 5.00194958,13.6306555 4.94386555,13.7129412 L4.94386555,13.7129412 L4.24685714,14.7221513 C4.59536134,15.0464538 5.02252101,15.323563 5.52833613,15.553479 C6.03415126,15.783395 6.56537815,15.9443361 7.12201681,16.0363025 L7.12201681,16.0363025 L6.97680672,17.5319664 L7.8045042,17.5319664 Z M7.77546218,9.38568067 C7.48020168,9.26467227 7.24181513,9.11583193 7.06030252,8.93915966 C6.87878992,8.76248739 6.78803361,8.53136134 6.78803361,8.24578151 C6.78803361,8.11993277 6.80981513,8.00013445 6.85337815,7.88638655 C6.89694118,7.77263866 6.96591597,7.66978151 7.06030252,7.57781513 C7.15468908,7.48584874 7.27811765,7.40719328 7.43058824,7.34184874 C7.58305882,7.2765042 7.77062185,7.22689076 7.99327731,7.1930084 L7.99327731,7.1930084 L7.77546218,9.38568067 Z M8.6685042,14.2647395 L8.90084034,11.8687731 C9.1912605,11.9801008 9.42480672,12.1180504 9.60147899,12.2826218 C9.77815126,12.4471933 9.86648739,12.6674286 9.86648739,12.9433277 C9.86648739,13.6838992 9.46715966,14.1243697 8.6685042,14.2647395 L8.6685042,14.2647395 Z" id="$" fill="#FFFFFF" fill-rule="nonzero"></path>
            </g>
        </g>
    </g>
</svg>