<svg xmlns="http://www.w3.org/2000/svg" width="25" height="24" viewBox="0 0 25 24">
    <g fill="none" fill-rule="evenodd">
        <g fill="#3E249D" fill-rule="nonzero">
            <g>
                <path d="M2 6.568C.786 8.971.396 11.718.934 14.421l.675-.138c-.507-2.546-.14-5.133 1.005-7.396L2 6.568zM17.793 1.243c-2.33-1.158-4.971-1.52-7.57-.989C7.276.856 4.72 2.54 2.984 4.951l.557.412C5.176 3.09 7.582 1.506 10.36.939c2.448-.5 4.935-.16 7.13.93l.303-.626zM24.206 9.667c-.61-3.064-2.342-5.708-4.816-7.467l-.396.572c2.331 1.657 3.962 4.146 4.536 7.033l.676-.138z" transform="translate(-210 -488) translate(209.738 488)"/>
                <path d="M24.446 12.286c.017-.873-.061-1.75-.234-2.62l-.676.137c.164.82.237 1.647.221 2.47l.69.013zM.94 14.42c.034.173.072.344.113.513l.67-.167c-.04-.16-.075-.32-.108-.484l-.675.138zM9.853 23.558c2.728-3.146 3.89-7.4 3.057-11.584l-.675.138c.79 3.968-.312 8-2.9 10.985l.518.46z" transform="translate(-210 -488) translate(209.738 488)"/>
                <path d="M10.283 18.754c-.548 1.421-1.374 2.72-2.426 3.812l.494.488c1.116-1.16 1.993-2.538 2.574-4.047l-.642-.253z" transform="translate(-210 -488) translate(209.738 488)"/>
                <path d="M14.327 11.684c-.195-.983-1.14-1.62-2.112-1.421-.97.198-1.598 1.156-1.403 2.14l.066.33c.248 1.435.217 2.881-.079 4.279l.674.146c.338-1.599.351-3.257.025-4.895l-.03-.152c-.034-.548.337-1.052.884-1.164.563-.115 1.113.227 1.275.775l.02.102c.824 4.136-.195 8.341-2.71 11.603l.542.43c2.576-3.34 3.656-7.627 2.902-11.866l-.054-.307zM9.516 13.325c.427 3.193-.715 6.364-3.009 8.538l.47.51c2.456-2.327 3.68-5.722 3.222-9.142l-.683.094z" transform="translate(-210 -488) translate(209.738 488)"/>
                <path d="M15.738 11.396c-.352-1.773-2.057-2.92-3.807-2.563-1.28.261-2.264 1.27-2.526 2.542l.674.143c.206-1.002.981-1.795 1.988-2 1.334-.273 2.634.565 2.967 1.886l.026.131c.203 1.023.306 2.053.309 3.078l.689-.002c-.003-.973-.092-1.95-.267-2.922l-.053-.293zM13.222 23.913c1.49-2.206 2.433-4.749 2.732-7.41l-.684-.079c-.287 2.548-1.19 4.983-2.616 7.095l.568.394z" transform="translate(-210 -488) translate(209.738 488)"/>
                <path d="M5.287 21.012l.45.528c2.436-2.137 3.585-5.442 2.936-8.7l-.05-.257c-.281-2.092 1.088-4.072 3.16-4.496.365-.074.734-.097 1.099-.068l.053-.696c-.428-.034-.86-.007-1.289.08-2.53.517-4.166 3.013-3.656 5.576l.066.332c.46 2.9-.603 5.8-2.77 7.701zM17.15 11.108c-.274-1.375-1.122-2.53-2.307-3.2l-.336.61c.973.549 1.679 1.482 1.939 2.596l.026.133c.835 4.196.102 8.462-1.994 12.081l.595.353c2.133-3.684 2.91-8.015 2.128-12.29l-.051-.283z" transform="translate(-210 -488) translate(209.738 488)"/>
                <path d="M6.258 17.153c-.43 1.12-1.14 2.115-2.058 2.877l.436.54c1.01-.839 1.792-1.931 2.265-3.164l-.643-.253zM6.684 15.383l.685.074c.081-.77.046-1.554-.108-2.329l-.055-.273c-.426-2.876 1.447-5.616 4.292-6.197 2.902-.593 5.73 1.281 6.366 4.197l.02.103c.446 2.239.483 4.502.124 6.707l.68.113c.36-2.214.336-4.485-.084-6.733l-.043-.225c-.667-3.353-3.89-5.523-7.2-4.847-3.308.676-5.45 3.942-4.782 7.295l.06.307c.094.604.108 1.21.045 1.808zM17.015 23.098c.534-1.112.963-2.274 1.279-3.468l-.666-.181c-.304 1.151-.717 2.27-1.233 3.343l.62.306z" transform="translate(-210 -488) translate(209.738 488)"/>
                <path d="M18.388 21.805l.643.249c1.377-3.645 1.72-7.614.942-11.522l-.025-.125c-.228-1.047-.66-2.018-1.271-2.866l-.557.41c.576.803.979 1.724 1.177 2.718l.023.118c.722 3.74.384 7.531-.932 11.018zM9.705 5.724c.478-.222.983-.389 1.508-.496 2.046-.418 4.125.125 5.708 1.439l.437-.54c-1.742-1.445-4.03-2.043-6.28-1.583-.578.117-1.134.3-1.66.545l.287.635zM5.848 13.417l-.07-.35-.348.08.075.34.338-.069c-.019-.092-.035-.184-.05-.276-.39-2.471.558-4.94 2.454-6.5L7.813 6.1c-2.164 1.78-3.207 4.637-2.646 7.456l.07.35.348-.08-.075-.34-.337.069c.016.082.03.164.043.246.3 1.955-.461 3.904-1.969 5.131l.432.545c1.77-1.441 2.626-3.766 2.17-6.06z" transform="translate(-210 -488) translate(209.738 488)"/>
                <path d="M3.756 13.844l.072.36.355-.091-.085-.339-.338.07c.013.063.024.126.034.19.21 1.396-.314 2.789-1.367 3.693l.445.533c1.29-1.109 1.904-2.844 1.564-4.555l-.072-.36-.355.092.085.338.338-.069c-.019-.091-.035-.183-.05-.275-.059-.35-.095-.703-.109-1.055l-.688.029c.019.481.076.962.171 1.44zM10.793 3.114c-3.666.749-6.454 3.7-7.084 7.371l.679.12c.581-3.39 3.156-6.115 6.54-6.807 4.496-.918 8.874 2.03 9.78 6.583l.052.264c.053.284.1.568.142.853l.682-.103c-.056-.384-.123-.768-.199-1.152l-.053-.266c-1.102-4.78-5.76-7.84-10.54-6.863zM21.084 20.36c.606-2.304.844-4.695.694-7.097l-.687.044c.145 2.326-.085 4.642-.673 6.873l.666.18z" transform="translate(-210 -488) translate(209.738 488)"/>
                <path d="M2.345 14.133l.071.36.355-.092-.085-.338-.338.069c.009.044.017.089.023.133.114.78-.13 1.56-.654 2.132l.505.475c.703-.768 1.01-1.832.802-2.878l-.072-.36-.355.091.085.339.338-.07c-.017-.086-.033-.173-.048-.26C2.068 8.483 5.456 3.428 10.644 2.37c1.077-.22 2.165-.255 3.231-.11l.092-.691c-1.141-.156-2.306-.12-3.459.116-5.647 1.154-9.302 6.727-8.163 12.449zM15.746 1.975l-.21.665c3.34 1.085 5.877 3.906 6.583 7.453l.06.298c.44 2.365.51 4.752.222 7.099l.684.086c.31-2.52.217-5.084-.288-7.621l-.059-.298c-.842-3.657-3.51-6.55-6.992-7.682z" transform="translate(-210 -488) translate(209.738 488)"/>
            </g>
        </g>
    </g>
</svg>
