<?xml version="1.0" encoding="UTF-8"?>
<svg width="26px" height="22px" viewBox="0 0 26 22" version="1.1" xmlns="http://www.w3.org/2000/svg" xmlns:xlink="http://www.w3.org/1999/xlink">
    <title>trade icon</title>
    <g id="Page-1" stroke="none" stroke-width="1" fill="none" fill-rule="evenodd" opacity="0.621268657">
        <g id="trade-icon" fill="#000000" fill-rule="nonzero">
            <g id="exchange">
                <path d="M5.14729486,8.4273695 C5.26374101,8.47438577 5.39878712,8.47438577 5.51523327,8.41798387 L9.15257098,6.74941291 C9.38541962,6.63660911 9.48322216,6.3545996 9.37144783,6.11960636 C9.26434531,5.89399875 8.99888127,5.79058058 8.77066078,5.89399875 L6.22312284,7.06433822 C7.43866873,3.39349975 10.8245142,0.940017011 14.7226441,0.940017011 C18.8070792,0.940017011 22.3791861,3.69432458 23.4084269,7.63774287 C23.473614,7.88683658 23.7297781,8.03727103 23.9765985,7.97143943 C24.2234189,7.9056519 24.3724805,7.6471285 24.3072497,7.39803478 C23.1708627,3.04570271 19.2308174,0 14.7226005,0 C10.4239604,0 6.68414831,2.70729129 5.33355631,6.75884261 L4.26240015,4.05626616 C4.18324122,3.81184323 3.91777718,3.67555332 3.6755849,3.75544133 C3.43339262,3.83532933 3.29834651,4.10323837 3.37750545,4.3476613 C3.38217727,4.36647662 3.39147724,4.38524788 3.40077721,4.4040632 L4.88645897,8.16417531 C4.93304617,8.28169396 5.02617689,8.38039729 5.14729486,8.4273695 Z" id="Path"></path>
                <g id="calendar" transform="translate(0.000000, 10.153846)">
                    <path d="M0.417750561,10.2666667 L2.50632913,10.2666667 L2.50632913,11.4512821 C2.50632913,11.6693566 2.69335437,11.8461538 2.92404484,11.8461538 L13.8403488,11.8461538 C14.0710393,11.8461538 14.2580645,11.6693566 14.2580645,11.4512821 L14.2580645,1.18461538 C14.2580645,0.966540855 14.0710393,0.78974359 13.8403488,0.78974359 L11.7517702,0.78974359 L11.7517702,0.394871795 C11.7517702,0.176797265 11.564745,0 11.3340545,0 C11.1033641,0 10.9163388,0.176797265 10.9163388,0.394871795 L10.9163388,0.78974359 L8.79991253,0.78974359 L8.79991253,0.394871795 C8.79991253,0.176797265 8.61288729,0 8.38219682,0 C8.15150636,0 7.96448111,0.176797265 7.96448111,0.394871795 L7.96448111,0.78974359 L5.87590254,0.78974359 L5.87590254,0.394871795 C5.87590254,0.176797265 5.68887729,0 5.45818683,0 C5.22749637,0 5.04047112,0.176797265 5.04047112,0.394871795 L5.04047112,0.78974359 L2.92404484,0.78974359 C2.69335437,0.78974359 2.50632913,0.966540855 2.50632913,1.18461538 L2.50632913,3.55384615 C2.50632913,6.46405128 1.2268659,8.70286906 0.150328961,9.56845436 C0.0152118522,9.67488547 -0.0348861857,9.84989265 0.0249585521,10.0062356 C0.0848589854,10.1625521 0.241864398,10.2666667 0.417750561,10.2666667 Z M13.4226331,11.0564103 L3.34176055,11.0564103 L3.34176055,10.2666667 L11.3340545,10.2666667 C11.4317722,10.2666667 11.5263987,10.2342872 11.6014761,10.1751354 C12.1036261,9.77976342 12.8814406,8.83844171 13.4226331,7.63281915 L13.4226331,11.0564103 Z M3.34176055,1.57948718 L5.04047112,1.57948718 L5.04047112,1.97435897 C5.04047112,2.1924335 5.22749637,2.36923077 5.45818683,2.36923077 C5.68887729,2.36923077 5.87590254,2.1924335 5.87590254,1.97435897 L5.87590254,1.57948718 L7.96448111,1.57948718 L7.96448111,1.97435897 C7.96448111,2.1924335 8.15150636,2.36923077 8.38219682,2.36923077 C8.61288729,2.36923077 8.79991253,2.1924335 8.79991253,1.97435897 L8.79991253,1.57948718 L10.9163388,1.57948718 L10.9163388,1.97435897 C10.9163388,2.1924335 11.1033641,2.36923077 11.3340545,2.36923077 C11.564745,2.36923077 11.7517702,2.1924335 11.7517702,1.97435897 L11.7517702,1.57948718 L13.4226331,1.57948718 L13.4226331,3.15897436 L3.34176055,3.15897436 L3.34176055,1.57948718 Z M3.33460369,3.9484547 L13.4152256,3.9484547 C13.3211003,6.45338974 12.304074,8.42427385 11.1702543,9.47692308 L1.36788672,9.47692308 C2.65258532,7.92952581 3.2656806,5.91470564 3.33460369,3.9484547 Z" id="Shape"></path>
                </g>
                <path d="M25.971669,15.0848179 C25.9669963,15.0754304 25.9623674,15.0659989 25.9623674,15.0566114 L24.4764245,11.2957618 C24.4298291,11.1782201 24.336682,11.0794974 24.2155864,11.0325159 C24.0991198,10.9854904 23.96405,10.9902062 23.8475834,11.0419034 L20.2096064,12.7108017 C19.9720442,12.8095243 19.8602502,13.0868734 19.95807,13.3266285 C20.0558897,13.5663836 20.330702,13.6792095 20.5682642,13.5804868 C20.5775658,13.5757711 20.5869111,13.5710994 20.5962127,13.5663836 L23.1441984,12.3958146 C21.9191372,16.0673731 19.3667338,18.5213371 15.4725914,18.5213371 C15.4307934,18.5213371 15.4204395,19.3306717 15.4235135,19.3048376 C15.4235135,19.3048376 15.4235135,19.3872084 15.4235135,19.3872084 C15.4235135,19.3872084 15.4726351,19.3872084 15.4726351,19.4615385 C19.7720306,19.4615385 22.6691176,16.7537161 24.0246196,12.7013701 L25.095964,15.4044767 C25.1844821,15.6489475 25.4499928,15.7758767 25.692184,15.6865415 C25.9343752,15.5972503 26.0601434,15.3292888 25.971669,15.0848179 Z" id="Path"></path>
            </g>
        </g>
    </g>
</svg>