<svg xmlns="http://www.w3.org/2000/svg" width="73" height="82" viewBox="0 0 73 82">
    <g fill="none" fill-rule="evenodd">
        <g>
            <g>
                <g>
                    <g transform="translate(-155 -166) translate(155 166)">
                        <path fill="#FFD7DE" d="M55.116 13.106c-7.828 0-15.054-2.566-20.879-6.9-5.824 4.334-13.05 6.9-20.878 6.9-2.575 0-5.084-.28-7.5-.807l2.48 33.505c.68 9.173 5.687 17.48 13.494 22.386l12.404 7.797 12.45-7.778c7.868-4.915 12.908-13.277 13.566-22.507l2.383-33.407c-2.422.53-4.938.811-7.52.811z"/>
                        <path fill="#FEAECE" d="M55.116 13.106c-1.509 0-2.994-.096-4.453-.281l-1.897 26.603c-.658 9.23-5.698 17.592-13.566 22.507l-11.695 7.306 10.732 6.746 12.45-7.778c7.868-4.915 12.908-13.277 13.566-22.507l2.383-33.407c-2.422.53-4.938.81-7.52.81z"/>
                        <path fill="#5E32FF" d="M35.545 81.465c-.805.502-1.827.5-2.63-.004L18.978 72.7C9.776 66.917 3.804 57.01 3.003 46.196L.156 7.754C.075 6.66 1.074 5.796 2.15 6.03L7.003 7.09c2.08.453 4.22.683 6.356.683 6.43 0 12.542-2.02 17.676-5.84L32.76.649c.877-.653 2.08-.653 2.956 0l1.725 1.283c5.134 3.82 11.247 5.84 17.676 5.84 2.143 0 4.287-.23 6.373-.687l4.841-1.059c1.075-.235 2.074.626 1.996 1.72l-2.734 38.333c-.776 10.889-6.78 20.851-16.062 26.649l-13.985 8.737zM12.402 18.428c-.388-.01-.7.318-.67.704l1.946 26.28c.551 7.452 4.668 14.28 11.01 18.267l8.858 5.567c.428.27.973.27 1.402.002l8.897-5.558c6.397-3.996 10.535-10.862 11.07-18.366l1.868-26.195c.028-.385-.283-.711-.67-.702-.333.008-.665.012-.997.012-7.222 0-14.154-1.873-20.287-5.452-.366-.214-.816-.214-1.182 0-6.134 3.58-13.065 5.452-20.288 5.452-.32 0-.638-.004-.957-.011z"/>
                        <path fill="#2700B5" d="M66.33 6.026l-2.622.574-2.624 36.787c-.776 10.889-6.78 20.851-16.062 26.649l-15.189 9.488 3.082 1.937c.803.505 1.825.506 2.63.004l13.985-8.737c9.28-5.797 15.286-15.76 16.062-26.648l2.734-38.334c.078-1.094-.921-1.955-1.996-1.72z"/>
                        <path fill="#ECF4FF" d="M45.48 37.049c0 2.51-.829 4.828-2.229 6.695-2.049 2.735-5.322 2.77-9.01 2.77-3.688 0-6.961-.035-9.01-2.77C23.83 41.877 23 39.56 23 37.05c0-6.186 5.033-11.2 11.24-11.2s11.239 5.014 11.239 11.2z"/>
                        <ellipse cx="34.241" cy="35.91" fill="#524798" rx="4.607" ry="4.591"/>
                        <path fill="#524798" d="M36.89 39.855h-5.299c-2.777 0-5.181 1.581-6.36 3.89 2.048 2.734 5.322 4.504 9.01 4.504 3.688 0 6.96-1.77 9.01-4.505-1.18-2.308-3.584-3.89-6.36-3.89z"/>
                        <g transform="translate(46.265 45.626)">
                            <ellipse cx="12.739" cy="13.123" fill="#ECF4FF" rx="12.655" ry="12.612"/>
                            <path fill="#DDEAFB" d="M19.213 2.284c1.129 1.887 1.779 4.094 1.779 6.451 0 6.965-5.666 12.612-12.656 12.612-2.365 0-4.58-.649-6.474-1.775 2.208 3.69 6.253 6.163 10.877 6.163 6.99 0 12.656-5.646 12.656-12.612 0-4.608-2.48-8.639-6.182-10.839z"/>
                            <path fill="#4019CE" d="M11.564 17.212l-5.627-5.277c-.497-.466-.521-1.245-.054-1.74.468-.495 1.25-.519 1.746-.053l4.687 4.395L24.412.529c.445-.515 1.225-.573 1.742-.13.517.444.575 1.22.13 1.736L13.346 17.118c-.22.255-.534.408-.87.426l-.066.002c-.314 0-.616-.12-.846-.334z"/>
                        </g>
                    </g>
                </g>
            </g>
        </g>
    </g>
</svg>
