<svg xmlns="http://www.w3.org/2000/svg" width="21" height="15" viewBox="0 0 21 15">
    <g fill="none" fill-rule="evenodd">
        <g fill="#8B8B8B">
            <path d="M314.5 484.688c3.316 0 6.274 1.863 7.717 4.812-1.443 2.949-4.392 4.813-7.717 4.813-3.325 0-6.274-1.864-7.717-4.813 1.443-2.949 4.4-4.813 7.717-4.813zm0-1.75c-4.375 0-8.111 2.72-9.625 6.562 1.514 3.841 5.25 6.563 9.625 6.563s8.111-2.722 9.625-6.563c-1.514-3.841-5.25-6.563-9.625-6.563zm0 4.375c1.207 0 2.188.98 2.188 2.187 0 1.207-.98 2.188-2.188 2.188-1.207 0-2.188-.98-2.188-2.188 0-1.207.98-2.188 2.188-2.188zm0-1.75c-2.17 0-3.938 1.767-3.938 3.937s1.768 3.938 3.938 3.938 3.938-1.768 3.938-3.938-1.768-3.938-3.938-3.938z" transform="translate(-304 -482)"/>
        </g>
    </g>
</svg>
