<svg xmlns="http://www.w3.org/2000/svg" width="59" height="53" viewBox="0 0 59 53">
    <g fill="none" fill-rule="evenodd">
        <g>
            <g>
                <g>
                    <path fill="#E50027" d="M57.784 39.682L36.94 4.344C35.348 1.679 32.58.066 29.5.066s-5.848 1.613-7.44 4.278L1.216 39.682c-1.592 2.77-1.627 6.065-.07 8.834 1.558 2.77 4.36 4.417 7.51 4.417h41.688c3.15 0 5.952-1.647 7.51-4.417 1.557-2.77 1.522-6.065-.07-8.834z" transform="translate(-159 -277) translate(159 277)"/>
                    <path fill="#C1001F" d="M57.853 48.516c-1.557 2.77-4.36 4.417-7.509 4.417H29.5V.067c3.08 0 5.848 1.612 7.44 4.277l20.844 35.338c1.592 2.77 1.627 6.065.07 8.834z" transform="translate(-159 -277) translate(159 277)"/>
                    <path fill="#FD003A" d="M8.655 49.428c-1.916 0-3.555-.966-4.501-2.647-.946-1.682-.93-3.629.054-5.337l20.824-35.31c.953-1.595 2.63-2.562 4.468-2.562s3.515.967 4.481 2.587L54.809 41.47c.967 1.681.983 3.628.037 5.31-.946 1.681-2.585 2.647-4.501 2.647H8.655z" transform="translate(-159 -277) translate(159 277)"/>
                    <path fill="#E50027" d="M50.345 49.428c1.916 0 3.555-.966 4.501-2.647.946-1.682.93-3.629-.037-5.31L33.981 6.16c-.967-1.62-2.643-2.587-4.481-2.587v45.856h20.845z" transform="translate(-159 -277) translate(159 277)"/>
                    <path fill="#E1E4FB" d="M32.96 14.37v14.023c0 1.928-1.557 3.506-3.46 3.506s-3.46-1.578-3.46-3.506V14.37c0-1.928 1.557-3.506 3.46-3.506s3.46 1.578 3.46 3.506z" transform="translate(-159 -277) translate(159 277)"/>
                    <path fill="#C5C9F7" d="M32.96 14.37v14.023c0 1.928-1.557 3.506-3.46 3.506V10.864c1.903 0 3.46 1.578 3.46 3.506z" transform="translate(-159 -277) translate(159 277)"/>
                    <path fill="#E1E4FB" d="M29.5 35.405c-2.872 0-5.19 2.348-5.19 5.258s2.318 5.259 5.19 5.259c2.872 0 5.19-2.349 5.19-5.259s-2.318-5.258-5.19-5.258z" transform="translate(-159 -277) translate(159 277)"/>
                    <path fill="#C5C9F7" d="M34.69 40.663c0 2.91-2.318 5.259-5.19 5.259V35.405c2.872 0 5.19 2.349 5.19 5.258z" transform="translate(-159 -277) translate(159 277)"/>
                </g>
            </g>
        </g>
    </g>
</svg>
